<?xml version="1.0" encoding="UTF-8" standalone="no"?>
<!DOCTYPE svg  PUBLIC '-//W3C//DTD SVG 1.1//EN'  'http://www.w3.org/Graphics/SVG/1.1/DTD/svg11.dtd'>
<svg xmlns="http://www.w3.org/2000/svg">
<defs>
<font id="PalatinoLinotype-Bold" horiz-adv-x="1024">
<font-face underline-position="-148" font-weight="700" descent="-410" panose-1="2 4 7 2 6 3 5 10 2 4" units-per-em="2048" unicode-range="U+0020-FB06" bbox="-322 -592 2036 1930" x-height="944" underline-thickness="120" font-family="PalatinoLinotype" ascent="1638" cap-height="1411"/>
<missing-glyph horiz-adv-x="2048"/>
<glyph glyph-name="uniFB00" horiz-adv-x="1383" unicode="ff" d="M1359 1481q-2 -33 -4 -107v-22q0 -34 2 -78l-31 -18q-48 50 -122 50q-54 0 -83 -22t-36.5 -65.5t-7.5 -181.5v-140h61q68 0 176 8l14 -11l-23 -114l-10 -10l-143 1q-46 0 -75 -1v-178q0 -454 14 -485q7 -16 29 -23.5t106 -9.5l10 -10v-61l-10 -10l-74 3q-106 4 -200 4 q-159 0 -253 -7l-10 10v61l10 10q80 3 99.5 14.5t21.5 48.5q7 130 7 455v178h-380v-178q0 -454 14 -485q7 -16 29 -23.5t106 -9.5l10 -10v-61l-10 -10l-74 3q-106 4 -200 4q-159 0 -253 -7l-10 10v61l10 10q80 3 99.5 14.5t21.5 48.5q7 130 7 455v178h-12q-20 0 -55 -2 q-18 -1 -53 -3l-10 10v31l9 14l75 46q34 21 40 28t6 19v15q0 154 20 210q11 30 42 68q9 11 130 126l62 59q27 27 68 64q55 40 134 40q33 0 76 -14q-2 -33 -4 -107v-22q0 -34 2 -78l-31 -18q-48 50 -122 50q-54 0 -83 -22t-36.5 -65.5t-7.5 -181.5v-140h380v31q0 154 20 210 q11 30 42 68q9 11 130 126l62 59q27 27 68 64q55 40 134 40q33 0 76 -14z"/>
<glyph glyph-name="uniFB01" horiz-adv-x="1258" unicode="fi" d="M1226 3l-10 -10q-95 7 -264 7t-263 -7l-10 10v61l10 10q89 3 109 14.5t22 48.5q7 130 7 279v143q0 194 -15 230q-8 20 -43 25q-13 2 -86 5l-8 -39l-10 -10l-143 1q-46 0 -75 -1v-178q0 -454 14 -485q7 -16 29 -23.5t106 -9.5l10 -10v-61l-10 -10l-74 3q-106 4 -200 4 q-159 0 -253 -7l-10 10v61l10 10q80 3 99.5 14.5t21.5 48.5q7 130 7 455v178h-12q-20 0 -55 -2q-18 -1 -53 -3l-10 10v31l9 14l75 46q34 21 40 28t6 19v15q0 154 20 210q11 30 42 68q9 11 130 126l62 59q27 27 68 64q55 40 134 40q33 0 76 -14q-2 -33 -4 -107v-22 q0 -34 2 -78l-31 -18q-48 50 -122 50q-54 0 -83 -22t-36.5 -65.5t-7.5 -181.5v-140q149 0 235 4q138 6 230 30q62 16 157 48l21 -13q-13 -182 -13 -307v-319q0 -73 7 -203q2 -37 22 -48.5t109 -14.5l11 -10v-61zM1118 1308q0 -64 -45 -109.5t-108 -45.5q-64 0 -109 45.5 t-45 109.5q0 66 45.5 111t108.5 45q62 0 107.5 -45t45.5 -111z"/>
<glyph glyph-name="uniFB02" horiz-adv-x="1258" unicode="fl" d="M1226 3l-10 -10q-95 7 -264 7t-263 -7l-10 10v61l10 10q89 3 109 14.5t22 48.5q7 130 7 455v335q0 210 -7 340q-2 37 -21 48q-15 9 -74 13l2 -54l-31 -18q-48 50 -122 50q-54 0 -83 -22t-36.5 -65.5t-7.5 -181.5v-140h61q68 0 176 8l14 -11l-23 -114l-10 -10l-143 1 q-46 0 -75 -1v-178q0 -454 14 -485q7 -16 29 -23.5t106 -9.5l10 -10v-61l-10 -10l-74 3q-106 4 -200 4q-159 0 -253 -7l-10 10v61l10 10q80 3 99.5 14.5t21.5 48.5q7 130 7 455v178h-12q-20 0 -55 -2q-18 -1 -53 -3l-10 10v31l9 14l75 46q34 21 40 28t6 19v15q0 154 20 210 q11 30 42 68q9 11 130 126l62 59q27 27 68 64q55 40 134 40q33 0 76 -14q-1 -17 -3 -69q63 8 125 19q79 14 218 59l21 -12q0 -27 -3 -99q-10 -239 -10 -529v-258q0 -325 7 -455q2 -37 22 -48.5t109 -14.5l11 -10v-61z"/>
<glyph glyph-name="uniFB03" horiz-adv-x="1888" unicode="ffi" d="M1856 3l-10 -10q-95 7 -264 7t-263 -7l-10 10v61l10 10q89 3 109 14.5t22 48.5q7 130 7 279v143q0 194 -15 230q-8 20 -43 25q-13 2 -86 5l-8 -39l-10 -10l-143 1q-46 0 -75 -1v-178q0 -454 14 -485q7 -16 29 -23.5t106 -9.5l10 -10v-61l-10 -10l-74 3q-106 4 -200 4 q-159 0 -253 -7l-10 10v61l10 10q80 3 99.5 14.5t21.5 48.5q7 130 7 455v178h-380v-178q0 -454 14 -485q7 -16 29 -23.5t106 -9.5l10 -10v-61l-10 -10l-74 3q-106 4 -200 4q-159 0 -253 -7l-10 10v61l10 10q80 3 99.5 14.5t21.5 48.5q7 130 7 455v178h-12q-20 0 -55 -2 q-18 -1 -53 -3l-10 10v31l9 14l75 46q34 21 40 28t6 19v15q0 154 20 210q11 30 42 68q9 11 130 126l62 59q27 27 68 64q55 40 134 40q33 0 76 -14q-2 -33 -4 -107v-22q0 -34 2 -78l-31 -18q-48 50 -122 50q-54 0 -83 -22t-36.5 -65.5t-7.5 -181.5v-140h380v31q0 154 20 210 q11 30 42 68q9 11 130 126l62 59q27 27 68 64q55 40 134 40q33 0 76 -14q-2 -33 -4 -107v-22q0 -34 2 -78l-31 -18q-48 50 -122 50q-54 0 -83 -22t-36.5 -65.5t-7.5 -181.5v-140q149 0 235 4q138 6 230 30q62 16 157 48l21 -13q-13 -182 -13 -307v-319q0 -73 7 -203 q2 -37 22 -48.5t109 -14.5l11 -10v-61zM1748 1308q0 -64 -45 -109.5t-108 -45.5q-64 0 -109 45.5t-45 109.5q0 66 45.5 111t108.5 45q62 0 107.5 -45t45.5 -111z"/>
<glyph glyph-name="uniFB04" horiz-adv-x="1888" unicode="ffl" d="M1856 3l-10 -10q-95 7 -264 7t-263 -7l-10 10v61l10 10q89 3 109 14.5t22 48.5q7 130 7 455v335q0 210 -7 340q-2 37 -21 48q-15 9 -74 13l2 -54l-31 -18q-48 50 -122 50q-54 0 -83 -22t-36.5 -65.5t-7.5 -181.5v-140h61q68 0 176 8l14 -11l-23 -114l-10 -10l-143 1 q-46 0 -75 -1v-178q0 -454 14 -485q7 -16 29 -23.5t106 -9.5l10 -10v-61l-10 -10l-74 3q-106 4 -200 4q-159 0 -253 -7l-10 10v61l10 10q80 3 99.5 14.5t21.5 48.5q7 130 7 455v178h-380v-178q0 -454 14 -485q7 -16 29 -23.5t106 -9.5l10 -10v-61l-10 -10l-74 3 q-106 4 -200 4q-159 0 -253 -7l-10 10v61l10 10q80 3 99.5 14.5t21.5 48.5q7 130 7 455v178h-12q-20 0 -55 -2q-18 -1 -53 -3l-10 10v31l9 14l75 46q34 21 40 28t6 19v15q0 154 20 210q11 30 42 68q9 11 130 126l62 59q27 27 68 64q55 40 134 40q33 0 76 -14q-2 -33 -4 -107 v-22q0 -34 2 -78l-31 -18q-48 50 -122 50q-54 0 -83 -22t-36.5 -65.5t-7.5 -181.5v-140h380v31q0 154 20 210q11 30 42 68q9 11 130 126l62 59q27 27 68 64q55 40 134 40q33 0 76 -14q-1 -17 -3 -69q63 8 125 19q79 14 218 59l21 -12q0 -27 -3 -99q-10 -239 -10 -529v-258 q0 -325 7 -455q2 -37 22 -48.5t109 -14.5l11 -10v-61z"/>
<glyph glyph-name=".notdef" horiz-adv-x="2048"/>
<glyph glyph-name="glyph1" horiz-adv-x="0"/>
<glyph glyph-name="glyph2" horiz-adv-x="2048"/>
<glyph glyph-name="space" horiz-adv-x="512" unicode=" "/>
<glyph glyph-name="space" horiz-adv-x="512" unicode=" "/>
<glyph glyph-name="exclam" horiz-adv-x="569" unicode="!" d="M290 284q63 0 109 -45.5t46 -111.5q0 -65 -45.5 -111.5t-109.5 -46.5q-65 0 -110.5 46t-45.5 112q0 64 45.5 110.5t110.5 46.5zM246 412q-8 41 -22 173t-40 306q-45 301 -45 390q0 14 1 42q23 15 205 92l103 -1q1 -30 1 -40q0 -72 -22 -229l-47 -338l-49 -360l-76 -42z "/>
<glyph glyph-name="numbersign" horiz-adv-x="986" unicode="#" d="M340 497h229l77 410h-229zM173 0l63 341h-148l29 156h149l76 410h-148l29 156h148l55 296h76l-56 -296h229l55 296h75l-55 -296h148l-29 -156h-148l-77 -410h148l-29 -156h-148l-64 -341h-75l64 341h-229l-64 -341h-74z"/>
<glyph glyph-name="dollar" d="M746 337q0 184 -199 217v-472q91 24 145 92.5t54 162.5zM450 842v427q-183 -47 -183 -227q0 -164 183 -200zM966 447q0 -194 -113 -322t-306 -155v-197l-11 -11h-76l-10 11v191q-194 0 -384 81l-6 13q19 117 21 307l11 10h60l12 -11l1 -74q1 -49 14 -89q89 -118 271 -127 v496q-201 38 -287 112q-113 97 -113 266q0 241 192 363q87 55 208 70v100l10 11h75l12 -10v-97q197 -8 333 -73l7 -15q-13 -56 -21 -193l-5 -85l-11 -10h-61l-11 10q-3 50 -3 73q0 59 -10 82q-64 93 -218 100v-448q203 -29 299 -101q120 -92 120 -278z" unicode="$"/>
<glyph glyph-name="percent" horiz-adv-x="1821" unicode="%" d="M575 1105q0 277 -140 277q-143 0 -143 -293q0 -283 136 -283q99 0 132 126q15 58 15 173zM1531 339q0 276 -140 276q-143 0 -143 -293q0 -283 136 -283q104 0 134 137q13 59 13 163zM787 1104q0 -162 -98 -264.5t-259 -102.5q-211 0 -308 175q-42 76 -42 176 q0 160 98.5 261t257.5 101q156 0 253.5 -95t97.5 -251zM1314 1482l-749 -1558h-68l-6 15l748 1557h68zM1742 337q0 -162 -97.5 -264t-258.5 -102q-155 0 -252.5 98t-97.5 253q0 160 98.5 261t257.5 101q140 0 242 -85q108 -90 108 -262z"/>
<glyph glyph-name="ampersand" horiz-adv-x="1706" unicode="&amp;" d="M458 694q-46 -28 -81 -80.5t-35 -121.5q0 -105 53.5 -193t133 -142t176.5 -54q103 0 199 64q-145 124 -245 241.5t-201 285.5zM610 890q91 63 139.5 129t48.5 143q0 62 -35 102.5t-91 40.5q-61 0 -97.5 -43.5t-36.5 -108.5q0 -113 72 -263zM1652 238l20 -46l-3 -15 q-20 -18 -91.5 -96t-92.5 -107q-72 -17 -117 -17q-112 0 -207.5 45t-170.5 103q-181 -149 -425 -149q-225 0 -347 123.5t-122 288.5q0 143 88 242t234 169q-68 152 -68 277q0 88 34 127l96 113q61 72 84.5 88t76 33t106.5 17q108 0 170 -61.5t62 -163.5q0 -103 -73 -197 t-253 -207q77 -122 197 -259.5t230 -219.5q64 104 64 197q0 42 -11.5 83t-27.5 68h-180l-9 12q26 40 65 128q152 -5 216 -5q296 0 428 16l10 -8q-34 -92 -36 -149l-10 -10q-134 12 -292 14q10 -45 10 -85q0 -70 -28 -143t-109 -173q62 -46 150.5 -73.5t165.5 -27.5 q23 0 40.5 5t111.5 69z"/>
<glyph glyph-name="parenleft" horiz-adv-x="682" unicode="(" d="M562 -223q-106 62 -222.5 212.5t-164 297t-47.5 337.5q0 190 47 338t152.5 292t230.5 229h15l39 -35v-15q-68 -83 -102.5 -144.5t-58.5 -154t-38 -229t-14 -296.5q0 -304 49.5 -476t163.5 -301v-14l-35 -39z"/>
<glyph glyph-name="parenright" horiz-adv-x="682" unicode=")" d="M109 1483h16q154 -104 291.5 -321.5t137.5 -537.5q0 -149 -26.5 -266t-95.5 -237.5t-156.5 -211.5t-154.5 -132l-15 2l-36 39v14q105 115 159.5 285t54.5 492q0 159 -14 296t-38 228.5t-58 152.5t-103 147l-1 15z"/>
<glyph glyph-name="asterisk" horiz-adv-x="909" unicode="*" d="M816 978l-21 -21q-145 40 -311 70q66 -120 161 -251l-7 -14q-91 -35 -168 -75l-31 13q-3 77 -25 303q-85 -86 -205 -217l-34 4q-31 74 -85 155l8 16l282 107q-142 71 -283 124l-7 15q71 103 91 158l33 1q59 -74 207 -237q19 186 27 296l17 13q84 -38 187 -44l11 -30 q-49 -68 -169 -264q94 15 290 65l11 -8q6 -92 21 -179z"/>
<glyph glyph-name="plus" d="M993 515h-392v-386h-177v386h-392v172h392v386h177v-386h392v-172z" unicode="+"/>
<glyph glyph-name="comma" horiz-adv-x="512" unicode="," d="M0 -328q136 260 168 539l109 22q81 16 161 50l36 -34q-39 -93 -132.5 -264t-168.5 -275l-143 -63z"/>
<glyph glyph-name="period" horiz-adv-x="512" unicode="." d="M256 286q64 0 110 -45.5t46 -113.5q0 -66 -46 -112t-110 -46t-110.5 46.5t-46.5 111.5q0 66 46 112.5t111 46.5z"/>
<glyph glyph-name="slash" horiz-adv-x="606" unicode="/" d="M-14 -51l486 1550l14 9h134l7 -14l-486 -1551l-13 -8h-135z"/>
<glyph glyph-name="zero" d="M712 560q0 391 -56 561q-45 136 -155 136q-102 0 -145 -104q-46 -110 -46 -376q0 -334 40 -510q19 -84 40 -121q49 -86 134 -86q144 0 173 222q15 116 15 278zM959 724q0 -392 -98 -561q-120 -207 -363 -207q-235 0 -343 182q-89 150 -89 498q0 274 54 430 q49 144 158 224q104 76 248 76q225 0 324 -136q109 -149 109 -506z" unicode="0"/>
<glyph glyph-name="one" d="M934 3l-11 -12q-140 9 -342 9q-197 0 -415 -9l-11 11v61l12 10q51 6 99 10q86 7 110 17q17 8 29 37q19 47 19 380v249q0 112 -4 284l-2 75q0 50 -21 50q-9 0 -59 -23q-137 -63 -235 -111l-12 7q-6 57 -21 127l1 8q276 78 617 209l21 -15q-4 -59 -11 -175q-3 -44 -6 -236 l-3 -393q0 -422 14 -453q10 -23 30 -28q36 -10 188 -18l13 -10v-61z" unicode="1"/>
<glyph glyph-name="two" d="M966 225q-7 -67 -7 -130q0 -47 4 -92l-12 -14q-275 11 -450 11q-183 0 -434 -10l-13 12v91l204 208q229 233 299 354q41 71 58 129.5t17 124.5q0 239 -219 239q-122 0 -194 -93q-11 -43 -39 -150l-11 -10h-57l-10 10l37 334q126 126 351 126q201 0 310 -105 q101 -96 101 -255q0 -65 -15 -120q-31 -112 -127 -226q-80 -95 -242 -250q-59 -58 -179 -171l2 -13h177q77 0 146 2l173 5q66 2 115 6z" unicode="2"/>
<glyph glyph-name="three" d="M937 464q0 -213 -177.5 -360.5t-416.5 -147.5q-127 0 -244 55q-18 174 -48 294l6 14l50 15l12 -5q99 -253 317 -253q113 0 181.5 73.5t68.5 201.5q0 127 -75 196q-71 66 -191 66q-55 0 -119 -18l-12 13q22 71 38 152h82q89 0 154 63.5t65 151.5q0 83 -57.5 135t-143.5 52 q-136 0 -185 -70q-23 -33 -44 -95l-11 -33l-14 -9l-51 4l-10 13l35 163q15 69 22 135q130 98 327 98q167 0 266 -82q94 -80 94 -209q0 -186 -222 -302q112 0 203 -76q100 -83 100 -235z" unicode="3"/>
<glyph glyph-name="four" d="M543 1206q-133 -213 -197 -333q-44 -82 -173 -363h359zM968 4l-11 -12q-145 8 -323 8q-101 0 -333 -8l-10 11v62l11 11l107 8q80 6 95 22q20 22 23 108l4 131h-132l-200 -2q-54 0 -159 -3l-14 83q41 127 218 455q182 337 283 463l251 50l18 -17q-18 -193 -18 -629v-235 h32q47 0 140 5l12 -11q-2 -49 -2 -86t2 -62l-12 -12q-16 1 -51 1h-121q0 -220 22 -241q18 -17 77 -22q45 -4 81 -9l10 -9v-60z" unicode="4"/>
<glyph glyph-name="five" d="M928 483q0 -216 -167 -369q-171 -158 -420 -158q-107 0 -230 47q-6 57 -64 280l6 14l48 17l14 -6q100 -231 321 -231q157 0 221 137q29 62 29 144q0 134 -72 211.5t-199 77.5q-114 0 -229 -84l-39 22q13 193 13 315v138q0 148 -15 311l13 10q242 -11 407 -11 q107 0 304 11l9 -16q-12 -99 -12 -143q0 -25 3 -69l-10 -13q-123 6 -295 6q-207 0 -296 -8l-8 -327q146 69 271 69q183 0 290 -102t107 -273z" unicode="5"/>
<glyph glyph-name="six" d="M719 344q0 155 -58 238q-53 78 -145 78q-119 0 -158 -103q-18 -48 -18 -133q0 -220 83 -311q47 -52 118 -52q178 0 178 283zM960 454q0 -288 -204 -431q-96 -67 -240 -67q-204 0 -319 148q-118 150 -118 423q0 264 95 438q101 184 264 292q168 111 375 111l79 -65 l-31 -34q-36 6 -68 6q-154 0 -270 -113q-52 -51 -91 -129q-64 -130 -86 -357q134 125 161 136q64 27 149 27q129 0 213 -96q91 -104 91 -289z" unicode="6"/>
<glyph glyph-name="seven" d="M1007 1265q-232 -423 -378 -752q-132 -298 -207 -507l-16 -11q-45 5 -99 5q-53 0 -116 -5l-10 22l431 743q53 90 82 147l95 185l-7 18h-253l-179 -3q-87 -1 -110 -9q-17 -6 -27.5 -30t-30.5 -189l-11 -11l-62 2l-11 11q6 111 6 213q0 118 -6 257l13 11q239 -11 467 -11 q297 0 418 5l11 -9v-82z" unicode="7"/>
<glyph glyph-name="eight" d="M731 309q0 144 -129 217q-84 48 -180 87l-27 11q-142 -109 -142 -273q0 -95 35 -154q78 -132 220 -132q99 0 161 68.5t62 175.5zM724 1042q0 98 -58.5 157.5t-158.5 59.5q-90 0 -143 -56q-49 -52 -49 -129q0 -76 64 -138q34 -33 100 -65q23 -12 70 -34l54 -23 q121 78 121 228zM954 424q0 -117 -42 -207q-80 -171 -260 -234q-74 -26 -180 -26q-226 0 -347 170q-54 76 -54 200q0 151 97 246q32 31 141 90q-201 113 -201 319q0 233 212 341q92 47 209 47q172 0 271 -86q94 -82 94 -214q0 -179 -191 -292q140 -59 198 -146 q53 -79 53 -208z" unicode="8"/>
<glyph glyph-name="nine" d="M684 900q0 185 -54 274t-147 89q-115 0 -156 -125q-22 -67 -22 -158q0 -155 57 -238q54 -78 146 -78q118 0 158 105q18 48 18 131zM945 797q0 -265 -95 -439q-100 -183 -265 -291q-170 -111 -373 -111l-79 65l24 39q30 -11 74 -11q156 0 273 116q47 46 87 124 q64 123 88 359q-149 -137 -166 -139q-66 -24 -142 -24q-133 0 -217 98q-90 105 -90 287q0 292 205 432q97 66 239 66q268 0 381 -249q56 -123 56 -322z" unicode="9"/>
<glyph glyph-name="colon" horiz-adv-x="512" unicode=":" d="M256 286q64 0 110 -45.5t46 -113.5q0 -66 -46 -112t-110 -46t-110.5 46.5t-46.5 111.5q0 66 46 112.5t111 46.5zM256 933q65 0 110.5 -47t45.5 -111q0 -65 -45.5 -112t-110.5 -47t-111 46.5t-46 112.5t46 112t111 46z"/>
<glyph glyph-name="semicolon" horiz-adv-x="512" unicode=";" d="M-53 -328q136 260 168 539l109 22q81 16 161 50l36 -34q-39 -93 -132.5 -264t-168.5 -275l-143 -63zM266 933q64 0 110 -45.5t46 -112.5q0 -66 -46 -112.5t-110 -46.5q-65 0 -111 46t-46 113q0 65 45.5 111.5t111.5 46.5z"/>
<glyph glyph-name="less" d="M993 15l-961 435v154l961 437v-176l-728 -337l728 -337v-176z" unicode="&lt;"/>
<glyph glyph-name="equal" d="M993 352h-961v172h961v-172zM993 715h-961v172h961v-172z" unicode="="/>
<glyph glyph-name="greater" d="M993 450l-961 -435v176l728 337l-728 337v176l961 -437v-154z" unicode="&gt;"/>
<glyph glyph-name="question" horiz-adv-x="909" unicode="?" d="M400 285q65 0 110.5 -46.5t45.5 -111.5t-45.5 -111.5t-110.5 -46.5q-64 0 -109.5 46t-45.5 112t46 112t109 46zM358 396q-17 20 -32 59.5t-15 79.5q0 56 24 108t77 115l55 65q32 38 66.5 99.5t34.5 124.5q0 74 -52.5 123.5t-147.5 49.5q-46 0 -79 -9.5t-48.5 -23 t-37.5 -61t-37 -91.5l-15 -8l-52 9l-8 15l41 146q19 65 24 124q56 49 139 74t171 25q111 0 196 -38.5t132.5 -115t47.5 -163.5q0 -91 -43 -168t-141 -154l-68 -53q-180 -141 -180 -225q0 -33 19 -78l-6 -14l-49 -21z"/>
<glyph glyph-name="at" horiz-adv-x="1428" unicode="@" d="M866 825q0 116 -90 116q-110 0 -195 -221q-40 -104 -40 -194q0 -108 28 -143t66 -35q50 0 103 61q66 76 108 264q20 91 20 152zM1409 751q0 -262 -204 -420q-109 -84 -216 -84q-68 0 -117 35q-51 37 -51 125v10q-111 -159 -233 -159q-120 0 -183 72q-59 68 -59 190 q0 193 111 332q120 150 307 150q103 0 153 -64l8 41l144 26l24 -22q-53 -198 -86 -365.5t-33 -228.5q0 -75 53 -75q63 0 123 68q46 53 75 123q43 106 43 248q0 257 -199 371q-108 62 -267 62t-304 -80t-227 -236q-78 -147 -78 -319q0 -220 125 -365q138 -160 377 -160 q269 0 472 178l17 -16q-7 -24 -18 -59q-214 -171 -497 -171q-397 0 -569 271q-87 137 -87 314q0 191 101 351q97 153 269 250q183 104 423 104q253 0 426 -134q177 -137 177 -363z"/>
<glyph glyph-name="A" horiz-adv-x="1593" unicode="A" d="M910 542l-214 524l-205 -524q82 -3 213 -3q127 0 206 3zM1544 4l-9 -10q-222 6 -268 6q-184 0 -342 -6l-9 10v63l10 11l87 5q55 3 55 39q0 21 -28 94l-81 211q-138 2 -282 2q-78 0 -232 -2l-44 -122q-50 -139 -50 -174q0 -38 47 -45q26 -4 102 -8l10 -10v-64l-10 -10 q-185 6 -238 6q-41 0 -203 -6l-10 9v65l11 10q103 6 126.5 41t176.5 417l261 653q29 76 88 229h142l530 -1247q31 -71 56 -80q33 -12 95 -12l9 -11v-64z"/>
<glyph glyph-name="B" horiz-adv-x="1353" unicode="B" d="M931 420q0 300 -315 300q-40 0 -91 -3v-463q0 -75 4 -147q41 -7 115 -7q140 0 216 88q71 84 71 232zM888 1084q0 221 -230 221q-76 0 -129 -8q-4 -105 -4 -194v-276q23 -2 92 -2q181 0 238 116q33 67 33 143zM1237 451q0 -251 -243 -389q-120 -68 -309 -68q-60 0 -99 1 l-239 5q-128 0 -198 -6l-10 10v28l5 12q74 47 80 59q9 18 11 133l3 224v507q0 238 -13 310q-5 29 -34 37q-15 4 -117 10l-10 10v68l10 9q89 -6 306 -6q138 0 249 5q88 4 149 4q279 0 366 -127q46 -67 46 -154q0 -142 -111 -237q-53 -45 -110 -67q-66 -25 -144 -43 q412 -18 412 -335z"/>
<glyph glyph-name="C" horiz-adv-x="1479" unicode="C" d="M1415 175l-46 -102q-211 -116 -472 -116q-522 0 -714 376q-89 174 -89 377q0 328 218 523q223 201 609 201q245 0 479 -89l13 -15q-34 -138 -42 -323l-9 -10h-59l-10 11q-3 121 -11 168q-125 141 -361 141q-243 0 -381 -154t-138 -418q0 -357 246 -548q131 -102 351 -102 q200 0 391 103z"/>
<glyph glyph-name="D" horiz-adv-x="1702" unicode="D" d="M1301 738q0 277 -134 426q-70 78 -175 110q-100 30 -279 30q-93 0 -178 -13q-10 -112 -10 -542l2 -437q1 -146 8 -194q88 -14 180 -14q199 0 314 58q124 63 197 214q75 156 75 362zM1608 786q0 -339 -221 -562q-108 -109 -262 -169q-155 -61 -360 -61h-25l-353 6h-56 q-107 0 -182 -6l-10 10v28l5 12q74 47 80 59q9 18 11 133l3 224v507q0 238 -13 310q-5 29 -34 37q-15 4 -117 10l-10 10v68l10 9q106 -6 202 -6q233 0 420 6q93 3 187 3q260 0 399 -59q152 -65 238 -204q88 -143 88 -365z"/>
<glyph glyph-name="E" horiz-adv-x="1241" unicode="E" d="M1165 334q-22 -146 -22 -330l-10 -10l-727 6q-182 0 -257 -6l-10 10v28l5 12q74 47 80 59q9 19 11 133l3 224v507q0 238 -13 310q-5 29 -34 37q-15 4 -117 10l-10 10v68l10 9q101 -6 312 -6q188 0 715 6l11 -8l-13 -111q-6 -53 -9 -90l-7 -93l-10 -11h-58l-10 10 q-1 136 -16 155q-11 14 -107.5 22t-169.5 8q-87 0 -176 -7q-11 -105 -11 -291v-207q79 -5 128 -5l131 1q92 1 104 15q16 18 21 135l10 10h62l10 -10q-4 -112 -4 -205q0 -101 4 -221l-10 -9h-67l-10 10q0 115 -16 136.5t-97 28.5q-61 5 -130 5q-73 0 -136 -5v-305 q0 -131 5 -254h136q292 0 358 23q11 4 16 11q10 14 19 60l24 124l10 11h61z"/>
<glyph glyph-name="F" horiz-adv-x="1142" unicode="F" d="M1066 1403l-13 -114q-4 -38 -9 -100l-6 -80l-10 -11h-58l-10 10q-2 135 -16 154q-23 31 -279 31q-41 0 -129 -6q-11 -102 -11 -366v-135l113 -3h19q55 0 170 4q27 1 36 15q15 24 18 132l10 10h62l10 -10q-4 -112 -4 -205q0 -101 4 -221l-10 -9h-67l-10 10q0 105 -9 123 q-17 35 -103 42q-59 5 -116 5q-69 0 -123 -3v-238q0 -237 13 -310q5 -29 34 -37q7 -2 143 -10l10 -10v-67l-11 -10l-402 6h-23q-82 0 -215 -6l-10 9v68l10 10q102 6 117 10q29 8 34 37q13 73 13 310v529q0 237 -13 310q-5 29 -34 37q-15 4 -117 10l-10 10v68l10 9 q96 -6 308 -6q137 0 674 6z"/>
<glyph glyph-name="G" horiz-adv-x="1706" unicode="G" d="M1608 505l-10 -11q-62 -15 -72 -41.5t-10 -202.5q0 -85 8 -168q-334 -126 -606 -126q-358 0 -579.5 200.5t-221.5 546.5q0 451 391 643q179 88 455 88q160 0 324 -35q135 -29 213 -66l9 -18q-26 -88 -43 -306l-11 -10h-60l-10 10q0 19 -4 78.5t-10 83.5q-44 60 -150 102 q-114 44 -246 44q-354 0 -489 -286q-62 -132 -62 -306q0 -278 148 -461q154 -190 401 -190q131 0 253 56q7 70 7 192q0 99 -7 120q-6 16 -38 23q-27 6 -169 15l-11 10v63l11 10q116 -3 241 -3h63q92 1 275 3l10 -10v-48z"/>
<glyph glyph-name="H" horiz-adv-x="1706" unicode="H" d="M1642 4l-10 -10q-99 6 -308 6q-214 0 -308 -6l-10 9v68l11 10q102 6 117 10q29 8 34 37q13 72 13 310v241q-51 5 -324 5q-252 0 -332 -5v-241q0 -238 13 -310q5 -29 34 -37q15 -4 117 -10l10 -10v-67l-9 -10q-100 6 -308 6q-215 0 -308 -6l-10 9v68l10 10q102 6 117 10 q29 8 34 37q13 72 13 310v529q0 238 -13 310q-5 29 -34 37q-15 4 -117 10l-10 10v68l10 9q96 -6 308 -6q217 0 308 6l9 -9v-69l-10 -9q-102 -6 -117 -10q-29 -8 -34 -37q-13 -72 -13 -310v-165q106 -5 292 -5q292 0 364 5v165q0 238 -13 310q-5 29 -34 37q-15 4 -117 10 l-11 10v68l10 9q97 -6 308 -6q218 0 308 6l10 -9v-69l-9 -9q-104 -6 -118 -10q-29 -8 -34 -37q-13 -72 -13 -310v-529q0 -238 13 -310q5 -29 34 -37q15 -4 117 -10l10 -10v-67z"/>
<glyph glyph-name="I" horiz-adv-x="797" unicode="I" d="M716 4l-9 -10q-100 6 -309 6q-208 0 -308 -6l-9 10v67l10 10q102 6 117 10q29 8 34 37q13 72 13 310v529q0 238 -13 310q-5 29 -34 37q-15 4 -117 10l-10 10v68l10 9q96 -6 308 -6q211 0 307 6l10 -9v-68l-10 -10q-102 -6 -117 -10q-29 -8 -34 -37q-13 -72 -13 -310v-529 q0 -238 13 -310q5 -29 34 -37q15 -4 117 -10l10 -10v-67z"/>
<glyph glyph-name="J" horiz-adv-x="797" unicode="J" d="M741 1333l-10 -9q-102 -6 -117 -10q-29 -8 -34 -37q-13 -73 -13 -310v-744q0 -201 -43 -313q-49 -128 -176 -239q-139 -122 -266 -122q-42 0 -82 15q5 75 5 185l23 14q81 -73 143 -73q86 0 96 91q13 118 13 354v832q0 237 -13 310q-5 29 -34 37q-7 2 -140 10l-10 10v68 l10 9q138 -6 330 -6q218 0 308 6l10 -9v-69z"/>
<glyph glyph-name="K" horiz-adv-x="1576" unicode="K" d="M1548 4l-10 -10q-164 6 -227 6q-56 0 -177 -6q-23 50 -103 141l-297 339q-97 110 -209 202v-238q0 -238 13 -310q5 -29 34 -37q15 -4 117 -10l10 -10v-67l-9 -10q-100 6 -308 6q-215 0 -308 -6l-10 9v68l10 10q102 6 117 10q29 8 34 37q13 72 13 310v529q0 238 -13 310 q-5 29 -34 37q-15 4 -117 10l-10 10v68l10 9q96 -6 308 -6q217 0 308 6l9 -9v-69l-10 -9q-102 -6 -117 -10q-29 -8 -34 -37q-13 -72 -13 -310v-248q187 174 268 258l142 147q73 76 187 208v69l11 10q77 -6 151 -6q87 0 204 6l10 -10v-62l-10 -10q-116 0 -172 -37 q-81 -54 -307 -268l-202 -192q43 -58 140 -171l224 -260q249 -289 288 -307q24 -11 79 -12l10 -11v-67z"/>
<glyph glyph-name="L" horiz-adv-x="1241" unicode="L" d="M1165 334q-22 -146 -22 -330l-10 -10l-727 6q-182 0 -257 -6l-10 10v28l5 12q74 47 80 59q9 18 11 133l3 224v507q0 238 -13 310q-5 29 -34 37q-15 4 -117 10l-10 10v68l10 9q103 -6 302 -6q206 0 313 6l10 -9v-69l-10 -9q-102 -6 -117 -10q-29 -8 -34 -37 q-13 -72 -13 -310v-598q0 -131 5 -254h136q292 0 358 23q11 4 16 11q10 14 19 60l24 124l10 11h61z"/>
<glyph glyph-name="M" horiz-adv-x="2048" unicode="M" d="M1976 4l-10 -10q-99 6 -308 6q-214 0 -308 -6l-9 9v68l10 10q102 6 117 10q29 8 34 37q13 72 13 310v676l-223 -457q-19 -38 -130 -280l-183 -400h-67q-52 124 -141 313l-140 297l-262 545v-694q0 -238 13 -310q5 -29 34 -37q15 -4 117 -10l10 -10v-68l-10 -9 q-115 6 -214 6q-115 0 -231 -6l-10 9v68l10 10q102 6 117 10q29 8 34 37q13 72 13 310v529q0 238 -13 310q-5 29 -34 37q-15 4 -117 10l-10 10v68l10 9q104 -6 263 -6q122 0 213 6q33 -76 94 -214l64 -138l318 -665l153 310l239 511q42 91 82 196q113 -6 152 -6q196 0 300 6 l10 -9v-69l-10 -9q-102 -6 -117 -10q-29 -8 -34 -37q-13 -72 -13 -310v-529q0 -238 13 -310q5 -29 34 -37q15 -4 117 -10l10 -10v-67z"/>
<glyph glyph-name="N" horiz-adv-x="1706" unicode="N" d="M1640 1334l-11 -10q-102 -6 -117 -10q-29 -8 -34 -37q-13 -72 -13 -310v-406q0 -449 13 -585l-13 -9q-113 19 -171 27q-268 301 -915 1098v-654q0 -238 13 -310q5 -29 34 -37q15 -4 117 -10l10 -10v-68l-10 -9q-115 6 -214 6q-115 0 -231 -6l-10 9v68l10 10q102 6 117 10 q29 8 34 37q13 72 13 310v529q0 238 -13 310q-5 29 -34 37q-15 4 -117 10l-10 10v68l10 9q95 -6 181 -6q135 0 224 6q360 -480 846 -1029v585q0 238 -13 310q-5 29 -34 37q-15 4 -117 10l-10 10v68l10 9q112 -6 213 -6q129 0 232 6l10 -9v-68z"/>
<glyph glyph-name="O" horiz-adv-x="1706" unicode="O" d="M1304 687q0 290 -116.5 460.5t-341.5 170.5q-297 0 -394 -267q-50 -137 -50 -307q0 -309 114 -488q118 -185 353 -185q285 0 383 281q52 149 52 335zM1612 739q0 -369 -215 -579q-209 -204 -571 -204q-342 0 -537 192.5t-195 535.5q0 481 367 666q167 84 411 84 q349 0 543 -183q197 -186 197 -512z"/>
<glyph glyph-name="P" horiz-adv-x="1250" unicode="P" d="M1198 1098q0 -206 -140.5 -321.5t-317.5 -115.5q-60 0 -121 14q-9 27 -35 72l21 22q42 -14 77 -14q101 0 162 71.5t61 200.5q0 279 -251 279q-30 0 -120 -12q-9 -24 -9 -327v-529q0 -238 13 -310q5 -29 34 -37q9 -2 137 -10l11 -11v-66l-10 -10q-137 6 -328 6 q-215 0 -308 -6l-10 9v67l11 11q101 6 116 10q29 8 34 37q13 72 13 310v529q0 238 -13 310q-5 29 -34 37q-15 4 -117 10l-10 11v66l11 10q98 -6 301 -6q84 0 242 3t182 3q274 0 356 -139q42 -72 42 -174z"/>
<glyph glyph-name="Q" horiz-adv-x="1706" unicode="Q" d="M1304 687q0 290 -116.5 460.5t-341.5 170.5q-297 0 -394 -267q-50 -137 -50 -307q0 -309 114 -488q118 -185 353 -185q285 0 383 281q52 149 52 335zM1612 739q0 -233 -91 -410q-94 -182 -271 -277.5t-423 -95.5q-31 0 -63 2q88 -15 308 -93l156 -55q125 -44 200 -44 q51 0 156 46l10 -9v-54l-8 -14q-183 -110 -204 -131q-95 0 -381 87q-289 88 -372 88q-48 0 -188 -87l-15 5l-16 46l4 15q20 19 96 71q137 94 221 132q-289 20 -459 206q-178 194 -178 517q0 349 205 549.5t573 200.5q450 0 642 -304q98 -155 98 -391z"/>
<glyph glyph-name="R" horiz-adv-x="1462" unicode="R" d="M1433 4l-10 -10q-7 0 -38 1q-137 5 -171 5q-51 0 -162 -6q-4 24 -38 80l-248 414l-111 169q-21 31 -59 61l11 34q23 -1 34 -1q98 0 154 31q51 28 94 98t43 167q0 169 -126 228q-60 28 -175 28q-50 0 -96 -8q-10 -98 -10 -334v-523q0 -238 13 -310q5 -29 34 -37 q15 -4 117 -10l10 -10v-67l-9 -10q-100 6 -308 6q-215 0 -308 -6l-10 9v68l10 10q102 6 117 10q29 8 34 37q13 72 13 310v529q0 238 -13 310q-5 29 -34 37q-15 4 -117 10l-10 10v68l10 9q98 -6 308 -6q122 0 198 3q151 6 226 6q173 0 254 -31q109 -42 146 -142 q18 -49 18 -116q0 -272 -306 -386q50 -84 106 -170l154 -237q136 -210 181 -239q23 -15 64 -15l10 -10v-64z"/>
<glyph glyph-name="S" horiz-adv-x="1251" unicode="S" d="M1144 462q0 -165 -94 -291q-82 -111 -215 -165q-122 -50 -291 -50q-210 0 -412 96l-12 22q28 115 28 327l10 10h64l9 -10v-23q0 -56 12 -148q36 -64 129 -110q97 -48 202 -48q198 0 274 138q39 71 39 147q0 128 -107 183q-53 27 -171 45q-267 41 -351 103 q-127 94 -127 291q0 205 138 327q146 128 406 128q234 0 378 -75l7 -24q-24 -119 -29 -286l-11 -10h-63l-10 10q-3 120 -10 156q-31 47 -108 80q-82 34 -171 34q-134 0 -212 -71q-73 -67 -73 -173q0 -115 83 -169q54 -35 255 -67q21 -3 117 -20q59 -10 109 -29 q101 -38 152 -116q55 -85 55 -212z"/>
<glyph glyph-name="T" horiz-adv-x="1366" unicode="T" d="M1325 1405q-12 -74 -13 -153l-2 -167l-10 -10h-63l-11 9q-5 128 -11 150q-12 40 -64 47q-20 3 -188 3h-134q-2 -35 -2 -278v-568q0 -238 13 -310q5 -29 34 -37q15 -4 117 -10l10 -10v-67l-10 -10q-99 6 -308 6q-214 0 -308 -6l-9 9v68l10 10q102 6 117 10q29 8 34 37 q13 72 13 310v568q0 247 -3 278h-143q-179 0 -209 -11q-16 -6 -22 -15q-9 -16 -15 -64q-7 -53 -9 -109l-10 -10h-63l-11 10l-2 171q-1 72 -12 149l9 10q59 -10 430 -10h405q342 0 430 10z"/>
<glyph glyph-name="U" horiz-adv-x="1593" unicode="U" d="M1540 1334l-10 -10q-118 0 -133 -63q-8 -35 -12 -152q-3 -87 -3 -251v-308q0 -297 -117 -424q-155 -168 -442 -168q-262 0 -409 87q-124 74 -162 210q-24 87 -24 454v258q0 238 -13 310q-5 29 -34 37q-15 4 -117 10l-10 10v67l10 10q96 -6 308 -6q216 0 307 6l10 -10v-67 l-10 -10q-102 -6 -117 -10q-29 -8 -34 -37q-13 -72 -13 -310v-206q0 -378 34 -463q68 -168 335 -168q175 0 273 86q46 41 64 83t28 130q9 82 9 166v208q0 262 -2 358q-2 90 -12 117q-8 20 -35 31q-23 9 -123 15l-10 10v67l10 10q87 -6 179 -6q69 0 265 6l10 -10v-67z"/>
<glyph glyph-name="V" horiz-adv-x="1593" unicode="V" d="M1560 1333l-10 -10q-70 -7 -89.5 -16.5t-41.5 -45.5q-24 -39 -86 -188l-71 -169l-134 -326q-173 -420 -233 -591h-152l-459 1113q-73 174 -102 200q-22 21 -122 23l-10 11v66l11 11q105 -6 265 -6q200 0 364 6l10 -11v-67l-9 -10q-101 -1 -133 -18q-17 -10 -17 -34 q0 -26 65 -190l47 -119l253 -625l222 557q13 32 60 161q68 186 68 217q0 33 -22 40t-134 11l-10 10v68l11 10q113 -6 235 -6q87 0 213 6l11 -11v-67z"/>
<glyph glyph-name="W" horiz-adv-x="2048" unicode="W" d="M2036 1336l-10 -9q-47 -2 -54 -3q-33 -6 -49 -22.5t-28 -50.5q-24 -66 -89 -296q-33 -116 -93 -348l-90 -346q-56 -214 -63 -274h-153l-51 138q-127 342 -234 612l-57 143q-19 49 -39 104l-261 -619q-39 -92 -109 -268l-44 -110h-146l-247 1147q-19 88 -28 115 q-20 63 -57 71q-17 4 -78 8l-10 9v63l11 11q177 -6 268 -6q108 0 316 6l11 -10v-64l-10 -9q-68 -3 -77 -4q-38 -4 -50 -15.5t-12 -36.5q0 -23 19 -125l34 -183q15 -79 53 -255l59 -271l126 303q38 90 114 271l118 286q33 79 52 131h92q102 -288 380 -978l177 709 q20 85 20 106q0 45 -47 52q-17 3 -107 9l-10 10v63l11 11q150 -6 191 -6h9l232 6l10 -10v-65z"/>
<glyph glyph-name="X" horiz-adv-x="1366" unicode="X" d="M1329 7l-10 -10l-204 3h-23q-52 0 -152 -3q-30 37 -98 163l-208 385l-79 -113q-150 -215 -278 -435q-46 3 -92 3q-93 0 -136 -3l-10 10v64l10 11q82 6 99 17q30 19 136 163l131 177q8 10 160 216l-76 134l-122 211q-130 224 -198 265q-23 14 -48 14q-20 0 -62 -3l-13 10 l-8 53l9 15q141 29 363 80q63 -41 130 -148q32 -52 100 -178l113 -210l130 190q161 236 209 321q41 -4 81 -4q67 0 136 4l10 -10v-66l-10 -10q-69 -1 -91.5 -15t-87.5 -95t-171 -225q-59 -80 -144 -199q50 -92 143 -259l128 -220q106 -182 133.5 -205.5t89.5 -23.5l10 -10 v-64z"/>
<glyph glyph-name="Y" horiz-adv-x="1366" unicode="Y" d="M1349 1364q-158 -215 -346 -527q-106 -176 -117 -225q-6 -26 -6 -75v-99q0 -293 18 -326q8 -14 23 -18q25 -7 123 -13l10 -10v-67l-10 -10q-99 6 -308 6q-214 0 -308 -6l-9 9v68l10 10q98 6 123 13q15 4 23 18q18 33 18 326v118q0 38 -157 304q-160 271 -255 368 q-46 47 -62 53.5t-75 6.5l-11 11v56l10 11q244 48 313 68q52 -25 93 -65q85 -83 228 -370l131 -262q59 95 225 382l111 199q18 33 49 91h146l10 -10v-35z"/>
<glyph glyph-name="Z" horiz-adv-x="1366" unicode="Z" d="M1281 347q-21 -182 -32 -344l-10 -9q-411 8 -624 8q-156 0 -553 -8l-10 9v70q74 93 226 309l146 208l187 275q93 136 278 421l-251 -1q-291 -1 -335 -14q-26 -7 -36 -40q-4 -13 -17 -93l-8 -50l-11 -10h-61l-10 12q7 106 7 191q0 27 -2 120l10 10q136 -6 606 -6 q111 0 483 6l10 -10v-60l-82 -115q-129 -178 -222 -314l-296 -434q-50 -73 -233 -358q53 -2 161 -2q507 0 540 28q18 15 46 154q6 29 11 48l11 10h60z"/>
<glyph glyph-name="bracketleft" horiz-adv-x="682" unicode="[" d="M627 -215l-9 -10q-157 7 -216 7q-88 0 -246 -8l-15 18q10 112 15 275q1 77 4 210l4 207v289q0 86 -4 232l-6 219q-3 96 -13 245l11 13q142 -7 247 -7q61 0 219 6l9 -9v-60l-10 -11q-172 -7 -192.5 -26.5t-25.5 -153.5q-2 -62 -4 -226l-2 -185l2 -549q3 -291 10 -333 t33.5 -55t178.5 -18l10 -10v-60z"/>
<glyph glyph-name="backslash" horiz-adv-x="606" unicode="\" d="M623 -51l-7 -14h-134l-14 8l-486 1551l7 14h134l14 -9z"/>
<glyph glyph-name="bracketright" horiz-adv-x="682" unicode="]" d="M541 -208l-15 -18q-158 8 -246 8q-59 0 -216 -7l-9 10v60l10 10q152 5 178.5 18t33.5 55t10 333l2 186v363q0 57 -2 185q-3 309 -13 346q-11 41 -60 50q-28 5 -149 10l-10 11v60l9 9q158 -6 219 -6q105 0 247 7l11 -13q-10 -149 -13 -245l-6 -219q-4 -146 -4 -232v-289 l13 -568q2 -35 10 -124z"/>
<glyph glyph-name="asciicircum" d="M993 661h-199l-282 551l-282 -551h-199l387 758h188z" unicode="^"/>
<glyph glyph-name="underscore" d="M1024 -333h-1024v122h1024v-122z" unicode="_"/>
<glyph glyph-name="grave" horiz-adv-x="682" unicode="`" d="M533 1119l-56 -30l-328 385l25 28l219 -29l140 -341v-13z"/>
<glyph glyph-name="a" d="M610 239v246q-165 -36 -222.5 -77.5t-57.5 -126.5q0 -136 119 -136q101 0 161 94zM977 6l-11 -11q-84 5 -193 5q-85 0 -163 -5l-9 11l9 134l-194 -148q-23 -17 -66 -21q-17 -2 -40 -2q-111 0 -170.5 67t-59.5 185q0 156 99 221q107 71 431 128q0 159 -84 213 q-51 33 -122 33q-78 0 -123 -32l-38 -93l-13 -7l-51 12l-7 14l5 118q165 122 248 138q35 7 91 7q197 0 281 -103q61 -75 61 -230q0 -38 -3 -122q-5 -140 -5 -187q0 -151 5 -192.5t23.5 -52.5t88.5 -13l10 -11v-56z" unicode="a"/>
<glyph glyph-name="b" horiz-adv-x="1251" unicode="b" d="M888 463q0 147 -67.5 235t-181.5 88q-66 0 -127 -35q-51 -29 -74 -67v-472q75 -111 207 -111q118 0 182 102q61 97 61 260zM1145 575q0 -181 -86 -313q-37 -57 -67 -80t-127 -91q-21 -15 -113 -80q-48 -34 -109 -47q-38 -8 -85 -8q-118 0 -251 83l-93 -75l-45 16 q19 318 19 554v393q0 52 -5 242q-1 53 -5 95q-5 52 -53 61q-11 2 -83 5l-10 11v55l10 11q191 20 387 83l22 -12q-13 -374 -13 -579v-106l121 101q90 75 207 75q242 0 335 -192q44 -91 44 -202z"/>
<glyph glyph-name="c" horiz-adv-x="909" unicode="c" d="M861 126l-44 -99q-136 -71 -268 -71q-223 0 -341 128t-118 351q0 206 91 313q25 30 95 79q144 102 192.5 122t148.5 20q136 0 225 -41l10 -18q-1 -13 -14 -93l-11 -68q-3 -17 -9 -134l-10 -10h-60l-10 10q-6 89 -14 124q-44 78 -169 78q-212 0 -212 -275q0 -200 85 -315 q87 -119 245 -119q96 0 169 41z"/>
<glyph glyph-name="d" horiz-adv-x="1251" unicode="d" d="M805 525v188q-72 86 -138 110q-45 16 -96 16q-138 0 -178 -142q-22 -79 -22 -176q0 -207 97 -307q51 -53 137 -53q71 0 132 45q55 40 65 86q3 14 3 233zM1200 3l-10 -10q-98 7 -177 7q-75 0 -203 -7l-9 7q4 49 4 164q-36 -30 -103 -92q-83 -77 -108 -92q-32 -15 -104 -15 q-171 0 -276 129t-105 334q0 199 81 310q21 29 124 103q120 86 175 109q48 20 122 20q104 0 194 -44v56q0 263 -13 310q-7 26 -41 32q-16 3 -92 6l-10 11v55l10 11q192 20 387 83l22 -12q0 -4 -4 -99q-9 -215 -9 -646v-323q0 -281 13 -309q8 -17 22 -21q22 -7 100 -13 l10 -10v-54z"/>
<glyph glyph-name="e" d="M691 587q0 270 -168 270q-177 0 -177 -268v-22q58 -9 206 -9q77 0 138 9q1 14 1 20zM952 561q0 -17 -1 -51l-11 -14q-132 -36 -350 -36q-39 0 -118 -1.5t-119 -1.5q6 -147 91 -243q89 -103 232 -103q96 0 228 66l24 -29l-44 -99q-146 -93 -317 -93q-225 0 -349.5 127 t-124.5 362q0 279 133 382q184 142 349 142q179 0 277 -103q100 -106 100 -305z" unicode="e"/>
<glyph glyph-name="f" horiz-adv-x="797" unicode="f" d="M780 1481l-4 -107l2 -100l-31 -18q-48 50 -122 50q-116 0 -130 -89q-7 -45 -7 -180v-140h91q68 0 176 8l14 -11l-23 -114l-10 -10l-143 1q-76 0 -105 -1v-178q0 -454 14 -485q8 -18 27 -23q30 -7 138 -10l10 -10v-61l-10 -10l-74 3q-106 4 -230 4q-179 0 -273 -7l-10 10 v61l10 10q96 3 119 15q20 9 22 48q7 130 7 455v178q-22 1 -27 1q-11 0 -58 -3q-23 -1 -63 -3l-10 10v31l9 14l89 46q26 12 55 29q5 6 5 18v15q0 154 20 210q11 30 42 68q9 11 130 126l62 59q27 27 69 64q55 40 134 40q42 0 85 -14z"/>
<glyph glyph-name="g" horiz-adv-x="1138" unicode="g" d="M888 -183q0 109 -76 137q-32 12 -128 13l-190 2q-32 0 -88 -2q-137 -85 -137 -195q0 -101 81 -158.5t217 -57.5q146 0 233.5 70.5t87.5 190.5zM706 630q0 252 -169 252q-166 0 -166 -218q0 -258 173 -258q162 0 162 224zM1117 -69q0 -219 -163.5 -349t-427.5 -130 q-207 0 -327.5 77.5t-120.5 208.5q0 88 39 133q4 5 106 66q49 29 72 41q-138 24 -138 133q0 58 40 118q3 4 54 40q24 17 85 61q-216 78 -216 289q0 163 122 262.5t325 99.5q196 0 307 -87q47 -2 69 -2h12q49 2 148 5l12 -11l-11 -103l-11 -10h-148q13 -48 13 -98 q0 -238 -231 -325q-104 -39 -205 -39q-34 0 -88 5q-63 -34 -63 -89q0 -51 73 -58q42 -4 140 -4q31 0 108 3t114 3q226 0 281 -100q30 -54 30 -140z"/>
<glyph glyph-name="h" horiz-adv-x="1251" unicode="h" d="M1208 4l-10 -11q-110 7 -186 7q-70 0 -204 -7l-10 10q18 223 18 344v196q0 244 -176 244q-94 0 -146 -65q-42 -52 -42 -134v-118q0 -203 7 -333q2 -39 22 -48q23 -12 119 -15l11 -10v-61l-10 -10q-95 7 -274 7t-273 -7l-10 10v61l10 10q96 3 119 15q20 9 22 48 q7 130 7 455v335q0 210 -7 340q-2 37 -22 48.5t-116 14.5l-10 11v55l10 11q193 21 387 83l21 -12q0 -27 -3 -99q-10 -239 -10 -529v-56l176 148q66 27 145 27q159 0 238 -96q64 -78 64 -229q0 -17 -4 -122t-4 -191q0 -151 5 -192.5t23 -52.5t104 -13l9 -10v-59z"/>
<glyph glyph-name="i" horiz-adv-x="682" unicode="i" d="M625 3l-10 -10q-95 7 -274 7t-273 -7l-10 10v61l10 10q96 3 119 15q20 9 22 48q7 130 7 279v143q0 194 -15 230q-8 20 -43 25q-12 2 -87 5l-10 10v56l10 11q192 17 387 83l21 -13q-13 -182 -13 -307v-319q0 -73 7 -203q2 -39 22 -48q23 -12 119 -15l11 -10v-61zM487 1308 q0 -64 -45 -109.5t-108 -45.5q-64 0 -109 45.5t-45 109.5q0 66 45.5 111t108.5 45q62 0 107.5 -45t45.5 -111z"/>
<glyph glyph-name="j" horiz-adv-x="682" unicode="j" d="M476 966q-13 -64 -13 -307v-170l2 -294v-22q0 -311 -56 -454q-78 -197 -225 -251q-60 -22 -119 -22q-17 0 -38 3l-22 72l10 14q18 -2 30 -2q105 0 138 106q30 98 30 510v410q0 179 -13 223q-7 25 -40 31q-15 3 -93 6l-10 10v56l10 11q191 17 387 83zM483 1308 q0 -64 -45 -109.5t-108 -45.5q-64 0 -109 45.5t-45 109.5t45.5 110t108.5 46q62 0 107.5 -45t45.5 -111z"/>
<glyph glyph-name="k" horiz-adv-x="1251" unicode="k" d="M1230 3l-10 -10q-67 4 -163 4q-89 0 -176 -4q-56 102 -271 339q-113 125 -144 147l7 -342q2 -39 22 -48q23 -12 119 -15l11 -10v-61l-10 -10q-95 7 -274 7t-273 -7l-10 10v61l10 10q96 3 119 15q20 9 22 48q7 130 7 455v335q0 210 -7 340q-2 37 -22 48.5t-116 14.5 l-10 11v55l10 11q193 21 387 83l21 -12q0 -27 -3 -99q-10 -239 -10 -529v-327l99 81q65 53 182 177l104 110q29 31 46 54q85 -3 138 -3q67 0 121 3l10 -10v-60l-10 -10l-73 -4q-44 -2 -91 -35q-18 -13 -76 -60l-84 -69l-30 -28l-85 -76l214 -250q204 -238 245 -258 q21 -10 44 -10l10 -11v-61z"/>
<glyph glyph-name="l" horiz-adv-x="682" unicode="l" d="M625 3l-10 -10q-95 7 -274 7t-273 -7l-10 10v61l10 10q96 3 119 15q20 9 22 48q7 130 7 455v335q0 210 -7 340q-2 37 -22 48.5t-116 14.5l-10 11v55l10 11q193 21 387 83l21 -12q0 -27 -3 -99q-10 -239 -10 -529v-258q0 -325 7 -455q2 -39 22 -48q23 -12 119 -15l11 -10 v-61z"/>
<glyph glyph-name="m" horiz-adv-x="1821" unicode="m" d="M1775 5l-10 -11q-58 6 -206 6q-123 0 -175 -6l-14 19q16 249 16 363v91q0 147 -9 197q-11 60 -50 96t-106 36q-75 0 -125 -42t-50 -107v-298l4 -158q2 -64 11 -84q6 -13 27 -19q18 -5 97 -13l11 -10v-60l-12 -11q-121 6 -245 6q-154 0 -264 -6l-11 11v59l10 12 q63 6 87 11q18 4 26 30q6 19 7 111l2 323q0 112 -17 160q-14 38 -53 63q-35 23 -92 23q-90 0 -143 -60q-25 -28 -29.5 -45t-4.5 -75v-217q0 -64 4 -166q4 -105 8 -122q6 -21 33.5 -28.5t83.5 -8.5l10 -10v-61l-10 -10q-85 6 -254 6q-179 0 -273 -7l-10 10v61l10 10 q96 3 119 15q20 9 22 48q7 130 7 279v143q0 200 -15 230q-10 20 -43 25q-12 2 -87 5l-10 10v56l10 11q180 17 379 83l22 -13l-2 -159l178 144q49 22 116 22q115 0 179 -37.5t103 -131.5l182 147q49 23 119 23q193 0 268 -140q33 -62 33 -190q0 -53 -1 -79l-1 -38 q-2 -48 -2 -64v-130q0 -151 5 -192.5t23 -52.5t102 -13l10 -11v-59z"/>
<glyph glyph-name="n" horiz-adv-x="1251" unicode="n" d="M1208 4l-10 -11q-110 7 -186 7q-70 0 -204 -7l-10 10q18 223 18 344v196q0 244 -176 244q-92 0 -144 -63q-44 -53 -44 -107v-187q0 -259 13 -318q8 -35 116 -37l10 -10v-61l-10 -10q-85 6 -254 6q-179 0 -273 -7l-10 10v61l10 10q96 3 119 15q20 9 22 48q7 130 7 279v143 q0 200 -15 230q-10 20 -43 25q-12 2 -87 5l-10 10v56l10 11q180 17 379 83l22 -13l-2 -168l172 144q66 27 145 27q159 0 238 -96q64 -78 64 -229q0 -17 -4 -139t-4 -174q0 -151 5 -192.5t23 -52.5t104 -13l9 -10v-59z"/>
<glyph glyph-name="o" horiz-adv-x="1139" unicode="o" d="M780 414q0 249 -54.5 356.5t-166.5 107.5q-199 0 -199 -359q0 -461 223 -461q139 0 177 153q20 80 20 203zM1057 496q0 -354 -238 -479q-116 -61 -265 -61q-230 0 -350.5 133t-120.5 381q0 343 234 457q115 56 267 56q319 0 423 -221q50 -106 50 -266z"/>
<glyph glyph-name="p" horiz-adv-x="1251" unicode="p" d="M899 457q0 218 -115 294q-61 40 -127 40q-123 0 -204 -101v-496q91 -96 200 -96q163 0 218 169q28 85 28 190zM1156 580q0 -123 -44 -235q-32 -82 -84 -139q-23 -25 -86 -72q-66 -53 -165 -128q-59 -39 -150 -39q-87 0 -174 32v-375q0 -46 11 -61q6 -8 27 -13 q16 -4 128 -12l11 -10v-62l-10 -10q-135 8 -307 8q-126 0 -252 -8l-10 10v60l10 11q101 3 116 16q10 9 12 19q4 19 8 98q3 60 4 153l2 155v581q0 10 -6 148q-3 65 -10.5 83.5t-41.5 23.5q-12 2 -88 5l-10 10v56l10 11q191 17 387 83l22 -13q0 -43 -9 -173q67 56 169 139 q49 37 151 37q248 0 338 -190q41 -87 41 -199z"/>
<glyph glyph-name="q" horiz-adv-x="1251" unicode="q" d="M801 266v460q-84 115 -221 115q-216 0 -216 -339q0 -153 56 -250q61 -105 179 -105q126 0 202 119zM1203 -534l-10 -10q-149 8 -252 8q-108 0 -307 -8l-10 10v62l11 10q136 10 155 25q11 9 11 61v522q-146 -115 -208 -170q-40 -20 -100 -20q-174 0 -276 117 q-109 123 -109 346q0 203 84 315q28 37 127 104q108 71 200 108q57 23 122 23q139 0 295 -87l104 86l45 -22l-16 -103q-8 -52 -13 -174q-5 -111 -5 -245v-446q0 -222 4 -308q5 -104 20 -117q9 -8 22 -11t96 -5l10 -11v-60z"/>
<glyph glyph-name="r" horiz-adv-x="797" unicode="r" d="M795 966l-7 -178q-1 -44 -4 -100l-42 -13q-47 68 -130 68q-75 0 -124 -60q-30 -37 -30 -109v-234q0 -73 7 -203q2 -37 21 -48t139 -15l10 -9v-61l-10 -10q-147 6 -292 6q-179 0 -273 -7l-10 10v61l10 10q96 3 119 15q20 9 22 48q7 130 7 279v143q0 200 -15 230 q-10 20 -43 25q-12 2 -87 5l-10 10v56l10 11q180 17 379 83l22 -13l-2 -196q62 72 150 168q41 40 112 40q42 0 71 -12z"/>
<glyph glyph-name="s" horiz-adv-x="909" unicode="s" d="M839 314q0 -161 -121.5 -259.5t-317.5 -98.5q-139 0 -298 60l-11 15q9 92 11 143l5 126l10 11h59l12 -11q4 -112 9 -132q85 -109 223 -109q88 0 141 43t53 115q0 91 -80 121q-34 13 -135 34q-165 35 -221 80q-85 68 -85 201q0 145 105 233q110 92 298 92q160 0 266 -54 l9 -16q-11 -45 -17 -231l-11 -10h-57l-11 10q-4 72 -14 117q-63 80 -183 80q-78 0 -128 -38t-50 -100q0 -83 85 -111q38 -12 148 -34q168 -33 222 -76q84 -67 84 -201z"/>
<glyph glyph-name="t" horiz-adv-x="682" unicode="t" d="M666 131q-7 -8 -43 -42q-59 -56 -101 -102q-49 -16 -99 -16q-139 0 -203 81q-27 35 -36 81q-9 50 -9 128v16l3 239v250h-27l-53 -2h-41l-11 9v26l8 15q18 12 56 36q45 28 68 47v136q0 85 -8 180q75 24 121.5 42.5t131.5 60.5l26 -20q-12 -124 -17 -222l-9 -173h33 q109 0 188 7l11 -11l-14 -117l-10 -10h-208v-339q0 -163 4 -192q5 -42 35.5 -68t82.5 -26q41 0 99 22z"/>
<glyph glyph-name="u" horiz-adv-x="1251" unicode="u" d="M1201 5l-10 -10q-150 5 -189 5q-33 0 -98 -2.5t-97 -2.5l-8 8q8 82 8 156q-52 -39 -182 -166q-65 -25 -139 -25q-135 0 -213 73.5t-78 211.5q0 17 2 72t2 106v128q0 198 -15 230q-10 20 -43 25q-12 2 -88 5l-10 10v56l10 11q191 17 387 83l22 -13q-13 -166 -13 -307v-195 q0 -137 9 -187q10 -60 47.5 -91t100.5 -31q78 0 137 50q56 50 59 114q2 49 2 61v179q0 196 -15 230q-9 20 -42 25q-12 2 -88 5l-11 10v56l11 11q190 17 387 83l21 -13q-13 -150 -13 -307v-314q0 -211 12 -239q6 -14 20 -18q24 -7 104 -12l11 -10v-61z"/>
<glyph glyph-name="v" horiz-adv-x="1138" unicode="v" d="M1118 873l-10 -11q-61 -4 -80 -15q-14 -8 -34 -44t-75 -162l-191 -443q-10 -24 -86 -215h-175q-56 158 -122 323q-105 263 -179 452q-33 84 -71 98q-22 8 -59 9l-11 11v58l11 10q92 -3 267 -3q154 0 241 3l11 -10v-59l-11 -11q-74 -2 -96 -9t-22 -27q0 -28 123 -352 q65 -173 85 -217q64 150 122 294q95 235 95 275q0 21 -20.5 27.5t-98.5 9.5l-11 10v59l11 10q77 -3 182 -3q113 0 194 3l10 -10v-61z"/>
<glyph glyph-name="w" horiz-adv-x="1706" unicode="w" d="M1679 874l-11 -10q-59 -2 -75 -8.5t-27.5 -23t-42.5 -100.5q-37 -100 -73 -208l-116 -348q-15 -44 -30 -98l-27 -95h-164l-109 268l-161 371q-138 -289 -246 -555l-34 -84h-162q-3 8 -18 76q-9 39 -25 97l-147 524q-33 116 -46 146q-10 20 -26 27.5t-97 10.5l-10 11v59 l11 10q78 -3 258 -3q184 0 274 3l11 -10v-60l-11 -9q-78 0 -104 -7t-26 -30q0 -21 10 -59l121 -461l240 534q25 60 54 127h102l283 -661l98 298q55 167 55 216q0 25 -17 31t-112 11l-11 10v59l12 11q75 -3 208 -3q98 0 180 3l11 -10v-60z"/>
<glyph glyph-name="x" d="M987 8l-10 -10q-51 2 -151 2q-130 0 -154 -2q-18 24 -62 97q-22 36 -65 109l-77 136q-127 -168 -236 -342q-33 2 -87 2q-67 0 -89 -2l-12 11v58l11 11q55 1 75 14t88 95q73 89 193 247l-131 219q-57 96 -79 127q-24 35 -43 46.5t-47 11.5q-9 0 -42 -4l-14 9l-11 54l9 14 q169 33 288 64q77 -57 233 -335q74 96 166 233l53 79q61 -3 103 -3q40 0 79 3l12 -12v-57l-10 -10q-53 -4 -71.5 -14t-68.5 -66q-32 -35 -119 -141l-86 -104l144 -255q102 -181 131 -199q13 -8 70 -16l10 -11v-59z" unicode="x"/>
<glyph glyph-name="y" horiz-adv-x="1139" unicode="y" d="M1117 873l-9 -9q-66 0 -90 -38q-13 -22 -71 -147q-131 -285 -217 -498l-161 -398q-75 -185 -161 -263q-81 -73 -198 -73q-74 0 -143 35q17 71 35 199l26 5q52 -74 141 -74q105 0 193 205l41 96l-324 842q-28 73 -51.5 90.5t-92.5 18.5l-10 10v60l11 10q64 -3 245 -3 q168 0 273 3l10 -10v-60l-10 -10q-114 0 -114 -41q0 -18 10 -44q16 -46 49 -137l146 -386l88 211q129 309 129 361q0 36 -116 36l-10 10v60l11 10q58 -3 196 -3q78 0 163 3l11 -10v-61z"/>
<glyph glyph-name="z" d="M948 308q-22 -205 -22 -308l-7 -7q-320 8 -477 8q-124 0 -396 -8l-11 10v57q103 114 557 771h-117q-228 0 -249 -18q-12 -11 -18 -51q-2 -16 -13 -80l-2 -14l-11 -10h-59l-11 10q8 178 8 208q0 31 -1 61l9 9q33 -2 100 -4q21 -1 245 -3l145 -1q66 0 299 7l10 -11v-61 l-181 -245q-66 -90 -157 -220l-133 -191q-52 -75 -74 -110l108 -2h18q60 0 177 5q122 5 135.5 17t45.5 181l11 10h60z" unicode="z"/>
<glyph glyph-name="braceleft" horiz-adv-x="635" unicode="{" d="M599 -247l-71 -1q-168 0 -244 54q-90 64 -90 224v371q0 101 -25 142q-13 21 -31 34q-29 21 -64 26l-74 10v40l74 10q35 5 64 26q38 28 50 87q6 30 6 89v371q0 160 90 224q76 54 244 54q17 0 71 -1v-40q-182 -19 -197 -147q-2 -17 -2 -80v-349q0 -130 -48.5 -185.5 t-157.5 -78.5q109 -23 156 -77q50 -57 50 -187v-349q0 -63 2 -80q15 -128 197 -147v-40z"/>
<glyph glyph-name="bar" d="M433 0v1497h157v-1497h-157z" unicode="|"/>
<glyph glyph-name="braceright" horiz-adv-x="635" unicode="}" d="M635 613l-74 -10q-35 -5 -64 -26q-38 -28 -50 -87q-6 -30 -6 -89v-371q0 -160 -90 -224q-76 -54 -244 -54q-17 0 -71 1v40q182 19 197 147q2 17 2 80v349q0 130 50 187q47 54 156 77q-109 23 -156 77q-50 57 -50 187v349q0 63 -2 80q-15 128 -197 147v40l71 1 q168 0 244 -54q90 -64 90 -224v-371q0 -101 25 -142q13 -21 31 -34q29 -21 64 -26l74 -10v-40z"/>
<glyph glyph-name="asciitilde" d="M989 601q-49 -107 -113 -163q-81 -72 -157 -72q-63 0 -159 43q-57 25 -149 71q-61 30 -95 30q-80 0 -181 -182l-101 112q117 253 279 253q63 0 159 -43q57 -25 149 -71q61 -30 95 -30q81 0 174 168z" unicode="~"/>
<glyph glyph-name="exclamdown" horiz-adv-x="569" unicode="¡" d="M334 524q7 -36 16 -125q17 -166 46 -354q45 -303 45 -396q0 -15 -2 -36q-25 -17 -204 -92l-103 1q-1 23 -1 41q0 72 21 228l47 338l50 360l76 42zM291 973q63 0 109 -45t46 -113q0 -65 -45.5 -111.5t-109.5 -46.5q-65 0 -111 46t-46 112q0 68 46.5 113t110.5 45z"/>
<glyph glyph-name="cent" d="M554 160v651q-149 -29 -149 -274q0 -122 38.5 -222.5t110.5 -154.5zM554 -41q-97 7 -175 43.5t-132.5 107.5t-74.5 146t-20 179q0 84 12 142t38 107.5t52 75.5t109 84.5t121.5 81t69.5 31.5v176l11 11h68l11 -10v-165h35q136 0 225 -41l10 -18q-1 -12 -14 -93l-11 -68 q-3 -22 -9 -134l-10 -10h-60l-10 10q-6 89 -14 124q-40 66 -142 76v-697q42 -10 91 -10q96 0 169 41l19 -23l-44 -99q-76 -39 -124 -52.5t-111 -17.5v-166l-10 -10h-69l-11 10v168z" unicode="¢"/>
<glyph glyph-name="sterling" d="M40 -31q-4 23 -4 58q0 53 7 105q48 41 125 79q34 124 40.5 209.5t6.5 192.5q0 12 -1 48l-49 2q-69 0 -119 -4l-10 10v91l11 10q42 -5 117 -5h50q0 149 9.5 222.5t47.5 129.5t156.5 139t200.5 118t179 35q39 0 72 -4.5t98 -33.5l6 -16q-1 -16 -12 -135l-10 -138l-11 -10 h-54l-11 10q0 71 -11 122q-21 38 -67 53.5t-88 15.5t-78.5 -14t-60.5 -37.5t-40.5 -61.5t-28 -103.5t-16.5 -140.5l-11 -151h95q106 0 237 5l11 -10q-1 -35 -1 -55q0 -18 1 -39l-11 -10q-168 5 -224 5h-119l-24 -106q-7 -30 -32.5 -97t-72 -137t-78.5 -110q160 4 188 4 q63 0 270 -16q72 -5 121 -5q20 0 29 9.5t17.5 66t9.5 86.5l10 10h60l11 -11q-10 -100 -11 -349l-86 -33q-28 -3 -44 -3q-91 0 -326 63q-196 53 -304 53q-9 0 -29 -1q-2 -2 -28 -37q-41 -57 -71 -79h-43z" unicode="£"/>
<glyph glyph-name="currency" d="M252 477q0 -107 76 -183.5t184 -76.5q106 0 182.5 76.5t76.5 183.5t-75.5 183.5t-183.5 76.5q-109 0 -184.5 -77t-75.5 -183zM30 858l76 77l182 -197q100 83 224 83q64 0 114.5 -19t109.5 -64l181 196l76 -76l-199 -184q62 -92 62 -197t-62 -197l199 -184l-76 -76 l-181 196q-100 -83 -224 -83q-52 0 -106 15.5t-118 67.5l-182 -196l-76 76l199 184q-61 90 -61 197q0 106 61 197z" unicode="¤"/>
<glyph glyph-name="yen" d="M1009 1364l-272 -575h227l10 -10v-63l-10 -10h-261q-23 -61 -34 -102v-98h295l10 -10v-63l-10 -10h-295v-153q0 -140 27 -165q19 -18 146 -22l10 -10v-69l-10 -10q-163 6 -301 6q-163 0 -293 -6l-10 10v69l10 10q80 2 90 2q57 7 72 42q12 29 12 143v153h-297l-10 10v63 l10 10h297v98q-10 22 -48 102h-249l-10 11v62l10 10h211l-129 289q-22 49 -62 116q-31 52 -62 73q-20 14 -59 17l-10 10v61l9 12l266 69q57 -73 99 -160q31 -64 53 -121l161 -420l293 669h114v-40z" unicode="¥"/>
<glyph glyph-name="brokenbar" d="M433 0v592h157v-592h-157zM433 906v592h157v-592h-157z" unicode="¦"/>
<glyph glyph-name="section" d="M754 273q58 65 58 142q0 41 -18 75t-58 65.5t-88 51.5t-135 48q-127 40 -178 60q-43 17 -50 19q-68 -76 -68 -145q0 -50 36 -94t113 -78t246 -93q125 -46 142 -51zM102 -352q16 91 21.5 185t5.5 117l10 11h60l11 -10q4 -116 15 -167q87 -112 271 -112q120 0 195.5 63 t75.5 157q0 54 -26.5 92t-75 65t-165.5 64q-184 59 -255.5 94t-110.5 75.5t-54.5 88.5t-15.5 102q0 61 18 110.5t42 80.5t96 102q-93 77 -93 208q0 83 36 163t97 149t152.5 108.5t191.5 39.5q124 0 257 -65l5 -14q-14 -67 -25 -202l-7 -82l-11 -10l-57 1l-11 10 q-3 102 -15 151q-20 25 -77.5 46.5t-128.5 21.5q-73 0 -135 -24t-96 -72t-34 -99q0 -38 19 -71t59.5 -61t93.5 -47.5t149 -46.5q87 -25 133 -40.5t98.5 -45.5t81 -63.5t45 -82t16.5 -105.5q0 -69 -26 -136.5t-119 -161.5q46 -37 64 -58t32.5 -64.5t14.5 -100.5 q0 -100 -42 -180t-112.5 -147.5t-156.5 -104t-197 -36.5q-79 0 -160.5 18.5t-153.5 69.5z" unicode="§"/>
<glyph glyph-name="dieresis" horiz-adv-x="682" unicode="¨" d="M266 1252q0 -54 -38 -92.5t-91 -38.5t-91 38.5t-38 92.5t38 92.5t91 38.5t91 -38t38 -93zM674 1252q0 -54 -38 -92.5t-91 -38.5t-91 38.5t-38 92.5t38 92.5t91 38.5t91 -37.5t38 -93.5z"/>
<glyph glyph-name="copyright" horiz-adv-x="1530" unicode="©" d="M1040 497l54 -23q-46 -97 -132.5 -145.5t-200.5 -48.5q-177 0 -280.5 119.5t-103.5 283.5q0 122 55.5 227t150.5 155t210 50q40 0 88.5 -6t101 -21t88.5 -33v-218h-68q-15 59 -25.5 86t-37 56t-62 44.5t-79.5 15.5q-115 0 -179 -93.5t-64 -226.5q0 -151 74 -254t195 -103 q50 0 87 14.5t64.5 40t63.5 80.5zM765 1310q-159 0 -303 -80t-228.5 -225t-84.5 -311q0 -165 82.5 -308t225.5 -225.5t308 -82.5q164 0 307.5 82.5t226 226.5t82.5 307q0 164 -85 311.5t-230.5 226t-300.5 78.5zM765 1423q183 0 356 -93t273 -267t100 -369t-97.5 -364 t-267 -267t-364.5 -98t-364.5 98t-267 267t-97.5 364q0 197 99.5 368.5t270.5 266t359 94.5z"/>
<glyph glyph-name="ordfeminine" horiz-adv-x="602" unicode="ª" d="M351 931v149q-87 -19 -118 -41t-31 -76q0 -80 62 -80q54 0 87 48zM577 637h-533v65h533v-65zM582 802l-11 -11q-52 3 -116 3q-52 0 -100 -3l-10 12l5 63l-101 -75q-13 -10 -35 -13q-7 -1 -32 -1q-143 0 -143 152q0 44 24 82q27 42 50 57q54 34 238 67q-1 84 -46 112 q-32 20 -67 20q-71 0 -92 -55q-1 -3 -7 -18l-13 -6l-33 8l3 84q102 73 152 83q21 4 55 4q120 0 172 -62q38 -45 38 -136q0 -29 -2.5 -88t-2.5 -89q0 -83 3 -107q5 -39 61 -43l10 -11v-29z"/>
<glyph glyph-name="guillemotleft" d="M515 470v51q81 68 193 180q141 143 194 189h15l39 -30v-14q-34 -50 -216 -348l216 -364l-2 -14l-39 -29h-16q-38 31 -188 189q-74 78 -196 190zM88 470v51q71 60 193 180q138 138 194 189h15l39 -30l1 -14q-8 -8 -217 -348l216 -364l-2 -14l-39 -29h-15q-39 32 -189 189 q-74 79 -196 190z" unicode="«"/>
<glyph glyph-name="logicalnot" d="M993 242h-177v407h-784v179h961v-586z" unicode="¬"/>
<glyph glyph-name="registered" horiz-adv-x="1530" unicode="®" d="M662 747q35 -3 53 -3q123 0 160 54.5t37 121.5q0 76 -43 119.5t-115 43.5q-18 0 -43.5 -2.5t-32 -6.5t-11.5 -15t-5 -25v-287zM428 332v41l14 -1q37 0 52 5.5t20 17.5t5 46v565q0 42 -5.5 56t-18 19t-47.5 5h-20v44h356q109 0 167 -26.5t82.5 -78t24.5 -97.5 q0 -41 -20 -83.5t-61 -73.5t-124 -50q35 -12 51 -23t38.5 -37.5t34 -46.5t38.5 -76q32 -69 54 -106.5t36.5 -48t42.5 -10.5v-41h-119q-54 0 -75 17.5t-87 166.5q-38 87 -56 119t-38.5 45t-62.5 13q-13 0 -48 -3v-239q0 -41 7 -55t19.5 -17.5t62.5 -5.5v-41h-323zM765 1310 q-159 0 -303 -80t-228.5 -225t-84.5 -311q0 -165 82.5 -308t225.5 -225.5t308 -82.5q164 0 307.5 82.5t226 226.5t82.5 307q0 164 -85 311.5t-230.5 226t-300.5 78.5zM765 1423q183 0 356 -93t273 -267t100 -369t-97.5 -364t-267 -267t-364.5 -98t-364.5 98t-267 267 t-97.5 364q0 197 99.5 368.5t270.5 266t359 94.5z"/>
<glyph glyph-name="degree" horiz-adv-x="819" unicode="°" d="M622 1102q0 88 -62.5 150.5t-150.5 62.5t-150 -62.5t-62 -150.5t62 -150.5t150 -62.5t150.5 62.5t62.5 150.5zM746 1102q0 -140 -98.5 -238.5t-237.5 -98.5q-140 0 -238.5 98.5t-98.5 238.5t98.5 238.5t238.5 98.5q139 0 237.5 -98.5t98.5 -238.5z"/>
<glyph glyph-name="plusminus" d="M993 0h-961v172h961v-172zM993 645h-392v-311h-177v311h-392v172h392v352h177v-352h392v-172z" unicode="±"/>
<glyph glyph-name="uni00B2" horiz-adv-x="658" unicode="²" d="M614 689q-6 -54 -6 -83q0 -23 4 -54l-12 -13q-219 6 -278 6q-117 0 -270 -6l-12 12v60l153 151q70 69 104 109q59 70 80 127q17 46 17 93q0 135 -133 135q-70 0 -116 -55q-5 -17 -23 -90l-11 -9h-31l-11 11l22 193q118 90 224 90q113 0 182 -53q77 -59 77 -168 q0 -118 -128 -240l-223 -212h108q163 0 269 9z"/>
<glyph glyph-name="uni00B3" horiz-adv-x="658" unicode="³" d="M596 826q0 -136 -121 -225q-110 -82 -250 -82q-79 0 -156 35q-11 85 -31 180l6 14l32 11l12 -5q61 -157 191 -157q67 0 107.5 46t40.5 114q0 148 -155 148q-33 0 -75 -12l-13 14l25 95q17 0 56 5q127 11 127 120q0 47 -36 77.5t-83 30.5q-43 0 -70 -11q-34 -14 -44 -27 t-26 -59q-3 -10 -8 -22l-12 -9l-27 3l-10 13l35 174q96 70 207 70q95 0 156 -40q70 -47 70 -137q0 -103 -121 -177q173 -29 173 -187z"/>
<glyph glyph-name="acute" horiz-adv-x="682" unicode="´" d="M533 1474l-328 -385l-56 30v13l140 341l219 29z"/>
<glyph glyph-name="uni00B5" horiz-adv-x="1383" unicode="µ" d="M1368 150l-9 -63q-37 -30 -123.5 -72.5t-155.5 -42.5q-55 0 -89 22.5t-45 56t-16 111.5q-109 -106 -203 -150.5t-192 -44.5q-159 0 -224 100q30 -373 97 -594l-14 -22q-169 -17 -222 -17l-19 14l18 464q8 222 8 559q0 245 -15 485q132 8 251 23l22 -13q-9 -133 -9 -374 q0 -170 23 -285.5t79.5 -165.5t124.5 -50q62 0 124 38.5t93.5 94.5t38.5 148.5t7 320.5q0 112 -11 249q28 2 120.5 15.5t125.5 21.5l23 -13q-9 -164 -9.5 -264.5t-0.5 -344.5q0 -139 20.5 -187.5t67.5 -48.5q35 0 109 35z"/>
<glyph glyph-name="uni00B5" horiz-adv-x="1383" unicode="μ" d="M1368 150l-9 -63q-37 -30 -123.5 -72.5t-155.5 -42.5q-55 0 -89 22.5t-45 56t-16 111.5q-109 -106 -203 -150.5t-192 -44.5q-159 0 -224 100q30 -373 97 -594l-14 -22q-169 -17 -222 -17l-19 14l18 464q8 222 8 559q0 245 -15 485q132 8 251 23l22 -13q-9 -133 -9 -374 q0 -170 23 -285.5t79.5 -165.5t124.5 -50q62 0 124 38.5t93.5 94.5t38.5 148.5t7 320.5q0 112 -11 249q28 2 120.5 15.5t125.5 21.5l23 -13q-9 -164 -9.5 -264.5t-0.5 -344.5q0 -139 20.5 -187.5t67.5 -48.5q35 0 109 35z"/>
<glyph glyph-name="paragraph" horiz-adv-x="1313" unicode="¶" d="M755 -231h123v1557h-123v-1557zM572 1326q-24 2 -35 2q-52 0 -115.5 -36t-91.5 -91.5t-28 -130.5q0 -101 67.5 -180.5t202.5 -110.5v547zM398 -337v88q104 4 122.5 7t27 11t11 21t8 102t5.5 216v571q-152 2 -294 77t-197.5 164.5t-55.5 183.5q0 145 123.5 235t295.5 90 q34 0 81 -1q211 -8 342 -8l374 7v-90q-105 -3 -128.5 -8.5t-34.5 -27.5t-12 -142q0 -33 -2.5 -110.5t-2.5 -183.5v-750l3 -203q2 -104 12 -124t31 -27.5t134 -9.5v-88l-422 4z"/>
<glyph glyph-name="cedilla" horiz-adv-x="682" unicode="¸" d="M569 -282q0 -75 -72 -130t-192 -55q-98 0 -187 33l-5 16l19 43l15 5q63 -22 105 -22q55 0 91 26q40 29 40 80q0 36 -26 58.5t-63 22.5q-26 0 -55 -5l-20 16l83 194h79l-61 -138q33 5 64 5q81 0 133 -41t52 -108z"/>
<glyph glyph-name="uni00B9" horiz-adv-x="658" unicode="¹" d="M593 551l-12 -11q-87 5 -212 5q-119 0 -256 -5l-11 11v32l10 10q80 8 126 16q20 3 23 25q5 38 5 257v122l-1 168q0 29 -1 42.5t-11 16.5t-29 -5q-51 -22 -143 -70l-15 7q-6 33 -16 72l3 12q172 47 383 127l20 -14q0 -6 -4 -56q-9 -112 -9 -332v-89q0 -211 6 -257 q3 -22 23 -25q39 -7 109 -16l12 -10v-33z"/>
<glyph glyph-name="ordmasculine" horiz-adv-x="669" unicode="º" d="M451 1032q0 65 -7 123q-13 105 -62 136q-21 13 -53 13q-54 0 -81.5 -42.5t-27.5 -169.5q0 -270 123 -270q75 0 96 82q12 46 12 128zM625 637h-579v65h579v-65zM630 1079q0 -99 -37 -172q-73 -145 -267 -145q-285 0 -285 302q0 202 142 269q70 33 160 33q193 0 256 -131 q31 -64 31 -156z"/>
<glyph glyph-name="guillemotright" d="M936 521v-51q-115 -105 -196 -190q-149 -157 -188 -189h-16l-39 29l-2 14l216 364l-216 348v14l39 30h15q49 -42 195 -189q113 -114 192 -180zM509 521l1 -51q-122 -111 -197 -190q-149 -157 -188 -189h-16l-39 29l-2 14q4 6 76 127l140 237l-216 348l1 14l38 30h15 q52 -45 195 -189q115 -116 192 -180z" unicode="»"/>
<glyph glyph-name="onequarter" horiz-adv-x="1659" unicode="¼" d="M593 551l-12 -11q-87 5 -212 5q-119 0 -256 -5l-11 11v32l10 10q80 8 126 16q20 3 23 25q5 38 5 257v122l-1 168q0 29 -1 42.5t-11 16.5t-29 -5q-51 -22 -143 -70l-15 7q-6 33 -16 72l3 12q172 47 383 127l20 -14q0 -6 -4 -56q-9 -112 -9 -332v-89q0 -211 6 -257 q3 -22 23 -25q39 -7 109 -16l12 -10v-33zM1317 1352l-914 -1396h-68l-6 15l913 1395h68zM1336 730q-111 -173 -213 -413h207l2 211q1 115 4 202zM1613 7l-12 -12q-132 5 -201 5q-78 0 -197 -5l-10 11v34l10 10q49 5 82 10t37 33.5t7 110.5h-72l-123 -1q-48 0 -104 -2l-10 10 v48q24 78 139 280q112 195 171 267l161 30l16 -15q-11 -98 -11 -376v-128q41 0 101 3l12 -10q-1 -24 -1 -47q0 -22 1 -47l-12 -12h-101q0 -90 5 -110q7 -28 49 -36l52 -10l11 -9v-32z"/>
<glyph glyph-name="onehalf" horiz-adv-x="1659" unicode="½" d="M593 551l-12 -11q-87 5 -212 5q-119 0 -256 -5l-11 11v32l10 10q80 8 126 16q20 3 23 25q5 38 5 257v122l-1 168q0 29 -1 42.5t-11 16.5t-29 -5q-51 -22 -143 -70l-15 7q-6 33 -16 72l3 12q172 47 383 127l20 -14q0 -6 -4 -56q-9 -112 -9 -332v-89q0 -211 6 -257 q3 -22 23 -25q39 -7 109 -16l12 -10v-33zM1317 1352l-914 -1396h-68l-6 15l913 1395h68zM1611 144q-6 -54 -6 -83q0 -23 4 -54l-12 -13q-219 6 -278 6q-117 0 -270 -6l-12 12v60l153 151q70 69 104 109q59 70 80 127q17 46 17 93q0 135 -133 135q-70 0 -116 -55 q-5 -17 -23 -90l-11 -9h-31l-11 11l22 193q118 90 224 90q113 0 182 -53q77 -59 77 -168q0 -118 -128 -240l-223 -212h108q163 0 269 9z"/>
<glyph glyph-name="threequarters" horiz-adv-x="1659" unicode="¾" d="M596 826q0 -136 -121 -225q-110 -82 -250 -82q-79 0 -156 35q-11 85 -31 180l6 14l32 11l12 -5q61 -157 191 -157q67 0 107.5 46t40.5 114q0 148 -155 148q-33 0 -75 -12l-13 14l25 95q17 0 56 5q127 11 127 120q0 47 -36 77.5t-83 30.5q-43 0 -70 -11q-34 -14 -44 -27 t-26 -59q-3 -10 -8 -22l-12 -9l-27 3l-10 13l35 174q96 70 207 70q95 0 156 -40q70 -47 70 -137q0 -103 -121 -177q173 -29 173 -187zM1317 1352l-914 -1396h-68l-6 15l913 1395h68zM1336 730q-111 -173 -213 -413h207l2 211q1 115 4 202zM1613 7l-12 -12q-132 5 -201 5 q-78 0 -197 -5l-10 11v34l10 10q49 5 82 10t37 33.5t7 110.5h-72l-123 -1q-48 0 -104 -2l-10 10v48q24 78 139 280q112 195 171 267l161 30l16 -15q-11 -98 -11 -376v-128q41 0 101 3l12 -10q-1 -24 -1 -47q0 -22 1 -47l-12 -12h-101q0 -90 5 -110q7 -28 49 -36l52 -10 l11 -9v-32z"/>
<glyph glyph-name="questiondown" horiz-adv-x="909" unicode="¿" d="M557 546q47 -62 47 -139q0 -54 -22.5 -105t-78.5 -118l-55 -65q-34 -41 -67.5 -101.5t-33.5 -124.5q0 -72 52 -121.5t148 -49.5q48 0 81 10t47 23t32.5 51t42.5 101l14 8l53 -10l7 -13l-40 -144q-19 -65 -25 -127q-54 -49 -138 -74t-173 -25q-177 0 -276 92t-99 224 q0 89 41.5 166t142.5 157l69 53q179 141 179 225q0 31 -19 77l7 15l49 21zM515 657q-63 0 -109.5 45t-46.5 113q0 66 45.5 111.5t110.5 45.5q64 0 109.5 -45.5t45.5 -111.5t-45.5 -112t-109.5 -46z"/>
<glyph glyph-name="Agrave" horiz-adv-x="1593" unicode="À" d="M910 542l-214 524l-205 -524q82 -3 213 -3q127 0 206 3zM1544 4l-9 -10q-222 6 -268 6q-184 0 -342 -6l-9 10v63l10 11l87 5q55 3 55 39q0 21 -28 94l-81 211q-138 2 -282 2q-78 0 -232 -2l-44 -122q-50 -139 -50 -174q0 -38 47 -45q26 -4 102 -8l10 -10v-64l-10 -10 q-185 6 -238 6q-41 0 -203 -6l-10 9v65l11 10q103 6 126.5 41t176.5 417l261 653q29 76 88 229h142l530 -1247q31 -71 56 -80q33 -12 95 -12l9 -11v-64zM948 1584l-46 -35l-451 326l22 30l256 -31l219 -276v-14z"/>
<glyph glyph-name="Aacute" horiz-adv-x="1593" unicode="Á" d="M910 542l-214 524l-205 -524q82 -3 213 -3q127 0 206 3zM1544 4l-9 -10q-222 6 -268 6q-184 0 -342 -6l-9 10v63l10 11l87 5q55 3 55 39q0 21 -28 94l-81 211q-138 2 -282 2q-78 0 -232 -2l-44 -122q-50 -139 -50 -174q0 -38 47 -45q26 -4 102 -8l10 -10v-64l-10 -10 q-185 6 -238 6q-41 0 -203 -6l-10 9v65l11 10q103 6 126.5 41t176.5 417l261 653q29 76 88 229h142l530 -1247q31 -71 56 -80q33 -12 95 -12l9 -11v-64zM1115 1875l-451 -326l-46 35v14l219 276l256 31z"/>
<glyph glyph-name="Acircumflex" horiz-adv-x="1593" unicode="Â" d="M910 542l-214 524l-205 -524q82 -3 213 -3q127 0 206 3zM1544 4l-9 -10q-222 6 -268 6q-184 0 -342 -6l-9 10v63l10 11l87 5q55 3 55 39q0 21 -28 94l-81 211q-138 2 -282 2q-78 0 -232 -2l-44 -122q-50 -139 -50 -174q0 -38 47 -45q26 -4 102 -8l10 -10v-64l-10 -10 q-185 6 -238 6q-41 0 -203 -6l-10 9v65l11 10q103 6 126.5 41t176.5 417l261 653q29 76 88 229h142l530 -1247q31 -71 56 -80q33 -12 95 -12l9 -11v-64zM1126 1549l-3 -10h-77l-263 215l-263 -215h-77l-3 10l245 356h196z"/>
<glyph glyph-name="Atilde" horiz-adv-x="1593" unicode="Ã" d="M910 542l-214 524l-205 -524q82 -3 213 -3q127 0 206 3zM1544 4l-9 -10q-222 6 -268 6q-184 0 -342 -6l-9 10v63l10 11l87 5q55 3 55 39q0 21 -28 94l-81 211q-138 2 -282 2q-78 0 -232 -2l-44 -122q-50 -139 -50 -174q0 -38 47 -45q26 -4 102 -8l10 -10v-64l-10 -10 q-185 6 -238 6q-41 0 -203 -6l-10 9v65l11 10q103 6 126.5 41t176.5 417l261 653q29 76 88 229h142l530 -1247q31 -71 56 -80q33 -12 95 -12l9 -11v-64zM1169 1860q-21 -113 -86 -188q-66 -78 -147 -78q-55 0 -131 35q-27 13 -79 36q-20 10 -68 32q-40 18 -77 18 q-80 0 -114 -114h-63l-7 10q21 113 86.5 189.5t146.5 76.5q55 0 131 -35q27 -13 79 -36q20 -10 68 -32q40 -18 77 -18q80 0 114 114h63z"/>
<glyph glyph-name="Adieresis" horiz-adv-x="1593" unicode="Ä" d="M910 542l-214 524l-205 -524q82 -3 213 -3q127 0 206 3zM1544 4l-9 -10q-222 6 -268 6q-184 0 -342 -6l-9 10v63l10 11l87 5q55 3 55 39q0 21 -28 94l-81 211q-138 2 -282 2q-78 0 -232 -2l-44 -122q-50 -139 -50 -174q0 -38 47 -45q26 -4 102 -8l10 -10v-64l-10 -10 q-185 6 -238 6q-41 0 -203 -6l-10 9v65l11 10q103 6 126.5 41t176.5 417l261 653q29 76 88 229h142l530 -1247q31 -71 56 -80q33 -12 95 -12l9 -11v-64zM709 1722q0 -60 -43 -103t-102 -43q-61 0 -103 42.5t-42 103.5q0 63 43 105.5t102 42.5t102 -43.5t43 -104.5z M1149 1722q0 -61 -42.5 -103.5t-103.5 -42.5q-60 0 -102.5 42.5t-42.5 103.5t43 104.5t102 43.5t102.5 -42.5t43.5 -105.5z"/>
<glyph glyph-name="Aring" horiz-adv-x="1593" unicode="Å" d="M910 542l-214 524l-205 -524q82 -3 213 -3q127 0 206 3zM1544 4l-9 -10q-222 6 -268 6q-184 0 -342 -6l-9 10v63l10 11l87 5q55 3 55 39q0 21 -28 94l-81 211q-138 2 -282 2q-78 0 -232 -2l-44 -122q-50 -139 -50 -174q0 -38 47 -45q26 -4 102 -8l10 -10v-64l-10 -10 q-185 6 -238 6q-41 0 -203 -6l-10 9v65l11 10q103 6 126.5 41t176.5 417l261 653q29 76 88 229h142l530 -1247q31 -71 56 -80q33 -12 95 -12l9 -11v-64zM896 1729q0 54 -26 92q-31 44 -87 44t-86 -44q-26 -38 -26 -92t26 -92q30 -45 86 -45t87 45q26 38 26 92zM1005 1729 q0 -89 -64 -146t-158 -57t-158 57t-64 146q0 88 64.5 144.5t157.5 56.5q94 0 158 -57t64 -144z"/>
<glyph glyph-name="AE" horiz-adv-x="2048" unicode="Æ" d="M1003 549v685q0 49 -18 49q-8 0 -23 -21q-8 -11 -79 -126q-129 -210 -185 -305t-161 -282h466zM1930 334q-22 -146 -22 -330l-10 -10l-720 6q-198 0 -265 -6l-10 10v28l6 12q34 18 67 36q18 16 22 82q2 30 4 276h-533l-31 -52q-94 -157 -119 -229q-10 -28 -10 -39 q0 -37 66 -40q31 -1 86 -5l11 -10v-58l-10 -10q-60 5 -306 5q-84 0 -138 -5l-10 10v58l11 11q88 9 112 36q21 25 85 131l407 681q198 331 198 365q0 22 -49 26l-139 11l-10 10v67l10 10l515 -6q191 0 718 6l10 -10l-12 -109q-3 -29 -9 -90l-7 -93l-10 -11h-58l-10 10 q-1 136 -16 155q-11 14 -107.5 22t-169.5 8q-87 0 -176 -7q-11 -105 -11 -291v-207q79 -5 128 -5l131 1q92 1 104 15q16 18 21 135l10 10h62l10 -10q-4 -112 -4 -205q0 -101 4 -221l-10 -9h-67l-10 10q0 115 -16 136.5t-97 28.5q-61 5 -130 5q-73 0 -136 -5v-305 q0 -131 5 -254h136q292 0 358 23q11 4 16 11q10 14 19 60l24 124l10 11h61z"/>
<glyph glyph-name="Ccedilla" horiz-adv-x="1479" unicode="Ç" d="M1415 175l-46 -102q-211 -116 -472 -116h-23l-46 -95q33 5 69 5q80 0 133 -34q62 -39 62 -115q0 -97 -99 -146q-78 -39 -185 -39q-98 0 -187 33l-5 16l22 51l15 5q67 -22 129 -22q40 0 69.5 24t29.5 64q0 36 -24.5 60t-63.5 24q-23 0 -55 -10l-24 18l74 165 q-433 36 -605 372q-89 174 -89 377q0 328 218 523q223 201 609 201q245 0 479 -89l13 -15q-34 -138 -42 -323l-9 -10h-59l-10 11q-3 121 -11 168q-125 141 -361 141q-243 0 -381 -154t-138 -418q0 -357 246 -548q131 -102 351 -102q200 0 391 103z"/>
<glyph glyph-name="Egrave" horiz-adv-x="1241" unicode="È" d="M1165 334q-22 -146 -22 -330l-10 -10l-727 6q-182 0 -257 -6l-10 10v28l5 12q74 47 80 59q9 19 11 133l3 224v507q0 238 -13 310q-5 29 -34 37q-15 4 -117 10l-10 10v68l10 9q101 -6 312 -6q188 0 715 6l11 -8l-13 -111q-6 -53 -9 -90l-7 -93l-10 -11h-58l-10 10 q-1 136 -16 155q-11 14 -107.5 22t-169.5 8q-87 0 -176 -7q-11 -105 -11 -291v-207q79 -5 128 -5l131 1q92 1 104 15q16 18 21 135l10 10h62l10 -10q-4 -112 -4 -205q0 -101 4 -221l-10 -9h-67l-10 10q0 115 -16 136.5t-97 28.5q-61 5 -130 5q-73 0 -136 -5v-305 q0 -131 5 -254h136q292 0 358 23q11 4 16 11q10 14 19 60l24 124l10 11h61zM823 1584l-46 -35l-451 326l22 30l256 -31l219 -276v-14z"/>
<glyph glyph-name="Eacute" horiz-adv-x="1241" unicode="É" d="M1165 334q-22 -146 -22 -330l-10 -10l-727 6q-182 0 -257 -6l-10 10v28l5 12q74 47 80 59q9 19 11 133l3 224v507q0 238 -13 310q-5 29 -34 37q-15 4 -117 10l-10 10v68l10 9q101 -6 312 -6q188 0 715 6l11 -8l-13 -111q-6 -53 -9 -90l-7 -93l-10 -11h-58l-10 10 q-1 136 -16 155q-11 14 -107.5 22t-169.5 8q-87 0 -176 -7q-11 -105 -11 -291v-207q79 -5 128 -5l131 1q92 1 104 15q16 18 21 135l10 10h62l10 -10q-4 -112 -4 -205q0 -101 4 -221l-10 -9h-67l-10 10q0 115 -16 136.5t-97 28.5q-61 5 -130 5q-73 0 -136 -5v-305 q0 -131 5 -254h136q292 0 358 23q11 4 16 11q10 14 19 60l24 124l10 11h61zM990 1875l-451 -326l-46 35v14l219 276l256 31z"/>
<glyph glyph-name="Ecircumflex" horiz-adv-x="1241" unicode="Ê" d="M1165 334q-22 -146 -22 -330l-10 -10l-727 6q-182 0 -257 -6l-10 10v28l5 12q74 47 80 59q9 19 11 133l3 224v507q0 238 -13 310q-5 29 -34 37q-15 4 -117 10l-10 10v68l10 9q101 -6 312 -6q188 0 715 6l11 -8l-13 -111q-6 -53 -9 -90l-7 -93l-10 -11h-58l-10 10 q-1 136 -16 155q-11 14 -107.5 22t-169.5 8q-87 0 -176 -7q-11 -105 -11 -291v-207q79 -5 128 -5l131 1q92 1 104 15q16 18 21 135l10 10h62l10 -10q-4 -112 -4 -205q0 -101 4 -221l-10 -9h-67l-10 10q0 115 -16 136.5t-97 28.5q-61 5 -130 5q-73 0 -136 -5v-305 q0 -131 5 -254h136q292 0 358 23q11 4 16 11q10 14 19 60l24 124l10 11h61zM1001 1549l-3 -10h-77l-263 215l-263 -215h-77l-3 10l245 356h196z"/>
<glyph glyph-name="Edieresis" horiz-adv-x="1241" unicode="Ë" d="M1165 334q-22 -146 -22 -330l-10 -10l-727 6q-182 0 -257 -6l-10 10v28l5 12q74 47 80 59q9 19 11 133l3 224v507q0 238 -13 310q-5 29 -34 37q-15 4 -117 10l-10 10v68l10 9q101 -6 312 -6q188 0 715 6l11 -8l-13 -111q-6 -53 -9 -90l-7 -93l-10 -11h-58l-10 10 q-1 136 -16 155q-11 14 -107.5 22t-169.5 8q-87 0 -176 -7q-11 -105 -11 -291v-207q79 -5 128 -5l131 1q92 1 104 15q16 18 21 135l10 10h62l10 -10q-4 -112 -4 -205q0 -101 4 -221l-10 -9h-67l-10 10q0 115 -16 136.5t-97 28.5q-61 5 -130 5q-73 0 -136 -5v-305 q0 -131 5 -254h136q292 0 358 23q11 4 16 11q10 14 19 60l24 124l10 11h61zM583 1722q0 -60 -43 -103t-102 -43q-61 0 -103 42.5t-42 103.5q0 63 43 105.5t102 42.5t102 -43.5t43 -104.5zM1023 1722q0 -61 -42.5 -103.5t-103.5 -42.5q-60 0 -102.5 42.5t-42.5 103.5 t43 104.5t102 43.5t102.5 -42.5t43.5 -105.5z"/>
<glyph glyph-name="Igrave" horiz-adv-x="797" unicode="Ì" d="M716 4l-9 -10q-100 6 -309 6q-208 0 -308 -6l-9 10v67l10 10q102 6 117 10q29 8 34 37q13 72 13 310v529q0 238 -13 310q-5 29 -34 37q-15 4 -117 10l-10 10v68l10 9q96 -6 308 -6q211 0 307 6l10 -9v-68l-10 -10q-102 -6 -117 -10q-29 -8 -34 -37q-13 -72 -13 -310v-529 q0 -238 13 -310q5 -29 34 -37q15 -4 117 -10l10 -10v-67zM563 1584l-46 -35l-451 326l22 30l256 -31l219 -276v-14z"/>
<glyph glyph-name="Iacute" horiz-adv-x="797" unicode="Í" d="M716 4l-9 -10q-100 6 -309 6q-208 0 -308 -6l-9 10v67l10 10q102 6 117 10q29 8 34 37q13 72 13 310v529q0 238 -13 310q-5 29 -34 37q-15 4 -117 10l-10 10v68l10 9q96 -6 308 -6q211 0 307 6l10 -9v-68l-10 -10q-102 -6 -117 -10q-29 -8 -34 -37q-13 -72 -13 -310v-529 q0 -238 13 -310q5 -29 34 -37q15 -4 117 -10l10 -10v-67zM730 1875l-451 -326l-46 35v14l219 276l256 31z"/>
<glyph glyph-name="Icircumflex" horiz-adv-x="797" unicode="Î" d="M716 4l-9 -10q-100 6 -309 6q-208 0 -308 -6l-9 10v67l10 10q102 6 117 10q29 8 34 37q13 72 13 310v529q0 238 -13 310q-5 29 -34 37q-15 4 -117 10l-10 10v68l10 9q96 -6 308 -6q211 0 307 6l10 -9v-68l-10 -10q-102 -6 -117 -10q-29 -8 -34 -37q-13 -72 -13 -310v-529 q0 -238 13 -310q5 -29 34 -37q15 -4 117 -10l10 -10v-67zM741 1549l-3 -10h-77l-263 215l-263 -215h-77l-3 10l245 356h196z"/>
<glyph glyph-name="Idieresis" horiz-adv-x="797" unicode="Ï" d="M716 4l-9 -10q-100 6 -309 6q-208 0 -308 -6l-9 10v67l10 10q102 6 117 10q29 8 34 37q13 72 13 310v529q0 238 -13 310q-5 29 -34 37q-15 4 -117 10l-10 10v68l10 9q96 -6 308 -6q211 0 307 6l10 -9v-68l-10 -10q-102 -6 -117 -10q-29 -8 -34 -37q-13 -72 -13 -310v-529 q0 -238 13 -310q5 -29 34 -37q15 -4 117 -10l10 -10v-67zM323 1722q0 -60 -43 -103t-102 -43q-61 0 -103 42.5t-42 103.5q0 63 43 105.5t102 42.5t102 -43.5t43 -104.5zM763 1722q0 -61 -42.5 -103.5t-103.5 -42.5q-60 0 -102.5 42.5t-42.5 103.5t43 104.5t102 43.5 t102.5 -42.5t43.5 -105.5z"/>
<glyph glyph-name="Eth" horiz-adv-x="1702" unicode="Ð" d="M1301 738q0 277 -134 426q-70 78 -175 110q-100 30 -279 30q-93 0 -178 -13q-10 -108 -10 -493h322l10 -10v-87l-10 -10h-322v-175l2 -204q1 -146 8 -194q88 -14 180 -14q199 0 314 58q124 63 197 214q75 156 75 362zM1608 786q0 -339 -221 -562q-108 -109 -262 -169 q-155 -61 -360 -61h-25l-353 6h-56q-107 0 -182 -6l-10 10v28l5 12q74 47 80 59q9 18 11 133l3 224v231h-164l-10 9v88l10 10h164v169q0 238 -13 310q-5 29 -34 37q-15 4 -117 10l-10 10v68l10 9q106 -6 202 -6q233 0 420 6q93 3 187 3q260 0 399 -59q152 -65 238 -204 q88 -143 88 -365z"/>
<glyph glyph-name="Ntilde" horiz-adv-x="1706" unicode="Ñ" d="M1640 1334l-11 -10q-102 -6 -117 -10q-29 -8 -34 -37q-13 -72 -13 -310v-406q0 -449 13 -585l-13 -9q-113 19 -171 27q-268 301 -915 1098v-654q0 -238 13 -310q5 -29 34 -37q15 -4 117 -10l10 -10v-68l-10 -9q-115 6 -214 6q-115 0 -231 -6l-10 9v68l10 10q102 6 117 10 q29 8 34 37q13 72 13 310v529q0 238 -13 310q-5 29 -34 37q-15 4 -117 10l-10 10v68l10 9q95 -6 181 -6q135 0 224 6q360 -480 846 -1029v585q0 238 -13 310q-5 29 -34 37q-15 4 -117 10l-10 10v68l10 9q112 -6 213 -6q129 0 232 6l10 -9v-68zM1250 1860q-21 -113 -86 -188 q-66 -78 -147 -78q-55 0 -131 35q-27 13 -79 36q-20 10 -68 32q-40 18 -77 18q-80 0 -114 -114h-63l-7 10q21 113 86.5 189.5t146.5 76.5q55 0 131 -35q27 -13 79 -36q20 -10 68 -32q40 -18 77 -18q80 0 114 114h63z"/>
<glyph glyph-name="Ograve" horiz-adv-x="1706" unicode="Ò" d="M1304 687q0 290 -116.5 460.5t-341.5 170.5q-297 0 -394 -267q-50 -137 -50 -307q0 -309 114 -488q118 -185 353 -185q285 0 383 281q52 149 52 335zM1612 739q0 -369 -215 -579q-209 -204 -571 -204q-342 0 -537 192.5t-195 535.5q0 481 367 666q167 84 411 84 q349 0 543 -183q197 -186 197 -512zM1012 1584l-46 -35l-451 326l22 30l256 -31l219 -276v-14z"/>
<glyph glyph-name="Oacute" horiz-adv-x="1706" unicode="Ó" d="M1304 687q0 290 -116.5 460.5t-341.5 170.5q-297 0 -394 -267q-50 -137 -50 -307q0 -309 114 -488q118 -185 353 -185q285 0 383 281q52 149 52 335zM1612 739q0 -369 -215 -579q-209 -204 -571 -204q-342 0 -537 192.5t-195 535.5q0 481 367 666q167 84 411 84 q349 0 543 -183q197 -186 197 -512zM1179 1875l-451 -326l-46 35v14l219 276l256 31z"/>
<glyph glyph-name="Ocircumflex" horiz-adv-x="1706" unicode="Ô" d="M1304 687q0 290 -116.5 460.5t-341.5 170.5q-297 0 -394 -267q-50 -137 -50 -307q0 -309 114 -488q118 -185 353 -185q285 0 383 281q52 149 52 335zM1612 739q0 -369 -215 -579q-209 -204 -571 -204q-342 0 -537 192.5t-195 535.5q0 481 367 666q167 84 411 84 q349 0 543 -183q197 -186 197 -512zM1190 1549l-3 -10h-77l-263 215l-263 -215h-77l-3 10l245 356h196z"/>
<glyph glyph-name="Otilde" horiz-adv-x="1706" unicode="Õ" d="M1304 687q0 290 -116.5 460.5t-341.5 170.5q-297 0 -394 -267q-50 -137 -50 -307q0 -309 114 -488q118 -185 353 -185q285 0 383 281q52 149 52 335zM1612 739q0 -369 -215 -579q-209 -204 -571 -204q-342 0 -537 192.5t-195 535.5q0 481 367 666q167 84 411 84 q349 0 543 -183q197 -186 197 -512zM1233 1860q-21 -113 -86 -188q-66 -78 -147 -78q-55 0 -131 35q-27 13 -79 36q-20 10 -68 32q-40 18 -77 18q-80 0 -114 -114h-63l-7 10q21 113 86.5 189.5t146.5 76.5q55 0 131 -35q27 -13 79 -36q20 -10 68 -32q40 -18 77 -18 q80 0 114 114h63z"/>
<glyph glyph-name="Odieresis" horiz-adv-x="1706" unicode="Ö" d="M1304 687q0 290 -116.5 460.5t-341.5 170.5q-297 0 -394 -267q-50 -137 -50 -307q0 -309 114 -488q118 -185 353 -185q285 0 383 281q52 149 52 335zM1612 739q0 -369 -215 -579q-209 -204 -571 -204q-342 0 -537 192.5t-195 535.5q0 481 367 666q167 84 411 84 q349 0 543 -183q197 -186 197 -512zM772 1722q0 -60 -43 -103t-102 -43q-61 0 -103 42.5t-42 103.5q0 63 43 105.5t102 42.5t102 -43.5t43 -104.5zM1212 1722q0 -61 -42.5 -103.5t-103.5 -42.5q-60 0 -102.5 42.5t-42.5 103.5t43 104.5t102 43.5t102.5 -42.5t43.5 -105.5z "/>
<glyph glyph-name="multiply" d="M927 294l-116 -116l-308 307l-307 -307l-116 116l307 307l-307 308l116 115l307 -307l308 307l116 -115l-308 -308z" unicode="×"/>
<glyph glyph-name="Oslash" horiz-adv-x="1706" unicode="Ø" d="M1304 687q0 176 -46 315l-763 -711q66 -122 166 -175q85 -45 208 -45q285 0 383 281q52 149 52 335zM1213 1106q-70 126 -171 174q-80 38 -196 38q-297 0 -394 -267q-50 -137 -50 -307q0 -202 48 -348zM1637 1355l-170 -159q145 -173 145 -457q0 -369 -215 -579 q-209 -204 -571 -204q-318 0 -510 168l-176 -164h-15l-60 62v15l177 165q-148 185 -148 482q0 481 367 666q167 84 411 84q328 0 519 -162l174 162h15l57 -65v-14z"/>
<glyph glyph-name="Ugrave" horiz-adv-x="1593" unicode="Ù" d="M1540 1334l-10 -10q-118 0 -133 -63q-8 -35 -12 -152q-3 -87 -3 -251v-308q0 -297 -117 -424q-155 -168 -442 -168q-262 0 -409 87q-124 74 -162 210q-24 87 -24 454v258q0 238 -13 310q-5 29 -34 37q-15 4 -117 10l-10 10v67l10 10q96 -6 308 -6q216 0 307 6l10 -10v-67 l-10 -10q-102 -6 -117 -10q-29 -8 -34 -37q-13 -72 -13 -310v-206q0 -378 34 -463q68 -168 335 -168q175 0 273 86q46 41 64 83t28 130q9 82 9 166v208q0 262 -2 358q-2 90 -12 117q-8 20 -35 31q-23 9 -123 15l-10 10v67l10 10q87 -6 179 -6q69 0 265 6l10 -10v-67z M988 1584l-46 -35l-451 326l22 30l256 -31l219 -276v-14z"/>
<glyph glyph-name="Uacute" horiz-adv-x="1593" unicode="Ú" d="M1540 1334l-10 -10q-118 0 -133 -63q-8 -35 -12 -152q-3 -87 -3 -251v-308q0 -297 -117 -424q-155 -168 -442 -168q-262 0 -409 87q-124 74 -162 210q-24 87 -24 454v258q0 238 -13 310q-5 29 -34 37q-15 4 -117 10l-10 10v67l10 10q96 -6 308 -6q216 0 307 6l10 -10v-67 l-10 -10q-102 -6 -117 -10q-29 -8 -34 -37q-13 -72 -13 -310v-206q0 -378 34 -463q68 -168 335 -168q175 0 273 86q46 41 64 83t28 130q9 82 9 166v208q0 262 -2 358q-2 90 -12 117q-8 20 -35 31q-23 9 -123 15l-10 10v67l10 10q87 -6 179 -6q69 0 265 6l10 -10v-67z M1155 1875l-451 -326l-46 35v14l219 276l256 31z"/>
<glyph glyph-name="Ucircumflex" horiz-adv-x="1593" unicode="Û" d="M1540 1334l-10 -10q-118 0 -133 -63q-8 -35 -12 -152q-3 -87 -3 -251v-308q0 -297 -117 -424q-155 -168 -442 -168q-262 0 -409 87q-124 74 -162 210q-24 87 -24 454v258q0 238 -13 310q-5 29 -34 37q-15 4 -117 10l-10 10v67l10 10q96 -6 308 -6q216 0 307 6l10 -10v-67 l-10 -10q-102 -6 -117 -10q-29 -8 -34 -37q-13 -72 -13 -310v-206q0 -378 34 -463q68 -168 335 -168q175 0 273 86q46 41 64 83t28 130q9 82 9 166v208q0 262 -2 358q-2 90 -12 117q-8 20 -35 31q-23 9 -123 15l-10 10v67l10 10q87 -6 179 -6q69 0 265 6l10 -10v-67z M1166 1549l-3 -10h-77l-263 215l-263 -215h-77l-3 10l245 356h196z"/>
<glyph glyph-name="Udieresis" horiz-adv-x="1593" unicode="Ü" d="M1540 1334l-10 -10q-118 0 -133 -63q-8 -35 -12 -152q-3 -87 -3 -251v-308q0 -297 -117 -424q-155 -168 -442 -168q-262 0 -409 87q-124 74 -162 210q-24 87 -24 454v258q0 238 -13 310q-5 29 -34 37q-15 4 -117 10l-10 10v67l10 10q96 -6 308 -6q216 0 307 6l10 -10v-67 l-10 -10q-102 -6 -117 -10q-29 -8 -34 -37q-13 -72 -13 -310v-206q0 -378 34 -463q68 -168 335 -168q175 0 273 86q46 41 64 83t28 130q9 82 9 166v208q0 262 -2 358q-2 90 -12 117q-8 20 -35 31q-23 9 -123 15l-10 10v67l10 10q87 -6 179 -6q69 0 265 6l10 -10v-67z M748 1722q0 -60 -43 -103t-102 -43q-61 0 -103 42.5t-42 103.5q0 63 43 105.5t102 42.5t102 -43.5t43 -104.5zM1188 1722q0 -61 -42.5 -103.5t-103.5 -42.5q-60 0 -102.5 42.5t-42.5 103.5t43 104.5t102 43.5t102.5 -42.5t43.5 -105.5z"/>
<glyph glyph-name="Yacute" horiz-adv-x="1366" unicode="Ý" d="M1349 1364q-158 -215 -346 -527q-106 -176 -117 -225q-6 -26 -6 -75v-99q0 -293 18 -326q8 -14 23 -18q25 -7 123 -13l10 -10v-67l-10 -10q-99 6 -308 6q-214 0 -308 -6l-9 9v68l10 10q98 6 123 13q15 4 23 18q18 33 18 326v118q0 38 -157 304q-160 271 -255 368 q-46 47 -62 53.5t-75 6.5l-11 11v56l10 11q244 48 313 68q52 -25 93 -65q85 -83 228 -370l131 -262q59 95 225 382l111 199q18 33 49 91h146l10 -10v-35zM1078 1875l-451 -326l-46 35v14l219 276l256 31z"/>
<glyph glyph-name="Thorn" horiz-adv-x="1251" unicode="Þ" d="M1173 826q0 -258 -204 -384q-100 -62 -207 -62q-40 0 -128 15l-33 74l20 20q48 -14 86 -14q106 0 138.5 72t32.5 171q0 173 -46.5 243.5t-158.5 70.5q-69 0 -131 -21v-573q0 -238 13 -310q5 -29 34 -37q9 -2 137 -10l13 -10v-67l-10 -10q-141 6 -330 6q-215 0 -308 -6 l-10 9v68l11 10q101 6 116 10q29 8 34 37q13 72 13 310v529q0 238 -13 310q-5 29 -34 37q-15 4 -117 10l-10 10v68l10 9q96 -6 308 -6q217 0 308 6l9 -9v-69l-10 -9q-102 -6 -117 -10q-29 -8 -34 -37q-9 -50 -9 -139l21 -1q43 -2 157 -5q248 -3 332 -56q117 -73 117 -250z "/>
<glyph glyph-name="germandbls" horiz-adv-x="1251" unicode="ß" d="M952 205q0 80 -150 171q-86 52 -93 57q-30 20 -59 49q-61 62 -61 156q0 136 180 283q46 38 132 38q15 72 15 141q0 139 -100 209q-54 38 -130 38q-85 0 -142.5 -47.5t-68.5 -114.5q-12 -73 -12 -235v-632q0 -191 13.5 -217t113.5 -26q6 17 10 63q5 57 9 78l9 11l46 8 l11 -10l6 -93q57 -56 129 -56q63 0 102.5 36.5t39.5 92.5zM1154 350q0 -130 -95 -225q-127 -127 -198 -150q-50 -16 -103 -16q-110 0 -166 51l-8 -16q-128 6 -249 6q-70 0 -262 -6l-10 10v60l11 10q94 3 114 14.5t22 48.5q7 130 7 455v168h-40q-12 0 -45 -2t-52 -2l-10 10 v25l7 14q102 61 133 90q1 137 10 188q11 58 48.5 113.5t148.5 143.5q109 85 176 114.5t157 29.5q147 0 230.5 -79t83.5 -213q0 -124 -36 -257q-25 -92 -25 -104l-26 -15q-60 38 -107 38q-42 0 -72 -24t-30 -62q0 -40 36.5 -72t158.5 -101q142 -80 173 -145q18 -38 18 -100z "/>
<glyph glyph-name="agrave" d="M610 239v246q-165 -36 -222.5 -77.5t-57.5 -126.5q0 -136 119 -136q101 0 161 94zM977 6l-11 -11q-84 5 -193 5q-85 0 -163 -5l-9 11l9 134l-194 -148q-23 -17 -66 -21q-17 -2 -40 -2q-111 0 -170.5 67t-59.5 185q0 156 99 221q107 71 431 128q0 159 -84 213 q-51 33 -122 33q-78 0 -123 -32l-38 -93l-13 -7l-51 12l-7 14l5 118q165 122 248 138q35 7 91 7q197 0 281 -103q61 -75 61 -230q0 -38 -3 -122q-5 -140 -5 -187q0 -151 5 -192.5t23.5 -52.5t88.5 -13l10 -11v-56zM658 1119l-56 -30l-328 385l25 28l219 -29l140 -341v-13z " unicode="à"/>
<glyph glyph-name="aacute" d="M610 239v246q-165 -36 -222.5 -77.5t-57.5 -126.5q0 -136 119 -136q101 0 161 94zM977 6l-11 -11q-84 5 -193 5q-85 0 -163 -5l-9 11l9 134l-194 -148q-23 -17 -66 -21q-17 -2 -40 -2q-111 0 -170.5 67t-59.5 185q0 156 99 221q107 71 431 128q0 159 -84 213 q-51 33 -122 33q-78 0 -123 -32l-38 -93l-13 -7l-51 12l-7 14l5 118q165 122 248 138q35 7 91 7q197 0 281 -103q61 -75 61 -230q0 -38 -3 -122q-5 -140 -5 -187q0 -151 5 -192.5t23.5 -52.5t88.5 -13l10 -11v-56zM786 1474l-328 -385l-56 30v13l140 341l219 29z" unicode="á"/>
<glyph glyph-name="acircumflex" d="M610 239v246q-165 -36 -222.5 -77.5t-57.5 -126.5q0 -136 119 -136q101 0 161 94zM977 6l-11 -11q-84 5 -193 5q-85 0 -163 -5l-9 11l9 134l-194 -148q-23 -17 -66 -21q-17 -2 -40 -2q-111 0 -170.5 67t-59.5 185q0 156 99 221q107 71 431 128q0 159 -84 213 q-51 33 -122 33q-78 0 -123 -32l-38 -93l-13 -7l-51 12l-7 14l5 118q165 122 248 138q35 7 91 7q197 0 281 -103q61 -75 61 -230q0 -38 -3 -122q-5 -140 -5 -187q0 -151 5 -192.5t23.5 -52.5t88.5 -13l10 -11v-56zM843 1120l-3 -10h-77l-233 241l-233 -241h-77l-3 10 l225 362h176z" unicode="â"/>
<glyph glyph-name="atilde" d="M610 239v246q-165 -36 -222.5 -77.5t-57.5 -126.5q0 -136 119 -136q101 0 161 94zM977 6l-11 -11q-84 5 -193 5q-85 0 -163 -5l-9 11l9 134l-194 -148q-23 -17 -66 -21q-17 -2 -40 -2q-111 0 -170.5 67t-59.5 185q0 156 99 221q107 71 431 128q0 159 -84 213 q-51 33 -122 33q-78 0 -123 -32l-38 -93l-13 -7l-51 12l-7 14l5 118q165 122 248 138q35 7 91 7q197 0 281 -103q61 -75 61 -230q0 -38 -3 -122q-5 -140 -5 -187q0 -151 5 -192.5t23.5 -52.5t88.5 -13l10 -11v-56zM886 1382q-61 -240 -233 -240q-47 0 -160 56 q-101 50 -135 50q-79 0 -114 -99h-63l-7 10q61 240 233 240q47 0 160 -56q101 -50 135 -50q79 0 114 99h63z" unicode="ã"/>
<glyph glyph-name="adieresis" d="M610 239v246q-165 -36 -222.5 -77.5t-57.5 -126.5q0 -136 119 -136q101 0 161 94zM977 6l-11 -11q-84 5 -193 5q-85 0 -163 -5l-9 11l9 134l-194 -148q-23 -17 -66 -21q-17 -2 -40 -2q-111 0 -170.5 67t-59.5 185q0 156 99 221q107 71 431 128q0 159 -84 213 q-51 33 -122 33q-78 0 -123 -32l-38 -93l-13 -7l-51 12l-7 14l5 118q165 122 248 138q35 7 91 7q197 0 281 -103q61 -75 61 -230q0 -38 -3 -122q-5 -140 -5 -187q0 -151 5 -192.5t23.5 -52.5t88.5 -13l10 -11v-56zM455 1252q0 -54 -38 -92.5t-91 -38.5t-91 38.5t-38 92.5 t38 92.5t91 38.5t91 -38t38 -93zM863 1252q0 -54 -38 -92.5t-91 -38.5t-91 38.5t-38 92.5t38 92.5t91 38.5t91 -37.5t38 -93.5z" unicode="ä"/>
<glyph glyph-name="aring" d="M610 239v246q-165 -36 -222.5 -77.5t-57.5 -126.5q0 -136 119 -136q101 0 161 94zM977 6l-11 -11q-84 5 -193 5q-85 0 -163 -5l-9 11l9 134l-194 -148q-23 -17 -66 -21q-17 -2 -40 -2q-111 0 -170.5 67t-59.5 185q0 156 99 221q107 71 431 128q0 159 -84 213 q-51 33 -122 33q-78 0 -123 -32l-38 -93l-13 -7l-51 12l-7 14l5 118q165 122 248 138q35 7 91 7q197 0 281 -103q61 -75 61 -230q0 -38 -3 -122q-5 -140 -5 -187q0 -151 5 -192.5t23.5 -52.5t88.5 -13l10 -11v-56zM632 1277q0 52 -27 87t-75 35t-75 -35t-27 -87t26 -86 q28 -37 76 -37t76 37q26 34 26 86zM730 1277q0 -82 -56.5 -132t-143.5 -50t-142 49q-58 51 -58 133t58 133q55 48 142 48t142 -48q58 -51 58 -133z" unicode="å"/>
<glyph glyph-name="ae" horiz-adv-x="1593" unicode="æ" d="M654 460q-41 0 -113 -19t-109 -39q-76 -42 -76 -145q0 -54 35 -88t93 -34q88 0 162 89q7 22 7 88zM1245 587q0 270 -168 270q-177 0 -177 -268v-22q58 -9 206 -9q77 0 138 9q1 14 1 20zM1504 563q0 -18 -1 -53l-11 -14q-132 -36 -350 -36q-39 0 -118 -1.5t-119 -1.5 q6 -148 90 -244q90 -102 233 -102q100 0 227 66l25 -29l-45 -99q-145 -93 -316 -93q-300 0 -407 203q-74 -42 -225 -168q-59 -32 -136 -32q-121 0 -189 72q-65 69 -65 178q0 75 34.5 143t87.5 93q133 62 434 112q1 18 1 29q0 231 -213 231q-76 0 -149 -41q-12 -23 -29 -83 l-13 -8l-49 9l-10 12q-2 82 -4 118q3 1 105 61q62 36 123 66q55 18 145 18q167 0 267 -107q166 107 300 107q179 0 278 -104t99 -302z"/>
<glyph glyph-name="ccedilla" horiz-adv-x="909" unicode="ç" d="M861 126l-44 -99q-136 -71 -268 -71h-22l-42 -94q33 5 64 5q81 0 133 -41t52 -108q0 -75 -72 -130t-192 -55q-98 0 -187 33l-5 16l19 43l15 5q63 -22 105 -22q55 0 91 26q40 29 40 80q0 36 -26 58.5t-63 22.5q-26 0 -55 -5l-20 16l67 157q-181 27 -274 159 q-87 122 -87 313q0 206 91 313q25 30 95 79q144 102 192.5 122t148.5 20q136 0 225 -41l10 -18q-1 -12 -14 -93l-11 -68q-3 -19 -9 -134l-10 -10h-60l-10 10q-6 89 -14 124q-44 78 -169 78q-212 0 -212 -275q0 -200 85 -315q87 -119 245 -119q96 0 169 41z"/>
<glyph glyph-name="egrave" d="M691 587q0 270 -168 270q-177 0 -177 -268v-22q58 -9 206 -9q77 0 138 9q1 14 1 20zM952 561q0 -17 -1 -51l-11 -14q-132 -36 -350 -36q-39 0 -118 -1.5t-119 -1.5q6 -147 91 -243q89 -103 232 -103q96 0 228 66l24 -29l-44 -99q-146 -93 -317 -93q-225 0 -349.5 127 t-124.5 362q0 279 133 382q184 142 349 142q179 0 277 -103q100 -106 100 -305zM698 1119l-56 -30l-328 385l25 28l219 -29l140 -341v-13z" unicode="è"/>
<glyph glyph-name="eacute" d="M691 587q0 270 -168 270q-177 0 -177 -268v-22q58 -9 206 -9q77 0 138 9q1 14 1 20zM952 561q0 -17 -1 -51l-11 -14q-132 -36 -350 -36q-39 0 -118 -1.5t-119 -1.5q6 -147 91 -243q89 -103 232 -103q96 0 228 66l24 -29l-44 -99q-146 -93 -317 -93q-225 0 -349.5 127 t-124.5 362q0 279 133 382q184 142 349 142q179 0 277 -103q100 -106 100 -305zM826 1474l-328 -385l-56 30v13l140 341l219 29z" unicode="é"/>
<glyph glyph-name="ecircumflex" d="M691 587q0 270 -168 270q-177 0 -177 -268v-22q58 -9 206 -9q77 0 138 9q1 14 1 20zM952 561q0 -17 -1 -51l-11 -14q-132 -36 -350 -36q-39 0 -118 -1.5t-119 -1.5q6 -147 91 -243q89 -103 232 -103q96 0 228 66l24 -29l-44 -99q-146 -93 -317 -93q-225 0 -349.5 127 t-124.5 362q0 279 133 382q184 142 349 142q179 0 277 -103q100 -106 100 -305zM853 1120l-3 -10h-77l-233 241l-233 -241h-77l-3 10l225 362h176z" unicode="ê"/>
<glyph glyph-name="edieresis" d="M691 587q0 270 -168 270q-177 0 -177 -268v-22q58 -9 206 -9q77 0 138 9q1 14 1 20zM952 561q0 -17 -1 -51l-11 -14q-132 -36 -350 -36q-39 0 -118 -1.5t-119 -1.5q6 -147 91 -243q89 -103 232 -103q96 0 228 66l24 -29l-44 -99q-146 -93 -317 -93q-225 0 -349.5 127 t-124.5 362q0 279 133 382q184 142 349 142q179 0 277 -103q100 -106 100 -305zM465 1252q0 -54 -38 -92.5t-91 -38.5t-91 38.5t-38 92.5t38 92.5t91 38.5t91 -38t38 -93zM873 1252q0 -54 -38 -92.5t-91 -38.5t-91 38.5t-38 92.5t38 92.5t91 38.5t91 -37.5t38 -93.5z" unicode="ë"/>
<glyph glyph-name="igrave" horiz-adv-x="682" unicode="ì" d="M625 3l-10 -10q-95 7 -274 7t-273 -7l-10 10v61l10 10q96 3 119 15q20 9 22 48q7 130 7 279v143q0 194 -15 230q-8 20 -43 25q-12 2 -87 5l-10 10v56l10 11q192 17 387 83l21 -13q-13 -182 -13 -307v-319q0 -73 7 -203q2 -39 22 -48q23 -12 119 -15l11 -10v-61zM445 1119 l-56 -30l-328 385l25 28l219 -29l140 -341v-13z"/>
<glyph glyph-name="iacute" horiz-adv-x="682" unicode="í" d="M625 3l-10 -10q-95 7 -274 7t-273 -7l-10 10v61l10 10q96 3 119 15q20 9 22 48q7 130 7 279v143q0 194 -15 230q-8 20 -43 25q-12 2 -87 5l-10 10v56l10 11q192 17 387 83l21 -13q-13 -182 -13 -307v-319q0 -73 7 -203q2 -39 22 -48q23 -12 119 -15l11 -10v-61zM574 1474 l-328 -385l-56 30v13l140 341l219 29z"/>
<glyph glyph-name="icircumflex" horiz-adv-x="682" unicode="î" d="M625 3l-10 -10q-95 7 -274 7t-273 -7l-10 10v61l10 10q96 3 119 15q20 9 22 48q7 130 7 279v143q0 194 -15 230q-8 20 -43 25q-12 2 -87 5l-10 10v56l10 11q192 17 387 83l21 -13q-13 -182 -13 -307v-319q0 -73 7 -203q2 -39 22 -48q23 -12 119 -15l11 -10v-61zM629 1120 l-3 -10h-77l-233 241l-233 -241h-77l-3 10l225 362h176z"/>
<glyph glyph-name="idieresis" horiz-adv-x="682" unicode="ï" d="M625 3l-10 -10q-95 7 -274 7t-273 -7l-10 10v61l10 10q96 3 119 15q20 9 22 48q7 130 7 279v143q0 194 -15 230q-8 20 -43 25q-12 2 -87 5l-10 10v56l10 11q192 17 387 83l21 -13q-13 -182 -13 -307v-319q0 -73 7 -203q2 -39 22 -48q23 -12 119 -15l11 -10v-61zM243 1252 q0 -54 -38 -92.5t-91 -38.5t-91 38.5t-38 92.5t38 92.5t91 38.5t91 -38t38 -93zM651 1252q0 -54 -38 -92.5t-91 -38.5t-91 38.5t-38 92.5t38 92.5t91 38.5t91 -37.5t38 -93.5z"/>
<glyph glyph-name="eth" horiz-adv-x="1139" unicode="ð" d="M582 59q99 0 149.5 98t50.5 311q0 127 -19.5 216t-69.5 142.5t-133 53.5q-74 0 -122 -45t-63 -127.5t-15 -208.5q0 -244 62 -342t160 -98zM662 1333l266 125l14 -6l28 -57l-5 -15l-231 -108q159 -144 244.5 -327.5t85.5 -389.5q0 -167 -57.5 -304t-181 -216t-285.5 -79 q-138 0 -245.5 58.5t-163 167t-55.5 280.5q0 88 18.5 176t74.5 164.5t153 127t226 50.5q73 0 129 -18q-37 125 -123 225l-270 -127l-13 5l-28 61l5 14l243 113q-88 82 -189 136l-2 16l69 90l17 4q190 -96 276 -166z"/>
<glyph glyph-name="ntilde" horiz-adv-x="1251" unicode="ñ" d="M1208 4l-10 -11q-110 7 -186 7q-70 0 -204 -7l-10 10q18 223 18 344v196q0 244 -176 244q-92 0 -144 -63q-44 -53 -44 -107v-187q0 -259 13 -318q8 -35 116 -37l10 -10v-61l-10 -10q-85 6 -254 6q-179 0 -273 -7l-10 10v61l10 10q96 3 119 15q20 9 22 48q7 130 7 279v143 q0 200 -15 230q-10 20 -43 25q-12 2 -87 5l-10 10v56l10 11q180 17 379 83l22 -13l-2 -168l172 144q66 27 145 27q159 0 238 -96q64 -78 64 -229q0 -17 -4 -139t-4 -174q0 -151 5 -192.5t23 -52.5t104 -13l9 -10v-59zM980 1382q-61 -240 -233 -240q-47 0 -160 56 q-101 50 -135 50q-79 0 -114 -99h-63l-7 10q61 240 233 240q47 0 160 -56q101 -50 135 -50q79 0 114 99h63z"/>
<glyph glyph-name="ograve" horiz-adv-x="1139" unicode="ò" d="M780 414q0 249 -54.5 356.5t-166.5 107.5q-199 0 -199 -359q0 -461 223 -461q139 0 177 153q20 80 20 203zM1057 496q0 -354 -238 -479q-116 -61 -265 -61q-230 0 -350.5 133t-120.5 381q0 343 234 457q115 56 267 56q319 0 423 -221q50 -106 50 -266zM708 1119l-56 -30 l-328 385l25 28l219 -29l140 -341v-13z"/>
<glyph glyph-name="oacute" horiz-adv-x="1139" unicode="ó" d="M780 414q0 249 -54.5 356.5t-166.5 107.5q-199 0 -199 -359q0 -461 223 -461q139 0 177 153q20 80 20 203zM1057 496q0 -354 -238 -479q-116 -61 -265 -61q-230 0 -350.5 133t-120.5 381q0 343 234 457q115 56 267 56q319 0 423 -221q50 -106 50 -266zM836 1474 l-328 -385l-56 30v13l140 341l219 29z"/>
<glyph glyph-name="ocircumflex" horiz-adv-x="1139" unicode="ô" d="M780 414q0 249 -54.5 356.5t-166.5 107.5q-199 0 -199 -359q0 -461 223 -461q139 0 177 153q20 80 20 203zM1057 496q0 -354 -238 -479q-116 -61 -265 -61q-230 0 -350.5 133t-120.5 381q0 343 234 457q115 56 267 56q319 0 423 -221q50 -106 50 -266zM893 1120l-3 -10 h-77l-233 241l-233 -241h-77l-3 10l225 362h176z"/>
<glyph glyph-name="otilde" horiz-adv-x="1139" unicode="õ" d="M780 414q0 249 -54.5 356.5t-166.5 107.5q-199 0 -199 -359q0 -461 223 -461q139 0 177 153q20 80 20 203zM1057 496q0 -354 -238 -479q-116 -61 -265 -61q-230 0 -350.5 133t-120.5 381q0 343 234 457q115 56 267 56q319 0 423 -221q50 -106 50 -266zM936 1382 q-61 -240 -233 -240q-47 0 -160 56q-101 50 -135 50q-79 0 -114 -99h-63l-7 10q61 240 233 240q47 0 160 -56q101 -50 135 -50q79 0 114 99h63z"/>
<glyph glyph-name="odieresis" horiz-adv-x="1139" unicode="ö" d="M780 414q0 249 -54.5 356.5t-166.5 107.5q-199 0 -199 -359q0 -461 223 -461q139 0 177 153q20 80 20 203zM1057 496q0 -354 -238 -479q-116 -61 -265 -61q-230 0 -350.5 133t-120.5 381q0 343 234 457q115 56 267 56q319 0 423 -221q50 -106 50 -266zM505 1252 q0 -54 -38 -92.5t-91 -38.5t-91 38.5t-38 92.5t38 92.5t91 38.5t91 -38t38 -93zM913 1252q0 -54 -38 -92.5t-91 -38.5t-91 38.5t-38 92.5t38 92.5t91 38.5t91 -37.5t38 -93.5z"/>
<glyph glyph-name="divide" d="M644 181q0 -55 -38.5 -93.5t-92.5 -38.5q-55 0 -93.5 39t-38.5 93t38.5 92.5t93.5 38.5q54 0 92.5 -38t38.5 -93zM993 515h-961v172h961v-172zM644 1021q0 -54 -38.5 -92.5t-92.5 -38.5q-55 0 -93.5 39t-38.5 92q0 54 38.5 93t93.5 39q54 0 92.5 -38.5t38.5 -93.5z" unicode="÷"/>
<glyph glyph-name="oslash" horiz-adv-x="1139" unicode="ø" d="M780 414q0 124 -13 211l-377 -384q52 -183 193 -183q139 0 177 153q20 80 20 203zM746 718q-50 160 -187 160q-199 0 -199 -359q0 -102 11 -182zM1067 930l-100 -102q90 -119 90 -332q0 -354 -238 -479q-116 -61 -265 -61q-213 0 -332 114l-121 -123h-15l-44 42v14 l127 129q-86 127 -86 338q0 343 234 457q115 56 267 56q211 0 328 -97l98 100h16l41 -42v-14z"/>
<glyph glyph-name="ugrave" horiz-adv-x="1251" unicode="ù" d="M1201 5l-10 -10q-150 5 -189 5q-33 0 -98 -2.5t-97 -2.5l-8 8q8 82 8 156q-52 -39 -182 -166q-65 -25 -139 -25q-135 0 -213 73.5t-78 211.5q0 17 2 72t2 106v128q0 198 -15 230q-10 20 -43 25q-12 2 -88 5l-10 10v56l10 11q191 17 387 83l22 -13q-13 -166 -13 -307v-195 q0 -137 9 -187q10 -60 47.5 -91t100.5 -31q78 0 137 50q56 50 59 114q2 49 2 61v179q0 196 -15 230q-9 20 -42 25q-12 2 -88 5l-11 10v56l11 11q190 17 387 83l21 -13q-13 -150 -13 -307v-314q0 -211 12 -239q6 -14 20 -18q24 -7 104 -12l11 -10v-61zM749 1119l-56 -30 l-328 385l25 28l219 -29l140 -341v-13z"/>
<glyph glyph-name="uacute" horiz-adv-x="1251" unicode="ú" d="M1201 5l-10 -10q-150 5 -189 5q-33 0 -98 -2.5t-97 -2.5l-8 8q8 82 8 156q-52 -39 -182 -166q-65 -25 -139 -25q-135 0 -213 73.5t-78 211.5q0 17 2 72t2 106v128q0 198 -15 230q-10 20 -43 25q-12 2 -88 5l-10 10v56l10 11q191 17 387 83l22 -13q-13 -166 -13 -307v-195 q0 -137 9 -187q10 -60 47.5 -91t100.5 -31q78 0 137 50q56 50 59 114q2 49 2 61v179q0 196 -15 230q-9 20 -42 25q-12 2 -88 5l-11 10v56l11 11q190 17 387 83l21 -13q-13 -150 -13 -307v-314q0 -211 12 -239q6 -14 20 -18q24 -7 104 -12l11 -10v-61zM877 1474l-328 -385 l-56 30v13l140 341l219 29z"/>
<glyph glyph-name="ucircumflex" horiz-adv-x="1251" unicode="û" d="M1201 5l-10 -10q-150 5 -189 5q-33 0 -98 -2.5t-97 -2.5l-8 8q8 82 8 156q-52 -39 -182 -166q-65 -25 -139 -25q-135 0 -213 73.5t-78 211.5q0 17 2 72t2 106v128q0 198 -15 230q-10 20 -43 25q-12 2 -88 5l-10 10v56l10 11q191 17 387 83l22 -13q-13 -166 -13 -307v-195 q0 -137 9 -187q10 -60 47.5 -91t100.5 -31q78 0 137 50q56 50 59 114q2 49 2 61v179q0 196 -15 230q-9 20 -42 25q-12 2 -88 5l-11 10v56l11 11q190 17 387 83l21 -13q-13 -150 -13 -307v-314q0 -211 12 -239q6 -14 20 -18q24 -7 104 -12l11 -10v-61zM934 1120l-3 -10h-77 l-233 241l-233 -241h-77l-3 10l225 362h176z"/>
<glyph glyph-name="udieresis" horiz-adv-x="1251" unicode="ü" d="M1201 5l-10 -10q-150 5 -189 5q-33 0 -98 -2.5t-97 -2.5l-8 8q8 82 8 156q-52 -39 -182 -166q-65 -25 -139 -25q-135 0 -213 73.5t-78 211.5q0 17 2 72t2 106v128q0 198 -15 230q-10 20 -43 25q-12 2 -88 5l-10 10v56l10 11q191 17 387 83l22 -13q-13 -166 -13 -307v-195 q0 -137 9 -187q10 -60 47.5 -91t100.5 -31q78 0 137 50q56 50 59 114q2 49 2 61v179q0 196 -15 230q-9 20 -42 25q-12 2 -88 5l-11 10v56l11 11q190 17 387 83l21 -13q-13 -150 -13 -307v-314q0 -211 12 -239q6 -14 20 -18q24 -7 104 -12l11 -10v-61zM546 1252 q0 -54 -38 -92.5t-91 -38.5t-91 38.5t-38 92.5t38 92.5t91 38.5t91 -38t38 -93zM954 1252q0 -54 -38 -92.5t-91 -38.5t-91 38.5t-38 92.5t38 92.5t91 38.5t91 -37.5t38 -93.5z"/>
<glyph glyph-name="yacute" horiz-adv-x="1139" unicode="ý" d="M1117 873l-9 -9q-66 0 -90 -38q-13 -22 -71 -147q-131 -285 -217 -498l-161 -398q-75 -185 -161 -263q-81 -73 -198 -73q-74 0 -143 35q17 71 35 199l26 5q52 -74 141 -74q105 0 193 205l41 96l-324 842q-28 73 -51.5 90.5t-92.5 18.5l-10 10v60l11 10q64 -3 245 -3 q168 0 273 3l10 -10v-60l-10 -10q-114 0 -114 -41q0 -18 10 -44q16 -46 49 -137l146 -386l88 211q129 309 129 361q0 36 -116 36l-10 10v60l11 10q58 -3 196 -3q78 0 163 3l11 -10v-61zM836 1474l-328 -385l-56 30v13l140 341l219 29z"/>
<glyph glyph-name="thorn" horiz-adv-x="1251" unicode="þ" d="M899 457q0 218 -115 294q-61 40 -127 40q-123 0 -204 -101v-496q91 -96 200 -96q163 0 218 169q28 85 28 190zM1156 580q0 -122 -44 -235q-32 -81 -84 -139q-23 -25 -86 -72q-66 -53 -165 -128q-59 -39 -150 -39q-87 0 -174 32v-163q0 -105 7 -235q2 -37 21 -48t138 -15 l11 -10v-61l-10 -10q-95 7 -292 7q-173 0 -267 -7l-10 10v61l10 10q93 3 113 14.5t22 48.5q7 130 7 455v871q0 210 -7 340q-2 37 -22 48.5t-116 14.5l-11 11v55l10 11q191 20 387 83l22 -12q0 -27 -3 -99q-10 -239 -10 -401v-189q37 29 92 76q99 85 150 97q31 7 82 7 q180 0 281 -108q98 -104 98 -281z"/>
<glyph glyph-name="Dcroat" horiz-adv-x="1702" unicode="Đ" d="M1301 738q0 277 -134 426q-70 78 -175 110q-100 30 -279 30q-93 0 -178 -13q-10 -108 -10 -493h322l10 -10v-87l-10 -10h-322v-175l2 -204q1 -146 8 -194q88 -14 180 -14q199 0 314 58q124 63 197 214q75 156 75 362zM1608 786q0 -339 -221 -562q-108 -109 -262 -169 q-155 -61 -360 -61h-25l-353 6h-56q-107 0 -182 -6l-10 10v28l5 12q74 47 80 59q9 18 11 133l3 224v231h-164l-10 9v88l10 10h164v169q0 238 -13 310q-5 29 -34 37q-15 4 -117 10l-10 10v68l10 9q106 -6 202 -6q233 0 420 6q93 3 187 3q260 0 399 -59q152 -65 238 -204 q88 -143 88 -365z"/>
<glyph glyph-name="dotlessi" horiz-adv-x="682" unicode="ı" d="M625 3l-10 -10q-95 7 -274 7t-273 -7l-10 10v61l10 10q96 3 119 15q20 9 22 48q7 130 7 279v143q0 194 -15 230q-8 20 -43 25q-12 2 -87 5l-10 10v56l10 11q192 17 387 83l21 -13q-13 -182 -13 -307v-319q0 -73 7 -203q2 -39 22 -48q23 -12 119 -15l11 -10v-61z"/>
<glyph glyph-name="OE" horiz-adv-x="2048" unicode="Œ" d="M1093 613v195q0 138 -9 421q-59 55 -145 77q-55 14 -121 14q-280 0 -374 -255q-49 -133 -49 -315q0 -427 199 -589q101 -82 241 -82q119 0 194 31q25 10 55 32q9 90 9 471zM1990 334q-22 -146 -22 -330l-10 -10l-638 7q-108 0 -293 -19q-165 -17 -247 -17 q-327 0 -511 208q-180 203 -180 551q0 322 175 513q183 199 561 199q86 0 248 -21q115 -15 201 -15h20l633 11l10 -10l-13 -109q-6 -51 -9 -90l-7 -93l-10 -11h-58l-10 10q-1 136 -16 155q-11 14 -107.5 22t-139.5 8q-87 0 -176 -7q-11 -105 -11 -291v-207q80 -5 128 -5 l101 1q92 1 104 15q16 18 21 135l10 10h62l10 -10q-4 -112 -4 -205q0 -101 4 -221l-10 -9h-67l-10 10q0 115 -16 136.5t-97 28.5q-61 5 -100 5q-73 0 -136 -5v-305q0 -131 5 -254h136q105 0 199 5q91 5 129 18q11 4 16 11q10 14 19 60l24 124l10 11h61z"/>
<glyph glyph-name="oe" horiz-adv-x="1706" unicode="œ" d="M792 394q0 249 -54 369q-47 104 -167 104q-201 0 -201 -329q0 -240 53 -360q55 -124 173 -124q196 0 196 340zM1373 587q0 270 -168 270q-177 0 -177 -268v-22q58 -9 206 -9q77 0 138 9q1 14 1 20zM1634 561q0 -17 -1 -51l-11 -14q-132 -36 -350 -36q-39 0 -118 -1.5 t-119 -1.5q4 -144 89 -242q90 -104 233 -104q102 0 228 66l25 -29l-45 -99q-145 -93 -316 -93q-214 0 -338 133q-136 -136 -357 -136q-218 0 -335 128q-129 141 -129 388q0 238 131.5 369t373.5 131q224 0 345 -119q171 119 319 119q176 0 274 -102q101 -106 101 -306z"/>
<glyph glyph-name="Scaron" horiz-adv-x="1251" unicode="Š" d="M1144 462q0 -165 -94 -291q-82 -111 -215 -165q-122 -50 -291 -50q-210 0 -412 96l-12 22q28 115 28 327l10 10h64l9 -10v-23q0 -56 12 -148q36 -64 129 -110q97 -48 202 -48q198 0 274 138q39 71 39 147q0 128 -107 183q-53 27 -171 45q-267 41 -351 103 q-127 94 -127 291q0 205 138 327q146 128 406 128q234 0 378 -75l7 -24q-24 -119 -29 -286l-11 -10h-63l-10 10q-3 120 -10 156q-31 47 -108 80q-82 34 -171 34q-134 0 -212 -71q-73 -67 -73 -173q0 -115 83 -169q54 -35 255 -67q21 -3 117 -20q59 -10 109 -29 q101 -38 152 -116q55 -85 55 -212zM968 1895l-245 -356h-196l-245 356l3 10h77l263 -215l263 215h77z"/>
<glyph glyph-name="scaron" horiz-adv-x="909" unicode="š" d="M839 314q0 -161 -121.5 -259.5t-317.5 -98.5q-139 0 -298 60l-11 15q9 92 11 143l5 126l10 11h59l12 -11q4 -112 9 -132q85 -109 223 -109q88 0 141 43t53 115q0 91 -80 121q-34 13 -135 34q-165 35 -221 80q-85 68 -85 201q0 145 105 233q110 92 298 92q160 0 266 -54 l9 -16q-11 -45 -17 -231l-11 -10h-57l-11 10q-4 72 -14 117q-63 80 -183 80q-78 0 -128 -38t-50 -100q0 -83 85 -111q38 -12 148 -34q168 -33 222 -76q84 -67 84 -201zM774 1472l-225 -362h-176l-225 362l3 10h77l233 -241l233 241h77z"/>
<glyph glyph-name="Ydieresis" horiz-adv-x="1366" unicode="Ÿ" d="M1349 1364q-158 -215 -346 -527q-106 -176 -117 -225q-6 -26 -6 -75v-99q0 -293 18 -326q8 -14 23 -18q25 -7 123 -13l10 -10v-67l-10 -10q-99 6 -308 6q-214 0 -308 -6l-9 9v68l10 10q98 6 123 13q15 4 23 18q18 33 18 326v118q0 38 -157 304q-160 271 -255 368 q-46 47 -62 53.5t-75 6.5l-11 11v56l10 11q244 48 313 68q52 -25 93 -65q85 -83 228 -370l131 -262q59 95 225 382l111 199q18 33 49 91h146l10 -10v-35zM671 1722q0 -60 -43 -103t-102 -43q-61 0 -103 42.5t-42 103.5q0 63 43 105.5t102 42.5t102 -43.5t43 -104.5z M1111 1722q0 -61 -42.5 -103.5t-103.5 -42.5q-60 0 -102.5 42.5t-42.5 103.5t43 104.5t102 43.5t102.5 -42.5t43.5 -105.5z"/>
<glyph glyph-name="circumflex" horiz-adv-x="682" unicode="ˆ" d="M654 1120l-3 -10h-77l-233 241l-233 -241h-77l-3 10l225 362h176z"/>
<glyph glyph-name="caron" horiz-adv-x="682" unicode="ˇ" d="M654 1472l-225 -362h-176l-225 362l3 10h77l233 -241l233 241h77z"/>
<glyph glyph-name="ring" horiz-adv-x="682" unicode="˚" d="M443 1277q0 52 -27 87t-75 35t-75 -35t-27 -87t26 -86q28 -37 76 -37t76 37q26 34 26 86zM541 1277q0 -82 -56.5 -132t-143.5 -50t-142 49q-58 51 -58 133t58 133q55 48 142 48t142 -48q58 -51 58 -133z"/>
<glyph glyph-name="tilde" horiz-adv-x="682" unicode="˜" d="M697 1382q-61 -240 -233 -240q-47 0 -160 56q-101 50 -135 50q-79 0 -114 -99h-63l-7 10q61 240 233 240q47 0 160 -56q101 -50 135 -50q79 0 114 99h63z"/>
<glyph glyph-name="Alpha" horiz-adv-x="1593" unicode="Α" d="M910 542l-214 524l-205 -524q82 -3 213 -3q127 0 206 3zM1544 4l-9 -10q-222 6 -268 6q-184 0 -342 -6l-9 10v63l10 11l87 5q55 3 55 39q0 21 -28 94l-81 211q-138 2 -282 2q-78 0 -232 -2l-44 -122q-50 -139 -50 -174q0 -38 47 -45q26 -4 102 -8l10 -10v-64l-10 -10 q-185 6 -238 6q-41 0 -203 -6l-10 9v65l11 10q103 6 126.5 41t176.5 417l261 653q29 76 88 229h142l530 -1247q31 -71 56 -80q33 -12 95 -12l9 -11v-64z"/>
<glyph glyph-name="Beta" horiz-adv-x="1353" unicode="Β" d="M931 420q0 300 -315 300q-40 0 -91 -3v-463q0 -75 4 -147q41 -7 115 -7q140 0 216 88q71 84 71 232zM888 1084q0 221 -230 221q-76 0 -129 -8q-4 -105 -4 -194v-276q23 -2 92 -2q181 0 238 116q33 67 33 143zM1237 451q0 -251 -243 -389q-120 -68 -309 -68q-60 0 -99 1 l-239 5q-128 0 -198 -6l-10 10v28l5 12q74 47 80 59q9 18 11 133l3 224v507q0 238 -13 310q-5 29 -34 37q-15 4 -117 10l-10 10v68l10 9q89 -6 306 -6q138 0 249 5q88 4 149 4q279 0 366 -127q46 -67 46 -154q0 -142 -111 -237q-53 -45 -110 -67q-66 -25 -144 -43 q412 -18 412 -335z"/>
<glyph glyph-name="Gamma" horiz-adv-x="1190" unicode="Γ" d="M1149 1406q-14 -93 -14 -324l-11 -10h-63l-10 10q-1 6 -3 40q-4 73 -5 83q-8 61 -28 76q-30 22 -193 22h-297v-865q0 -238 13 -310q5 -29 34 -37q15 -4 117 -10l10 -10l1 -68l-9 -9q-14 0 -76 2q-159 4 -233 4q-99 0 -309 -6l-9 9v68l10 10q102 6 117 10q29 8 34 37 q13 72 13 310v529q0 238 -13 310q-5 29 -34 37q-15 4 -117 10l-10 10v68l10 9l243 -6q645 0 823 11z"/>
<glyph glyph-name="Delta" horiz-adv-x="1408" unicode="Δ" d="M1000 105q-51 144 -181 462l-208 508q-46 -111 -64 -161l-144 -394q-109 -300 -147 -415h744zM1356 30l-10 -30h-1284l-10 30q121 254 313 713l280 675h118l495 -1167q46 -108 98 -221z"/>
<glyph glyph-name="Epsilon" horiz-adv-x="1241" unicode="Ε" d="M1165 334q-22 -146 -22 -330l-10 -10l-727 6q-182 0 -257 -6l-10 10v28l5 12q74 47 80 59q9 19 11 133l3 224v507q0 238 -13 310q-5 29 -34 37q-15 4 -117 10l-10 10v68l10 9q101 -6 312 -6q188 0 715 6l11 -8l-13 -111q-6 -53 -9 -90l-7 -93l-10 -11h-58l-10 10 q-1 136 -16 155q-11 14 -107.5 22t-169.5 8q-87 0 -176 -7q-11 -105 -11 -291v-207q79 -5 128 -5l131 1q92 1 104 15q16 18 21 135l10 10h62l10 -10q-4 -112 -4 -205q0 -101 4 -221l-10 -9h-67l-10 10q0 115 -16 136.5t-97 28.5q-61 5 -130 5q-73 0 -136 -5v-305 q0 -131 5 -254h136q292 0 358 23q11 4 16 11q10 14 19 60l24 124l10 11h61z"/>
<glyph glyph-name="Zeta" horiz-adv-x="1366" unicode="Ζ" d="M1281 347q-21 -182 -32 -344l-10 -9q-411 8 -624 8q-156 0 -553 -8l-10 9v70q74 93 226 309l146 208l187 275q93 136 278 421l-251 -1q-291 -1 -335 -14q-26 -7 -36 -40q-4 -13 -17 -93l-8 -50l-11 -10h-61l-10 12q7 106 7 191q0 27 -2 120l10 10q136 -6 606 -6 q111 0 483 6l10 -10v-60l-82 -115q-129 -178 -222 -314l-296 -434q-50 -73 -233 -358q53 -2 161 -2q507 0 540 28q18 15 46 154q6 29 11 48l11 10h60z"/>
<glyph glyph-name="Eta" horiz-adv-x="1706" unicode="Η" d="M1642 4l-10 -10q-99 6 -308 6q-214 0 -308 -6l-10 9v68l11 10q102 6 117 10q29 8 34 37q13 72 13 310v241q-51 5 -324 5q-252 0 -332 -5v-241q0 -238 13 -310q5 -29 34 -37q15 -4 117 -10l10 -10v-67l-9 -10q-100 6 -308 6q-215 0 -308 -6l-10 9v68l10 10q102 6 117 10 q29 8 34 37q13 72 13 310v529q0 238 -13 310q-5 29 -34 37q-15 4 -117 10l-10 10v68l10 9q96 -6 308 -6q217 0 308 6l9 -9v-69l-10 -9q-102 -6 -117 -10q-29 -8 -34 -37q-13 -72 -13 -310v-165q106 -5 292 -5q292 0 364 5v165q0 238 -13 310q-5 29 -34 37q-15 4 -117 10 l-11 10v68l10 9q97 -6 308 -6q218 0 308 6l10 -9v-69l-9 -9q-104 -6 -118 -10q-29 -8 -34 -37q-13 -72 -13 -310v-529q0 -238 13 -310q5 -29 34 -37q15 -4 117 -10l10 -10v-67z"/>
<glyph glyph-name="Theta" horiz-adv-x="1706" unicode="Θ" d="M1122 958q-6 -106 -6 -221q0 -110 5 -257l-14 -11h-45l-10 11q-6 60 -9 73q-10 49 -35 62q-15 8 -101 8h-87l-55 1h-3q-76 0 -91 -44q-8 -26 -17 -100l-10 -11h-46l-13 11q5 161 5 250q0 146 -7 228l11 10h51l10 -10l9 -56q11 -66 59 -73q20 -3 91 -3h105q99 0 113 38 q7 19 19 94l10 10h51zM1310 683q0 269 -89 435q-114 215 -358 215q-298 0 -407 -284q-60 -156 -60 -335q0 -264 115 -458q117 -198 352 -198q276 0 387 253q60 136 60 372zM1612 736q0 -330 -179 -545q-196 -235 -597 -235q-344 0 -543 196t-199 539q0 468 358 653 q174 90 401 90q373 0 570 -188q189 -181 189 -510z"/>
<glyph glyph-name="Iota" horiz-adv-x="797" unicode="Ι" d="M716 4l-9 -10q-100 6 -309 6q-208 0 -308 -6l-9 10v67l10 10q102 6 117 10q29 8 34 37q13 72 13 310v529q0 238 -13 310q-5 29 -34 37q-15 4 -117 10l-10 10v68l10 9q96 -6 308 -6q211 0 307 6l10 -9v-68l-10 -10q-102 -6 -117 -10q-29 -8 -34 -37q-13 -72 -13 -310v-529 q0 -238 13 -310q5 -29 34 -37q15 -4 117 -10l10 -10v-67z"/>
<glyph glyph-name="Kappa" horiz-adv-x="1576" unicode="Κ" d="M1548 4l-10 -10q-164 6 -227 6q-56 0 -177 -6q-23 50 -103 141l-297 339q-97 110 -209 202v-238q0 -238 13 -310q5 -29 34 -37q15 -4 117 -10l10 -10v-67l-9 -10q-100 6 -308 6q-215 0 -308 -6l-10 9v68l10 10q102 6 117 10q29 8 34 37q13 72 13 310v529q0 238 -13 310 q-5 29 -34 37q-15 4 -117 10l-10 10v68l10 9q96 -6 308 -6q217 0 308 6l9 -9v-69l-10 -9q-102 -6 -117 -10q-29 -8 -34 -37q-13 -72 -13 -310v-248q187 174 268 258l142 147q73 76 187 208v69l11 10q77 -6 151 -6q87 0 204 6l10 -10v-62l-10 -10q-116 0 -172 -37 q-81 -54 -307 -268l-202 -192q43 -58 140 -171l224 -260q249 -289 288 -307q24 -11 79 -12l10 -11v-67z"/>
<glyph glyph-name="Lambda" horiz-adv-x="1593" unicode="Λ" d="M1560 5l-11 -11q-105 6 -265 6q-200 0 -364 -6l-10 11v67l9 10q150 1 150 52q0 26 -65 190l-47 119l-253 625l-222 -557q-13 -32 -60 -161q-68 -186 -68 -217q0 -41 62 -49l94 -2l10 -10v-68l-11 -10q-113 6 -235 6q-87 0 -213 -6l-11 11v67l10 10q64 6 77 11 q29 11 53.5 50.5t86.5 188.5l71 169l134 326q173 420 233 591h152l459 -1113q66 -157 73 -166q41 -55 151 -57l10 -11v-66z"/>
<glyph glyph-name="Mu" horiz-adv-x="2048" unicode="Μ" d="M1976 4l-10 -10q-99 6 -308 6q-214 0 -308 -6l-9 9v68l10 10q102 6 117 10q29 8 34 37q13 72 13 310v676l-223 -457q-19 -38 -130 -280l-183 -400h-67q-52 124 -141 313l-140 297l-262 545v-694q0 -238 13 -310q5 -29 34 -37q15 -4 117 -10l10 -10v-68l-10 -9 q-115 6 -214 6q-115 0 -231 -6l-10 9v68l10 10q102 6 117 10q29 8 34 37q13 72 13 310v529q0 238 -13 310q-5 29 -34 37q-15 4 -117 10l-10 10v68l10 9q104 -6 263 -6q122 0 213 6q33 -76 94 -214l64 -138l318 -665l153 310l239 511q42 91 82 196q113 -6 152 -6q196 0 300 6 l10 -9v-69l-10 -9q-102 -6 -117 -10q-29 -8 -34 -37q-13 -72 -13 -310v-529q0 -238 13 -310q5 -29 34 -37q15 -4 117 -10l10 -10v-67z"/>
<glyph glyph-name="Nu" horiz-adv-x="1706" unicode="Ν" d="M1640 1334l-11 -10q-102 -6 -117 -10q-29 -8 -34 -37q-13 -72 -13 -310v-406q0 -449 13 -585l-13 -9q-113 19 -171 27q-268 301 -915 1098v-654q0 -238 13 -310q5 -29 34 -37q15 -4 117 -10l10 -10v-68l-10 -9q-115 6 -214 6q-115 0 -231 -6l-10 9v68l10 10q102 6 117 10 q29 8 34 37q13 72 13 310v529q0 238 -13 310q-5 29 -34 37q-15 4 -117 10l-10 10v68l10 9q95 -6 181 -6q135 0 224 6q360 -480 846 -1029v585q0 238 -13 310q-5 29 -34 37q-15 4 -117 10l-10 10v68l10 9q112 -6 213 -6q129 0 232 6l10 -9v-68z"/>
<glyph glyph-name="Xi" horiz-adv-x="1404" unicode="Ξ" d="M1335 473l-39 -472l-13 -7q-176 6 -553 6q-356 0 -610 -6l-13 7q-3 61 -14 213l-24 259l10 10h56l10 -10q45 -163 87 -193q31 -22 180 -22h539q121 0 163 4q65 6 99 76q21 43 46 135l9 10h56zM1042 958q-7 -97 -7 -221q0 -99 6 -257l-14 -11h-46l-9 11q-9 81 -18 105 q-8 20 -26 30q-14 8 -101 8l-284 1q-80 0 -94 -44q-8 -24 -17 -100l-10 -11h-46l-13 11q5 161 5 250q0 134 -7 228l11 10h51l10 -10l9 -56q9 -57 52 -71q17 -5 98 -5h246q100 0 114 38q7 19 19 94l10 10h51zM1239 1011l-10 -10h-54l-11 10q-10 54 -19 86q-15 53 -56 62 q-33 7 -139 7h-493q-111 0 -142 -7t-44 -28q-10 -16 -32 -120l-10 -10h-54l-11 10q6 81 6 174q0 104 -5 218l11 8l526 -5q332 0 525 5l12 -8q-6 -142 -6 -211q0 -84 6 -181z"/>
<glyph glyph-name="Omicron" horiz-adv-x="1706" unicode="Ο" d="M1310 683q0 268 -89 435q-114 215 -358 215q-298 0 -407 -284q-60 -156 -60 -335q0 -167 52 -322q63 -187 179 -264q106 -70 236 -70q447 0 447 625zM1612 736q0 -459 -325 -671q-167 -109 -451 -109q-344 0 -543 196t-199 539q0 347 208 546q205 197 551 197 q373 0 570 -188q189 -181 189 -510z"/>
<glyph glyph-name="Pi" horiz-adv-x="1676" unicode="Π" d="M1612 1l-10 -7q-207 6 -308 6q-216 0 -308 -6l-9 9l-1 68l10 10q102 6 117 10q29 8 34 37q13 72 13 310v538q0 202 -9 327h-607q-9 -125 -9 -327v-538q0 -238 13 -310q5 -29 34 -37q15 -4 116 -10l11 -10v-68l-9 -9q-211 6 -308 6q-160 0 -309 -6l-9 9v68l10 10 q102 6 117 10q29 8 34 37q13 72 13 310v529q0 238 -13 310q-5 29 -34 37q-15 4 -117 10l-10 10v68l10 9l544 -6h562q119 0 422 6l10 -9v-68l-11 -10q-102 -6 -117 -10q-29 -8 -34 -37q-13 -72 -13 -310v-529q0 -238 13 -310q5 -29 34 -37q14 -4 118 -10l10 -10v-70z"/>
<glyph glyph-name="Rho" horiz-adv-x="1250" unicode="Ρ" d="M1198 1098q0 -206 -140.5 -321.5t-317.5 -115.5q-60 0 -121 14q-9 27 -35 72l21 22q42 -14 77 -14q101 0 162 71.5t61 200.5q0 279 -251 279q-30 0 -120 -12q-9 -24 -9 -327v-529q0 -238 13 -310q5 -29 34 -37q9 -2 137 -10l11 -11v-66l-10 -10q-137 6 -328 6 q-215 0 -308 -6l-10 9v67l11 11q101 6 116 10q29 8 34 37q13 72 13 310v529q0 238 -13 310q-5 29 -34 37q-15 4 -117 10l-10 11v66l11 10q98 -6 301 -6q84 0 242 3t182 3q274 0 356 -139q42 -72 42 -174z"/>
<glyph glyph-name="Sigma" horiz-adv-x="1352" unicode="Σ" d="M1267 463q-17 -127 -40 -460l-11 -9l-514 6q-117 1 -222 1q-251 0 -428 -8v57l286 407q119 170 164 240l-367 662v52l351 -6l452 1q157 0 277 5l10 -10l-2 -156q0 -24 7 -155l-11 -12h-60l-11 10q-22 171 -48 196q-17 17 -45 21q-42 7 -199 8l-348 3l228 -457l-146 -205 q-75 -105 -128 -185l-133 -200l277 -3q55 -1 104 -1q282 0 381 20q35 7 48 41q6 16 46 139l11 9h60z"/>
<glyph glyph-name="Tau" horiz-adv-x="1366" unicode="Τ" d="M1325 1405q-12 -74 -13 -153l-2 -167l-10 -10h-63l-11 9q-5 128 -11 150q-12 40 -64 47q-20 3 -188 3h-134q-2 -35 -2 -278v-568q0 -238 13 -310q5 -29 34 -37q15 -4 117 -10l10 -10v-67l-10 -10q-99 6 -308 6q-214 0 -308 -6l-9 9v68l10 10q102 6 117 10q29 8 34 37 q13 72 13 310v568q0 247 -3 278h-143q-179 0 -209 -11q-16 -6 -22 -15q-9 -16 -15 -64q-7 -53 -9 -109l-10 -10h-63l-11 10l-2 171q-1 72 -12 149l9 10q59 -10 430 -10h405q342 0 430 10z"/>
<glyph glyph-name="Upsilon" horiz-adv-x="1595" unicode="Υ" d="M1565 1131q0 -32 -8 -85l-31 -14l-18 7q-32 142 -170 142q-119 0 -230 -118q-132 -140 -163 -377q-15 -120 -15 -224v-24q2 -133 13 -310q5 -29 34 -37q15 -4 117 -10l10 -10v-70l-10 -7q-151 6 -314 6q-129 0 -291 -6l-10 7v70l10 10q102 6 117 10q29 8 34 37 q7 40 13 310v32q0 107 -17 211q-38 233 -169 390q-102 123 -212 123q-124 0 -181 -159l-12 -5l-31 28q33 153 111 249q95 116 236 116t234 -112q106 -127 139 -369q14 -103 26 -275h59q20 179 29 236q23 132 65 228q82 187 238 260q72 34 152 34q159 0 217 -139 q28 -67 28 -155z"/>
<glyph glyph-name="Phi" horiz-adv-x="1962" unicode="Φ" d="M843 535v399q0 62 -5 187q-195 0 -278 -42q-107 -54 -142 -188q-19 -73 -19 -156q0 -245 140 -351q92 -70 301 -70q3 145 3 221zM1563 735q0 353 -287 379q-67 6 -151 6q-5 -125 -5 -187v-399q0 -76 3 -221q116 0 178 13q70 15 126 59q136 107 136 350zM1868 744 q0 -276 -201 -406q-110 -71 -259 -96q-100 -16 -279 -16q4 -102 42 -122q13 -7 69 -16l49 -8l11 -9v-67l-10 -10q-101 6 -304 6q-223 0 -314 -6l-10 10v67l11 11l49 8q64 10 78 23q31 27 31 113q-305 0 -460 71q-176 81 -242 255q-35 92 -35 192q0 407 487 453q94 9 251 9 q-3 62 -27.5 85.5t-132.5 33.5l-10 9v68l10 10q99 -7 321 -7q208 0 297 7l10 -10v-68l-10 -9l-50 -7q-69 -10 -86 -31q-20 -25 -23 -81q294 0 446 -52q291 -99 291 -410z"/>
<glyph glyph-name="Chi" horiz-adv-x="1366" unicode="Χ" d="M1329 7l-10 -10l-204 3h-23q-52 0 -152 -3q-30 37 -98 163l-208 385l-79 -113q-150 -215 -278 -435q-46 3 -92 3q-93 0 -136 -3l-10 10v64l10 11q82 6 99 17q30 19 136 163l131 177q8 10 160 216l-76 134l-122 211q-130 224 -198 265q-23 14 -48 14q-20 0 -62 -3l-13 10 l-8 53l9 15q141 29 363 80q63 -41 130 -148q32 -52 100 -178l113 -210l130 190q161 236 209 321q41 -4 81 -4q67 0 136 4l10 -10v-66l-10 -10q-69 -1 -91.5 -15t-87.5 -95t-171 -225q-59 -80 -144 -199q50 -92 143 -259l128 -220q106 -182 133.5 -205.5t89.5 -23.5l10 -10 v-64z"/>
<glyph glyph-name="Psi" horiz-adv-x="1917" unicode="Ψ" d="M1908 1359l-5 -6l-80 -17q-33 -7 -45 -33q-6 -12 -12 -55q-5 -32 -14 -118q-30 -276 -51 -364q-23 -95 -84 -168q-146 -175 -469 -175q-9 0 -51 1q2 -126 13 -296q5 -29 34 -37q18 -5 107 -10l8 -10v-73l-9 -8q-176 10 -284 10q-105 0 -299 -10l-9 8v73l8 10q89 5 107 10 q29 8 34 31q0 13 13 302l-51 -1q-323 0 -469 175q-61 73 -84 168q-21 88 -51 364q-5 48 -18 144q-9 53 -53 62l-80 17l-5 6v42l6 10q94 10 252 10q111 0 140 -38q23 -30 26 -151q3 -130 16 -283q31 -376 215 -424q46 -12 156 -13v455q0 238 -13 310q-5 29 -34 37 q-19 5 -102 10l-10 10v68l12 9q159 -9 281 -9q54 0 290 9l12 -9v-68l-10 -10q-83 -5 -102 -10q-29 -8 -34 -37q-13 -72 -13 -310v-455q110 1 156 13q184 48 215 424q13 153 16 283q3 121 26 151q29 38 140 38q158 0 252 -10l6 -10v-42z"/>
<glyph glyph-name="alpha" horiz-adv-x="1399" unicode="α" d="M868 427l-52 168q-26 84 -50 143t-46.5 86t-47 38.5t-55.5 11.5q-112 0 -196.5 -188.5t-84.5 -397.5q0 -208 120 -208q187 0 412 347zM1160 978l73 -53l9 -29l-165 -308q25 -136 62 -277t60.5 -169t54.5 -28q19 0 41.5 6.5t92.5 32.5l11 -7v-53l-12 -15 q-206 -122 -311 -122q-40 0 -67 15.5t-40.5 41.5t-35.5 124l-45 197q-168 -227 -274.5 -302.5t-257.5 -75.5q-94 0 -154 27.5t-88 86t-28 161.5q0 195 96 379t249.5 278t325.5 94q90 0 147.5 -33t83 -84t57.5 -165q44 105 87 263z"/>
<glyph glyph-name="beta" horiz-adv-x="1194" unicode="β" d="M472 765q53 0 98.5 10.5t102 42.5t95 75.5t61.5 106t23 122.5q0 88 -49.5 154.5t-148.5 66.5q-53 0 -96.5 -22t-82.5 -73.5t-60 -133.5t-27 -218.5t-7 -318.5v-423l31 13q46 -53 91.5 -79.5t108.5 -26.5q112 0 179 92.5t67 230.5q0 148 -74 221t-203 73q-61 0 -127 -22 l-21 16zM175 -578l-32 35q10 187 10 394v459l-2 325q-1 135 -1 183q0 128 14 210.5t55 155.5t111 129t163.5 86.5t208.5 30.5q208 0 286 -75.5t78 -192.5q0 -143 -115.5 -261t-322.5 -161q110 0 221 -25.5t188.5 -99.5t77.5 -195q0 -124 -85 -236.5t-208.5 -160.5 t-256.5 -48q-24 0 -129 4l-55 106q0 -115 7.5 -323.5t17.5 -292.5q-93 -13 -231 -47z"/>
<glyph glyph-name="gamma" horiz-adv-x="1253" unicode="γ" d="M746 31q19 -139 23 -196l14 -164q8 -107 8 -134v-28l-8 -14l-84 -70h-19l-97 54l-8 15q6 175 88 478q-13 107 -27.5 184t-54 180.5t-101.5 199t-117.5 147t-103 72.5t-85.5 21q-59 0 -132 -54l-17 4l-19 53q55 68 116.5 122t99.5 69.5t83 15.5q104 0 185.5 -90 t135.5 -256.5t106 -513.5q47 116 72.5 172t104.5 216q54 109 86.5 198t46.5 212l18 20l194 19l15 -21q-29 -105 -63.5 -166t-147.5 -219q-115 -160 -189 -282.5t-123 -243.5z"/>
<glyph glyph-name="delta" horiz-adv-x="1223" unicode="δ" d="M918 457q0 315 -277 444q-139 -47 -203 -135q-90 -122 -90 -309q0 -94 34 -184q35 -95 95.5 -147t132.5 -52q73 0 146 44q82 49 121 130q41 85 41 209zM1141 588q0 -213 -143 -383q-127 -152 -359 -208q-119 -29 -192 -29q-93 0 -178 52q-94 56 -141 157q-46 97 -46 221 q0 270 225 413q104 66 283 132q-65 31 -261 130q-100 52 -120 65q-59 38 -59 77q0 87 181 160q197 80 387 80q16 0 39 -1l64 -115l-22 -12q-94 45 -202 45q-65 0 -110 -17.5t-45 -42.5q0 -33 53 -78q58 -49 242 -153q204 -115 262 -160q67 -52 104.5 -132.5t37.5 -200.5z "/>
<glyph glyph-name="epsilon" horiz-adv-x="951" unicode="ε" d="M845 881l-73 -138h-39q-16 97 -62 130.5t-113 33.5q-84 0 -134.5 -42.5t-50.5 -125.5q0 -171 192 -171q72 0 145 15l21 -17l-12 -68l-20 -13q-68 14 -127 14q-124 0 -180.5 -59t-56.5 -138q0 -103 85 -171.5t216 -68.5q143 0 253 77l12 -7l3 -13l-27 -63 q-163 -100 -379 -100q-212 0 -314.5 89.5t-102.5 215.5q0 73 35.5 127.5t105.5 85.5t177 53q-241 37 -241 218q0 82 47.5 135t134 77.5t203.5 24.5q85 0 168.5 -21t125.5 -53z"/>
<glyph glyph-name="zeta" horiz-adv-x="1084" unicode="ζ" d="M334 1465l32 -19q-28 -25 -28 -50q0 -26 29 -36.5t110 -10.5q96 0 190 18q98 61 164 78l18 -14q3 -13 3 -25q0 -28 -15 -60q-263 -82 -391.5 -300.5t-128.5 -493.5q0 -100 21.5 -195t61.5 -140.5t133 -45.5q48 0 122 7q157 13 207 13q88 0 131 -34t43 -83q0 -33 -20 -77 t-62 -92t-121.5 -99t-155 -82.5t-162.5 -56.5l-87 71v28l6 5q44 -13 83 -13q55 0 124.5 26t109.5 67.5t40 80.5q0 31 -27 48t-77 17q-33 0 -104 -4q-64 -4 -105 -4q-116 0 -189.5 16.5t-118.5 72t-65 132t-20 158.5q0 110 33.5 245t111.5 274t156 230.5t203 191.5 q-164 -17 -250 -17q-65 0 -88.5 15t-23.5 43q0 60 107 115z"/>
<glyph glyph-name="eta" horiz-adv-x="1400" unicode="η" d="M1003 -592l-28 19l2 296l2 320q0 281 -3 413t-24 218.5t-75.5 123.5t-118.5 37q-46 0 -92 -19t-90 -58t-66 -78.5t-28.5 -76t-8 -143.5t-1.5 -154q0 -108 9 -287q-121 -18 -238 -46l-32 12q14 336 14 518q0 209 -13.5 257t-45.5 48q-22 0 -141 -46l-14 65 q136 78 220 109.5t145 31.5q53 0 74.5 -29.5t21.5 -86.5q0 -34 -7 -91q104 100 228 153.5t248 53.5q98 0 159.5 -37.5t91 -102.5t34 -155t4.5 -392q0 -478 36 -790q-12 -6 -263 -83z"/>
<glyph glyph-name="theta" horiz-adv-x="1292" unicode="θ" d="M350 691q0 -206 39 -366t105 -227.5t151 -67.5t147.5 65.5t101.5 189t56 406.5h-600zM951 771q-6 220 -40 345t-88 185t-143 60q-144 0 -234 -160.5t-97 -429.5h602zM1198 763q0 -77 -13.5 -188.5t-51 -221.5t-91.5 -189.5t-111 -121.5t-135.5 -64t-181.5 -22 q-105 0 -184.5 23.5t-136 72.5t-100.5 129t-71.5 202t-27.5 263q0 234 66.5 428.5t198 277.5t323.5 83q283 0 399.5 -161t116.5 -511z"/>
<glyph glyph-name="iota" horiz-adv-x="682" unicode="ι" d="M406 979l30 -20q-22 -190 -22 -430q0 -170 8 -263.5t39 -123.5t80 -30q50 0 115 33l10 -4l-6 -61q-151 -113 -314 -113q-98 0 -141.5 49.5t-43.5 165.5l5 305q0 308 -11 433z"/>
<glyph glyph-name="kappa" horiz-adv-x="1325" unicode="κ" d="M1282 133q-170 -164 -323 -164q-66 0 -118 42q-59 47 -132 172q-79 135 -151 291l-84 -84q-1 -32 -1 -54q0 -171 9 -316q-85 -14 -232 -47l-30 11q9 275 9 386q0 292 -9 389q-3 33 -12 42.5t-39 9.5q-32 0 -112 -9l-13 6v53l9 12q290 70 411 105l19 -12q-10 -40 -10 -504 q95 116 240 260q142 140 220 198t147 58q39 0 100 -19l19 -26q-4 -42 -15 -134l-18 -148l-54 -29l-15 4q-19 138 -107 138q-91 0 -268 -132q185 -358 312 -452q47 -35 107 -35q72 0 125 58l16 -10v-60z"/>
<glyph glyph-name="lambda" horiz-adv-x="1245" unicode="λ" d="M1222 184l2 -44q-117 -97 -198 -135t-134 -38q-39 0 -71.5 24.5t-59 89t-78 270t-105.5 441.5l-112 -182q-34 -55 -77 -149t-76 -196t-53 -218l-206 -71l-34 38q30 58 65.5 133t82.5 159.5t104.5 171.5t147.5 209l139 190q-45 191 -70 273t-54.5 110.5t-78.5 28.5 q-31 0 -111 -16l-12 7l8 62l105 24q46 10 129.5 26.5t102.5 18.5t34 2q36 0 55.5 -23.5t31 -71.5t57.5 -249q78 -346 134 -546t78.5 -260.5t50 -80.5t68.5 -20q48 0 123 29z"/>
<glyph glyph-name="nu" horiz-adv-x="1173" unicode="ν" d="M813 869v23q180 75 226 75q34 0 45 -34.5t11 -62.5q0 -68 -33 -141.5t-175 -319.5q-128 -221 -211 -399q-119 -18 -195 -38l-25 11q-77 262 -147 456q-109 304 -147 347q-26 30 -61 30q-30 0 -102 -21l-9 8v58l9 14q44 18 153.5 52.5t130 39t37.5 4.5q28 0 43 -16t30 -64 l68 -207l82 -250q44 -136 101 -299q104 183 153 290t72.5 168.5t23.5 115.5q0 45 -18 88.5t-62 71.5z"/>
<glyph glyph-name="xi" horiz-adv-x="1076" unicode="ξ" d="M388 1486l34 -21q-38 -27 -38 -50q0 -27 32.5 -41.5t116.5 -14.5q29 0 111 4q12 3 217 88l33 -23q-3 -44 -26 -100q-17 1 -28 1q-100 0 -196 -37.5t-138 -112t-42 -154.5q0 -68 34 -125t111.5 -92.5t184.5 -35.5q34 0 80 4l13 -13l-22 -60h-39q-121 0 -231 -37 t-177 -115.5t-67 -178.5q0 -89 59 -143.5t175 -54.5q44 0 127 7q135 10 203 10q93 0 127.5 -25.5t34.5 -67.5q0 -94 -127.5 -210t-363.5 -214q-75 36 -127 86l17 16q39 -12 72 -12q64 0 129 27t111 74.5t46 83.5q0 34 -42 44.5t-103 10.5q-25 0 -81 -3q-65 -4 -103 -4 q-122 0 -218 27t-138.5 93t-42.5 152q0 102 56.5 190.5t168.5 158t293 124.5q-226 39 -306 102t-80 165q0 100 74 171.5t247 136.5q-90 -8 -140 -8q-142 0 -142 63q0 49 111 114z"/>
<glyph glyph-name="omicron" horiz-adv-x="1220" unicode="ο" d="M359 468q0 -209 61 -318.5t184 -109.5q135 0 195.5 121t60.5 322q0 81 -15.5 170.5t-43.5 140.5t-76.5 79.5t-113.5 28.5q-79 0 -140 -44t-86.5 -143.5t-25.5 -246.5zM1138 484q0 -174 -56.5 -290.5t-183.5 -177t-292 -60.5q-167 0 -282 53.5t-178.5 171.5t-63.5 293 q0 164 63.5 280.5t184.5 172.5t286 56q248 0 385 -128t137 -371z"/>
<glyph glyph-name="pi" horiz-adv-x="1393" unicode="π" d="M1274 935l-62 -159l-158 -36q-27 -136 -27 -254q0 -163 49.5 -274.5t142.5 -111.5q62 0 115 54l16 -5l-7 -75q-51 -41 -133.5 -79.5t-154.5 -38.5q-82 0 -134 43.5t-76 118t-24 199.5q0 198 65 417l-399 -8q-62 -508 -63 -688q-88 -41 -179 -59l-24 32 q74 205 125.5 410.5t66.5 301.5q-102 -4 -139 -10.5t-57.5 -18.5t-37 -34.5t-32.5 -62.5l-33 -84l-19 -4l-33 17l22 155q13 86 27.5 149t28 83.5t32.5 30t61 9.5q12 0 91 -3q101 -4 186 -4l507 -4q115 0 252 7z"/>
<glyph glyph-name="rho" horiz-adv-x="1226" unicode="ρ" d="M366 468q0 -209 61 -318.5t184 -109.5q135 0 195.5 121t60.5 322q0 81 -16 170.5t-43.5 140.5t-76 79.5t-113.5 28.5q-122 0 -187 -94t-65 -340zM933 -540l-47 -25l-14 6q0 50 -15.5 69.5t-62.5 35t-141 33.5q-131 26 -210 48t-129 52t-84.5 77.5t-74 159t-56.5 243.5 t-17 253q0 206 69.5 337t193.5 182.5t278 51.5q172 0 291 -62t174.5 -172t55.5 -274q0 -267 -138.5 -391.5t-372.5 -124.5q-154 0 -274 59t-192 200q17 -125 42 -193.5t64 -105t113.5 -58.5t220.5 -48q173 -31 225.5 -47t79 -56.5t26.5 -145.5q0 -56 -5 -104z"/>
<glyph glyph-name="sigma1" horiz-adv-x="1047" unicode="ς" d="M567 -345l-142 84l11 26q45 -7 82 -7q117 0 202.5 55.5t85.5 107.5q0 71 -127 83q-87 8 -246 32t-220 62t-89.5 102.5t-28.5 149.5q0 95 30 165t77 149t134.5 154.5t177.5 110t195 34.5q61 0 177 -15q62 -8 86 -10l13 -22q-47 -106 -103 -185q-171 41 -333 41 q-98 0 -154.5 -24t-86.5 -88.5t-30 -142.5q0 -83 27 -138t77.5 -86t136 -46.5t259.5 -31.5q96 -9 137.5 -20.5t64.5 -38t23 -58.5q0 -51 -35.5 -120t-98 -130t-139.5 -112.5t-163 -80.5z"/>
<glyph glyph-name="sigma" horiz-adv-x="1368" unicode="σ" d="M381 468q0 -210 61 -319t184 -109q135 0 195.5 120t60.5 323q0 196 -58.5 307.5t-190.5 111.5q-122 0 -187 -94t-65 -340zM1310 1046l11 -16q2 -30 2 -47q0 -52 -14 -121l-18 -13q-65 1 -298 16q93 -55 131 -155.5t38 -218.5q0 -178 -61 -300t-188 -178.5t-287 -56.5 q-260 0 -391 132.5t-131 377.5q0 103 21.5 186.5t57 136.5t96.5 96.5t140.5 67t159.5 30.5t239 13q181 7 283 17.5t209 32.5z"/>
<glyph glyph-name="tau" horiz-adv-x="1074" unicode="τ" d="M1027 930l-54 -188l-146 3l-192 -2q-2 -152 -2 -176q0 -123 5 -205.5t24 -136.5t53.5 -79.5t77.5 -25.5q82 0 165 70l16 -5l-7 -75q-113 -82 -186 -108t-145 -26q-81 0 -128.5 32.5t-67 83.5t-19.5 183q0 155 6 292q4 104 5 176q-105 -1 -152 -7.5t-75.5 -28.5t-45 -60.5 t-37.5 -134.5l-17 -8l-43 28q3 32 8 93q8 102 20 178.5t29.5 101t48.5 34.5t120 10q36 0 182.5 -4t370.5 -4q72 0 171 3z"/>
<glyph glyph-name="upsilon" horiz-adv-x="1226" unicode="υ" d="M13 732l-13 6l-10 51q191 195 327 195q43 0 75 -27t43.5 -67.5t11.5 -114.5q0 -42 -9 -167q-10 -151 -10 -214q0 -190 51 -256t129 -66q63 0 133.5 36t116.5 99.5t70 140t24 176.5q0 83 -18.5 151t-46.5 110t-53 60.5t-69 37.5l-1 24q188 58 229 58q53 0 102 -78t49 -196 q0 -160 -89.5 -346.5t-240.5 -279.5t-317 -93q-161 0 -234 79t-73 235q0 34 5 141q3 65 3 117q0 169 -8 206.5t-39 37.5q-14 0 -38 -9t-100 -47z"/>
<glyph glyph-name="phi" horiz-adv-x="1518" unicode="φ" d="M686 901q-148 -12 -232.5 -119.5t-84.5 -311.5q0 -206 92.5 -315t232.5 -132zM805 23q64 5 127 34.5t116.5 92.5t77 135.5t23.5 189.5q0 205 -90.5 310t-226.5 116l-15 -449zM809 1419l51 -22l-24 -431q180 -11 327 -79.5t210 -179.5t63 -236q0 -133 -71 -251 t-217.5 -190t-342.5 -72q12 -314 39 -459q-72 -51 -119 -62q-31 12 -54 44q11 110 15 247l8 230q-189 4 -330.5 75.5t-211.5 188t-70 250.5q0 200 148 336t453 158q-4 89 -5 183q-2 152 -8 209q57 39 139 61z"/>
<glyph glyph-name="chi" horiz-adv-x="1209" unicode="χ" d="M1207 -205l5 -45q-26 -27 -113.5 -95t-131.5 -82t-85 -14q-42 0 -70 10.5t-52 32.5t-48.5 68t-94.5 223l-103 277q-260 -469 -315 -612l-24 -15q-86 46 -131 120q26 43 111 156q159 211 326 457q-43 132 -102 297.5t-91 197.5t-68 32q-52 0 -145 -55l-19 2l-10 47 q107 89 185 137t147 48q44 0 75 -19.5t51 -58t58.5 -155t75.5 -257.5q12 14 123 172l109 156l74 107q23 35 45 64l23 1q52 -59 85 -114q-92 -94 -241 -264.5t-184 -217.5l74 -209q39 -109 85.5 -211t85 -147t76 -63.5t65.5 -18.5q21 0 47.5 9t90.5 46z"/>
<glyph glyph-name="psi" horiz-adv-x="1545" unicode="ψ" d="M1 738l-11 38q64 65 136 119t111 71.5t79 17.5q33 0 59.5 -14t39.5 -42t13 -79q0 -22 -5 -126q-5 -127 -5 -220q0 -178 27.5 -263.5t106.5 -132t181 -46.5q13 0 43 1q-6 187 -8 558l-3 500q-1 129 -10 238q57 39 139 61l51 -22l-19 -342q-7 -126 -13 -313l-12 -359 l-10 -316q153 12 274.5 124t121.5 324q0 98 -23.5 175.5t-53 116t-80.5 77.5v24q187 58 217 58q38 0 62.5 -32t39 -96t14.5 -128q0 -275 -161.5 -486t-410.5 -233q14 -333 38 -492q-72 -52 -119 -62q-32 12 -54 44q10 99 13 255l7 248q-44 -2 -68 -2q-98 0 -195 15t-156 43 t-98 73t-56 114t-17 180l2 166q0 57 -2.5 112.5t-16.5 73.5t-34 18q-29 0 -118 -44z"/>
<glyph glyph-name="theta1" horiz-adv-x="1397" unicode="ϑ" d="M1018 615v48q0 244 -133 448.5t-283 204.5q-81 0 -134.5 -54t-53.5 -131q0 -155 170.5 -294t433.5 -222zM1355 520l-7 -24l-137 -76q-49 -206 -177.5 -335t-320.5 -129q-107 0 -182.5 35.5t-117.5 93t-94 176.5q-44 100 -66.5 130.5t-48.5 30.5q-18 0 -48 -10l-83 -25 l-14 9l-15 44l5 14q59 34 149.5 72t120 46.5t54.5 8.5q28 0 50.5 -19.5t48 -74.5t66.5 -165q42 -114 70.5 -174t64 -87t78.5 -27q41 0 76 20t66.5 61.5t61.5 123t49 161.5q-133 29 -322 118t-300 221t-111 270q0 84 39.5 164.5t113 141.5t146 90t175.5 29q239 0 365 -207.5 t126 -489.5q0 -88 -14 -180z"/>
<glyph glyph-name="omega1" horiz-adv-x="1666" unicode="ϖ" d="M296 1020l-21 14l27 71q256 98 486 98q226 0 406.5 -63.5t285 -207.5t104.5 -334q0 -124 -38 -235t-97.5 -184t-140 -123.5t-159 -68.5t-143.5 -18q-75 0 -134 32.5t-103 131.5q-138 -164 -334 -164q-172 0 -262.5 115.5t-90.5 318.5q0 129 37.5 227.5t113 174.5 t164.5 114t214 62l21 -28l-5 -15q-96 -31 -168 -93t-105.5 -145.5t-33.5 -219.5q0 -150 50 -277t162 -127q52 0 109 26.5t112 97.5q-12 142 -12 243q0 94 8 167l216 93l30 -25q-14 -133 -14 -230q0 -199 39.5 -289t126.5 -90q105 0 183 101t78 288q0 193 -82 346t-244 225.5 t-365 72.5q-95 0 -193.5 -17t-227.5 -65z"/>
<glyph glyph-name="afii10020" horiz-adv-x="1190" unicode="Г" d="M1149 1406q-14 -93 -14 -324l-11 -10h-63l-10 10q-1 6 -3 40q-4 73 -5 83q-8 61 -28 76q-30 22 -193 22h-297v-865q0 -238 13 -310q5 -29 34 -37q15 -4 117 -10l10 -10l1 -68l-9 -9q-14 0 -76 2q-159 4 -233 4q-99 0 -309 -6l-9 9v68l10 10q102 6 117 10q29 8 34 37 q13 72 13 310v529q0 238 -13 310q-5 29 -34 37q-15 4 -117 10l-10 10v68l10 9l243 -6q645 0 823 11z"/>
<glyph glyph-name="afii10033" horiz-adv-x="1676" unicode="П" d="M1612 1l-10 -7q-207 6 -308 6q-216 0 -308 -6l-9 9l-1 68l10 10q102 6 117 10q29 8 34 37q13 72 13 310v538q0 202 -9 327h-607q-9 -125 -9 -327v-538q0 -238 13 -310q5 -29 34 -37q15 -4 116 -10l11 -10v-68l-9 -9q-211 6 -308 6q-160 0 -309 -6l-9 9v68l10 10 q102 6 117 10q29 8 34 37q13 72 13 310v529q0 238 -13 310q-5 29 -34 37q-15 4 -117 10l-10 10v68l10 9l544 -6h562q119 0 422 6l10 -9v-68l-11 -10q-102 -6 -117 -10q-29 -8 -34 -37q-13 -72 -13 -310v-529q0 -238 13 -310q5 -29 34 -37q14 -4 118 -10l10 -10v-70z"/>
<glyph glyph-name="afii10038" horiz-adv-x="1962" unicode="Ф" d="M843 535v399q0 62 -5 187q-195 0 -278 -42q-107 -54 -142 -188q-19 -73 -19 -156q0 -245 140 -351q92 -70 301 -70q3 145 3 221zM1563 735q0 353 -287 379q-67 6 -151 6q-5 -125 -5 -187v-399q0 -76 3 -221q116 0 178 13q70 15 126 59q136 107 136 350zM1868 744 q0 -276 -201 -406q-110 -71 -259 -96q-100 -16 -279 -16q4 -102 42 -122q13 -7 69 -16l49 -8l11 -9v-67l-10 -10q-101 6 -304 6q-223 0 -314 -6l-10 10v67l11 11l49 8q64 10 78 23q31 27 31 113q-305 0 -460 71q-176 81 -242 255q-35 92 -35 192q0 407 487 453q94 9 251 9 q-3 62 -27.5 85.5t-132.5 33.5l-10 9v68l10 10q99 -7 321 -7q208 0 297 7l10 -10v-68l-10 -9l-50 -7q-69 -10 -86 -31q-20 -25 -23 -81q294 0 446 -52q291 -99 291 -410z"/>
<glyph glyph-name="uni2002" unicode=" "/>
<glyph glyph-name="uni2003" horiz-adv-x="2048" unicode=" "/>
<glyph glyph-name="uni2009" horiz-adv-x="410" unicode=" "/>
<glyph glyph-name="endash" d="M1024 422h-1024v170h1024v-170z" unicode="–"/>
<glyph glyph-name="emdash" horiz-adv-x="2048" unicode="—" d="M265 422v170h1518v-170h-1518z"/>
<glyph glyph-name="quoteleft" horiz-adv-x="569" unicode="‘" d="M513 1404q-134 -285 -152 -504q-98 -18 -270 -66l-29 27q131 290 287 517l135 56z"/>
<glyph glyph-name="quotesinglbase" horiz-adv-x="569" unicode="‚" d="M507 249q-131 -290 -287 -517l-135 -56l-29 30q134 285 152 504q98 18 270 66z"/>
<glyph glyph-name="quotedblleft" d="M525 1404q-134 -285 -152 -504q-98 -18 -270 -66l-29 27q131 290 287 517l135 56zM968 1404q-134 -285 -152 -504q-98 -18 -270 -66l-29 27q131 290 287 517l135 56z" unicode="“"/>
<glyph glyph-name="quotedblright" d="M507 1407q-131 -290 -287 -517l-135 -56l-29 30q134 285 152 504q98 18 270 66zM950 1407q-131 -290 -287 -517l-135 -56l-29 30q134 285 152 504q98 18 270 66z" unicode="”"/>
<glyph glyph-name="dagger" d="M374 -7l-11 11q17 162 25.5 397t8.5 376q-92 0 -239 -11l-91 -6l-9 12q5 87 5 104q0 39 -6 91l8 11l244 -17q21 -1 89 -1q-3 283 -28 448l10 9l15 -1q82 -5 119 -5q33 0 130 6l10 -9q-24 -169 -27 -448q62 0 95.5 1.5t236.5 16.5l8 -11q-6 -49 -6 -91q0 -36 6 -104 l-10 -12q-11 0 -90 6q-148 11 -239 11q2 -478 33 -773l-11 -11l-18 2q-98 8 -126 8q-25 0 -132 -10z" unicode="†"/>
<glyph glyph-name="daggerdbl" d="M958 -106l-11 -8q-163 19 -336 19q2 -103 14 -231q15 -157 18 -168l-12 -10q-63 9 -119 9q-57 0 -119 -9l-12 10q12 79 22 213q7 92 9 186q-173 0 -335 -19l-11 8q8 53 8 93q0 35 -7 95l9 11q86 -10 342 -22l-29 394l29 377q-225 -8 -342 -21l-9 10q7 61 7 96q0 38 -8 92 l11 9q150 -19 335 -19q0 95 -13 229q-14 150 -18 170l12 9q62 -8 119 -8q54 0 119 8l12 -9q-11 -74 -22 -211q-5 -68 -10 -188q188 0 336 19l11 -9q-8 -52 -8 -92q0 -29 7 -96l-10 -10q-117 13 -341 21l28 -377l-28 -394q255 12 341 22l10 -11q-7 -67 -7 -95q0 -38 8 -93z " unicode="‡"/>
<glyph glyph-name="ellipsis" horiz-adv-x="2048" unicode="…" d="M1024 290q65 0 111 -45.5t46 -110.5q0 -64 -46 -110.5t-111 -46.5q-64 0 -110 46t-46 111q0 66 46 111t110 45zM1693 290q65 0 110.5 -46t45.5 -110q0 -65 -46 -111t-110 -46q-65 0 -111 46t-46 111q0 64 46 110t111 46zM356 290q64 0 110 -45.5t46 -110.5 q0 -64 -46 -110.5t-110 -46.5q-65 0 -111 46t-46 111q0 64 45.5 110t111.5 46z"/>
<glyph glyph-name="perthousand" horiz-adv-x="2048" unicode="‰" d="M1115 298q0 202 -50 257q-25 28 -63 28q-37 0 -62 -28q-51 -56 -51 -257q0 -277 113 -277t113 277zM450 1103q0 202 -50 257q-25 28 -63 28q-37 0 -62 -28q-51 -56 -51 -257q0 -277 113 -277t113 277zM1825 298q0 202 -50 257q-25 28 -63 28q-37 0 -62 -28 q-51 -56 -51 -257q0 -277 113 -277t113 277zM1317 306q0 -148 -82 -246q-87 -104 -232 -104q-149 0 -235 101q-80 96 -80 248q0 145 85 241q88 100 231 100q146 0 231 -98q82 -94 82 -242zM1129 1482l-844 -1558h-68l-6 15l843 1557h68zM651 1111q0 -200 -141 -298 q-73 -51 -173 -51q-149 0 -235 101q-80 95 -80 247q0 145 85 241q89 100 232 100q145 0 231 -99q81 -93 81 -241zM2027 306q0 -148 -82 -246q-87 -104 -232 -104q-150 0 -235 101q-80 95 -80 248q0 197 145 293q72 48 172 48q145 0 231 -99q81 -93 81 -241z"/>
<glyph glyph-name="minute" horiz-adv-x="512" unicode="′" d="M426 1357q0 -35 -26 -72l-245 -349h-68l142 426q30 89 102 89q39 0 67 -27.5t28 -66.5z"/>
<glyph glyph-name="second" d="M912 1357q0 -35 -26 -72l-245 -349h-68l142 426q30 89 102 89q39 0 67 -27.5t28 -66.5zM452 1357q0 -35 -26 -72l-245 -349h-68l142 426q30 89 102 89q39 0 67 -27.5t28 -66.5z" unicode="″"/>
<glyph glyph-name="guilsinglleft" horiz-adv-x="797" unicode="‹" d="M181 470v51q71 60 193 180q138 138 194 189h15l39 -30l1 -14q-8 -8 -217 -348l216 -364l-2 -14l-39 -29h-15q-39 32 -189 189q-74 79 -196 190z"/>
<glyph glyph-name="guilsinglright" horiz-adv-x="797" unicode="›" d="M616 521v-51q-122 -111 -197 -190q-149 -157 -188 -189h-16l-39 29l-2 14q4 6 76 127l140 237l-216 348l1 14l38 30h15q52 -45 195 -189q115 -116 193 -180z"/>
<glyph glyph-name="uni203E" d="M-12 1616v122h1047v-122h-1047z" unicode="‾"/>
<glyph glyph-name="fraction" horiz-adv-x="344" unicode="⁄" d="M666 1352l-914 -1396h-68l-6 15l913 1395h68z"/>
<glyph glyph-name="uni2074" horiz-adv-x="658" unicode="⁴" d="M339 1275q-111 -173 -213 -413h207l2 211q1 115 4 202zM616 552l-12 -12q-132 5 -201 5q-78 0 -197 -5l-10 11v34l10 10q49 5 82 10t37 33.5t7 110.5h-72l-123 -1q-48 0 -104 -2l-10 10v48q24 78 139 280q112 195 171 267l161 30l16 -15q-11 -98 -11 -376v-128 q41 0 101 3l12 -10q-1 -24 -1 -47q0 -22 1 -47l-12 -12h-101q0 -90 5 -110q7 -28 49 -36l52 -10l11 -9v-32z"/>
<glyph glyph-name="Euro" d="M984 174l-46 -102q-148 -116 -312 -116q-222 0 -370 150q-143 146 -179 394h-91l-10 9l24 88l10 10h57q-1 24 -1 48q0 20 2 59h-82l-10 9l24 88l10 10h68q37 240 171 384q150 161 394 161q172 0 326 -85l13 -15q-14 -56 -26.5 -110t-15.5 -115l-9 -10h-59l-10 11 q-2 74 -11 128q-77 87 -208 87q-130 0 -213 -126q-78 -119 -91 -310h508l10 -10l-24 -87l-10 -10h-488v-107h453l10 -10l-24 -87l-10 -10h-424q17 -189 112.5 -306.5t234.5 -117.5q88 0 157 37q34 18 115 84z" unicode="€"/>
<glyph glyph-name="trademark" horiz-adv-x="2044" unicode="™" d="M1214 1399l249 -582l247 582h281v-51h-40q-32 0 -43.5 -6t-15 -17.5t-3.5 -51.5v-562q0 -69 16.5 -82t85.5 -20v-54h-364v54q60 1 82.5 14.5t22.5 87.5v581l-303 -737h-22l-316 737v-595q0 -44 10 -60.5t25 -20.5t69 -7v-54h-272v54q54 3 78.5 13t24.5 75v595 q0 27 -2.5 35.5t-14 14.5t-40.5 6h-30v51h275zM55 1184v215h768v-215h-62q-3 93 -44 119.5t-109 26.5h-91v-627q0 -47 10.5 -59.5t27 -20.5t86.5 -14v-54h-411v54q83 6 108.5 29.5t25.5 72.5v619h-92q-99 0 -126.5 -38t-27.5 -108h-63z"/>
<glyph glyph-name="partialdiff" d="M302 480q0 -214 55.5 -314t165.5 -100q105 0 152 94t47 290q0 199 -48.5 295.5t-168.5 96.5q-98 0 -150.5 -92.5t-52.5 -269.5zM152 1395l32 93q244 -13 427.5 -114.5t287 -287t103.5 -482.5q0 -222 -61 -359t-167 -208.5t-273 -71.5q-161 0 -268.5 58.5t-159 171.5 t-51.5 243q0 138 53 258.5t155.5 183.5t231.5 63q140 0 240 -89q-21 234 -167.5 377t-382.5 164z" unicode="∂"/>
<glyph glyph-name="product" horiz-adv-x="1776" unicode="∏" d="M1666 -363l-9 -10q-100 6 -297 6q-186 0 -286 -6l-9 10v67l10 10q102 6 117 10q29 8 34 37q13 72 13 310v1189l-14 15h-673l-14 -14v-1190q0 -238 13 -310q5 -29 34 -37q15 -4 117 -10l10 -10v-67l-9 -10q-100 6 -297 6q-186 0 -286 -6l-9 10v67l10 10q102 6 117 10 q29 8 34 37q13 72 13 310v886q0 238 -13 310q-5 29 -34 37q-15 4 -117 10l-10 10v68l10 9q48 -3 244 -5q97 -1 254 -1h496q115 0 237 1t304 5l10 -9v-68l-10 -10q-102 -6 -117 -10q-29 -8 -34 -37q-13 -72 -13 -310v-886q0 -238 13 -310q5 -29 34 -37q15 -4 117 -10l10 -10 v-67z"/>
<glyph glyph-name="summation" horiz-adv-x="1460" unicode="∑" d="M1344 110l-21 -491h-1200v51l513 871l-513 821v57q132 -2 543 -2q489 0 631 2l10 -10q-27 -162 -27 -346l-10 -10h-50l-10 10q-8 104 -27 158q-14 38 -33 53q-22 17 -98 21q-35 2 -108 2h-450l-10 -19l353 -588l-475 -822l10 -15h624q154 0 194 28q52 37 84 229l11 10h49 z"/>
<glyph glyph-name="minus" d="M993 515h-961v172h961v-172z" unicode="−"/>
<glyph glyph-name="radical" horiz-adv-x="1124" unicode="√" d="M944 1862l154 -18l-303 -1922h-120l-485 1002l-172 -89l-46 92l392 199l346 -722z"/>
<glyph glyph-name="infinity" horiz-adv-x="1460" unicode="∞" d="M837 604q33 -30 72 -67.5t83 -64.5t73.5 -34.5t54.5 -7.5q67 0 113.5 49.5t46.5 118.5q0 72 -44.5 123t-117.5 51q-35 0 -65.5 -11t-94.5 -58t-121 -99zM627 601q-116 105 -147.5 130.5t-66 39.5t-75.5 14q-61 0 -110 -50t-49 -136q0 -72 47.5 -120t121.5 -48 q55 0 93 18.5t65 41.5t88 80zM727 695q158 144 236 180.5t159 36.5q133 0 228 -84.5t95 -217.5q0 -88 -43 -167t-119 -116t-162 -37q-103 0 -174.5 40t-216.5 179q-128 -129 -206.5 -174t-195.5 -45q-140 0 -227 88.5t-87 222.5q0 131 91 221t230 90q65 0 123 -21 t111.5 -61.5t157.5 -134.5z"/>
<glyph glyph-name="logicaland" d="M1000 0h-176l-313 969l-312 -969h-176l412 1202h154z" unicode="∧"/>
<glyph glyph-name="logicalor" d="M1000 1202l-411 -1202h-154l-412 1202h176l312 -969l313 969h176z" unicode="∨"/>
<glyph glyph-name="intersection" d="M992 0h-172v731q0 143 -82.5 225.5t-225.5 82.5t-225.5 -82.5t-82.5 -225.5v-731h-172v722q0 222 129 351t352 129q220 0 349.5 -129t129.5 -351v-722z" unicode="∩"/>
<glyph glyph-name="union" d="M992 480q0 -222 -129.5 -351t-349.5 -129q-223 0 -352 129t-129 351v722h172v-731q0 -143 82.5 -225.5t225.5 -82.5t225.5 82.5t82.5 225.5v731h172v-722z" unicode="∪"/>
<glyph glyph-name="congruent" d="M993 1019q-56 -93 -130.5 -146.5t-141.5 -53.5q-50 0 -132 38l-145 67q-74 34 -116 34q-48 0 -86 -23q-49 -31 -125 -123l-85 95q159 201 287 201q58 0 136 -36l147 -68q74 -34 104 -34q104 0 209 139zM993 152h-961v172h961v-172zM993 515h-961v172h961v-172z" unicode="≅"/>
<glyph glyph-name="approxequal" d="M993 850q-56 -93 -130.5 -146.5t-141.5 -53.5q-50 0 -132 38l-145 67q-74 34 -116 34q-48 0 -86 -23q-49 -31 -125 -123l-85 95q159 201 287 201q58 0 136 -36l147 -68q74 -34 104 -34q104 0 209 139zM993 511q-56 -93 -130.5 -146.5t-141.5 -53.5q-50 0 -132 38l-145 67 q-74 34 -116 34q-48 0 -86 -23q-49 -31 -125 -123l-85 95q159 201 287 201q58 0 136 -36l147 -68q74 -34 104 -34q104 0 209 139z" unicode="≈"/>
<glyph glyph-name="notequal" d="M993 352h-555l-158 -323l-146 71l123 252h-225v172h310l93 191h-403v172h488l155 317l145 -71l-120 -246h293v-172h-377l-94 -191h471v-172z" unicode="≠"/>
<glyph glyph-name="equivalence" d="M993 152h-961v172h961v-172zM993 515h-961v172h961v-172zM993 878h-961v172h961v-172z" unicode="≡"/>
<glyph glyph-name="lessequal" d="M993 0h-961v172h961v-172zM993 255l-961 435v154l961 437v-176l-728 -337l728 -337v-176z" unicode="≤"/>
<glyph glyph-name="greaterequal" d="M993 0h-961v172h961v-172zM993 690l-961 -435v176l728 337l-728 337v176l961 -437v-154z" unicode="≥"/>
<glyph glyph-name="lozenge" horiz-adv-x="1012" unicode="◊" d="M506 152l324 592l-324 591l-324 -591zM432 0l-422 744l422 743h148l422 -743l-422 -744h-148z"/>
<glyph glyph-name="uniFB05" horiz-adv-x="1321" unicode="ﬅ" d="M729 1481q-2 -33 -4 -107v-22q0 -34 2 -78l-31 -18q-48 50 -122 50q-54 0 -83 -22q-36 -27 -43 -117q-1 -8 -1 -130v-445q0 -454 14 -485q7 -16 29 -23.5t106 -9.5l10 -10v-61l-10 -10l-74 3q-106 4 -200 4q-159 0 -253 -7l-10 10v61l10 10q80 3 99.5 14.5t21.5 48.5 q7 130 7 455v178h-12q-20 0 -55 -2q-18 -1 -53 -3l-10 10v31l9 14l75 46q34 21 40 28t6 19v15q0 154 20 210q11 30 42 68q9 11 130 126l62 59q27 27 68 64q55 40 134 40q33 0 76 -14zM1305 131q-7 -8 -43 -42q-59 -56 -101 -102q-49 -16 -99 -16q-139 0 -203 81 q-27 35 -36 81q-9 50 -9 128v16l3 239v250h-27l-53 -2h-41l-11 9v26l8 15q18 12 56 36q45 28 68 47v136q0 85 -8 180q75 24 121.5 42.5t131.5 60.5l26 -20q-12 -124 -17 -222l-9 -173h33q109 0 188 7l11 -11l-14 -117l-10 -10h-208v-339q0 -141 -1 -141l-1 6q5 -94 40 -124 q32 -27 84 -27q41 0 99 22z"/>
<glyph glyph-name="uniFB06" horiz-adv-x="1599" unicode="ﬆ" d="M1583 131q-6 -7 -43 -42q-58 -55 -101 -102q-49 -16 -99 -16q-139 0 -203 81q-45 58 -45 212v13l3 239v250h-27l-53 -2h-41l-11 9v26l8 15q43 26 124 83v136q0 28 1.5 85t1.5 89q-37 13 -110 39q-54 18 -96 18q-97 0 -150 -71q-37 -49 -37 -127q0 -57 26 -115 q17 -38 38 -61q-9 -38 -15 -213l-11 -10h-57l-11 10q-4 72 -14 117q-63 80 -183 80q-71 0 -121 -33q-57 -37 -57 -105q0 -83 85 -111q37 -12 148 -34q168 -33 222 -76q84 -67 84 -201q0 -174 -137 -272q-121 -86 -302 -86q-139 0 -298 60l-11 15q9 92 11 143l5 126l10 11h59 l12 -11q4 -112 9 -132q85 -109 223 -109q81 0 134 38q60 42 60 120q0 91 -80 121q-34 13 -135 34q-164 35 -221 80q-85 68 -85 201q0 161 125 249q109 76 278 76q89 0 159 -15q-34 63 -34 150q0 125 71 214q80 101 190 101q89 0 155 -42q24 -15 140 -106q41 -32 79 -32 q41 0 94 49l34 -20q-29 -83 -35 -203l-9 -173h33q109 0 188 7l11 -11l-14 -117l-10 -10h-208v-339q0 -160 4 -192q12 -94 118 -94q41 0 99 22z"/>
<glyph glyph-name="glyph587" d="M590 1875l-451 -326l-46 35v14l219 276l256 31z" horiz-adv-x="682"/>
<glyph glyph-name="glyph588" d="M590 1584l-46 -35l-451 326l22 30l256 -31l219 -276v-14z" horiz-adv-x="682"/>
<glyph glyph-name="glyph589" d="M684 1549l-3 -10h-77l-263 215l-263 -215h-77l-3 10l245 356h196z" horiz-adv-x="682"/>
<glyph glyph-name="glyph590" d="M266 1722q0 -60 -43 -103t-102 -43q-61 0 -103 42.5t-42 103.5q0 63 43 105.5t102 42.5t102 -43.5t43 -104.5zM706 1722q0 -61 -42.5 -103.5t-103.5 -42.5q-60 0 -102.5 42.5t-42.5 103.5t43 104.5t102 43.5t102.5 -42.5t43.5 -105.5z" horiz-adv-x="682"/>
<glyph glyph-name="glyph591" d="M727 1860q-21 -113 -86 -188q-66 -78 -147 -78q-55 0 -131 35q-27 13 -79 36q-20 10 -68 32q-40 18 -77 18q-80 0 -114 -114h-63l-7 10q21 113 86.5 189.5t146.5 76.5q55 0 131 -35q27 -13 79 -36q20 -10 68 -32q40 -18 77 -18q80 0 114 114h63z" horiz-adv-x="682"/>
<glyph glyph-name="glyph592" d="M684 1895l-245 -356h-196l-245 356l3 10h77l263 -215l263 215h77z" horiz-adv-x="682"/>
<glyph glyph-name="glyph594" d="M454 1729q0 54 -26 92q-31 44 -87 44t-86 -44q-26 -38 -26 -92t26 -92q30 -45 86 -45t87 45q26 38 26 92zM563 1729q0 -89 -64 -146t-158 -57t-158 57t-64 146q0 88 64.5 144.5t157.5 56.5q94 0 158 -57t64 -144z" horiz-adv-x="682"/>
</font>
</defs>
</svg>
